NotoSans-CondensedLightItalic.ufo
<glyph name="exclam" format="2">
  <advance width="439.125"/>
  <unicode hex="0021"/>
  <outline>
    <contour>
      <point x="121.25" y="365.5" type="line"/>
      <point x="200.25" y="365.5" type="line"/>
      <point x="455.75" y="1462.0" type="line"/>
      <point x="350.375" y="1462.0" type="line"/>
    </contour>
    <contour>
      <point x="82.25" y="-7.25" type="curve" smooth="yes"/>
      <point x="135.625" y="-7.25"/>
      <point x="167.875" y="53.0"/>
      <point x="167.875" y="109.375" type="curve" smooth="yes"/>
      <point x="167.875" y="152.25"/>
      <point x="147.5" y="175.375"/>
      <point x="114.75" y="175.375" type="curve" smooth="yes"/>
      <point x="56.125" y="175.375"/>
      <point x="26.875" y="113.0"/>
      <point x="26.875" y="56.375" type="curve" smooth="yes"/>
      <point x="26.875" y="15.25"/>
      <point x="48.75" y="-7.25"/>
    </contour>
  </outline>
</glyph>
<glyph name="quotedbl" format="2">
  <advance width="588.25"/>
  <unicode hex="0022"/>
  <outline>
    <contour>
      <point x="460.75" y="934.0" type="line"/>
      <point x="529.25" y="934.0" type="line"/>
      <point x="660.25" y="1462.0" type="line"/>
      <point x="556.75" y="1462.0" type="line"/>
    </contour>
    <contour>
      <point x="198.0" y="934.0" type="line"/>
      <point x="265.875" y="934.0" type="line"/>
      <point x="396.125" y="1462.0" type="line"/>
      <point x="293.25" y="1462.0" type="line"/>
    </contour>
  </outline>
</glyph>
<glyph name="slash" format="2">
  <advance width="630.25"/>
  <unicode hex="002F"/>
  <outline>
    <contour>
      <point x="-95.0" y="0.25000000000000044" type="line"/>
      <point x="-6.750000000000005" y="0.25000000000000044" type="line"/>
      <point x="772.375" y="1461.75" type="line"/>
      <point x="683.0" y="1461.75" type="line"/>
    </contour>
  </outline>
</glyph>
<glyph name="one" format="2">
  <advance width="739.125"/>
  <unicode hex="0031"/>
  <outline>
    <contour>
      <point x="229.625" y="0.0" type="line"/>
      <point x="323.5" y="0.0" type="line"/>
      <point x="633.125" y="1462.0" type="line"/>
      <point x="540.625" y="1462.0" type="line"/>
      <point x="225.5" y="1197.25" type="line"/>
      <point x="274.625" y="1134.75" type="line"/>
      <point x="453.25" y="1282.625" type="line" smooth="yes"/>
      <point x="479.25" y="1304.0"/>
      <point x="499.0" y="1323.875"/>
      <point x="517.75" y="1344.0" type="curve"/>
      <point x="495.75" y="1257.125"/>
      <point x="487.0" y="1221.0"/>
      <point x="474.75" y="1160.375" type="curve" smooth="yes"/>
    </contour>
  </outline>
</glyph>
<glyph name="three" format="2">
  <advance width="739.125"/>
  <unicode hex="0033"/>
  <outline>
    <contour>
      <point x="181.375" y="-21.875" type="curve" smooth="yes"/>
      <point x="470.0" y="-21.875"/>
      <point x="604.625" y="224.25"/>
      <point x="604.625" y="463.5" type="curve" smooth="yes"/>
      <point x="604.625" y="634.0"/>
      <point x="535.0" y="723.0"/>
      <point x="434.625" y="755.5" type="curve"/>
      <point x="436.625" y="760.25" type="line"/>
      <point x="621.75" y="800.0"/>
      <point x="747.75" y="994.25"/>
      <point x="747.75" y="1205.25" type="curve" smooth="yes"/>
      <point x="747.75" y="1371.75"/>
      <point x="654.375" y="1483.0"/>
      <point x="485.875" y="1483.0" type="curve" smooth="yes"/>
      <point x="365.375" y="1483.0"/>
      <point x="278.875" y="1435.75"/>
      <point x="213.25" y="1380.75" type="curve"/>
      <point x="253.5" y="1304.5" type="line"/>
      <point x="310.125" y="1353.125"/>
      <point x="379.75" y="1397.125"/>
      <point x="472.875" y="1397.125" type="curve" smooth="yes"/>
      <point x="594.0" y="1397.125"/>
      <point x="650.5" y="1319.75"/>
      <point x="650.5" y="1193.375" type="curve" smooth="yes"/>
      <point x="650.5" y="999.125"/>
      <point x="529.375" y="799.375"/>
      <point x="301.375" y="799.375" type="curve" smooth="yes"/>
      <point x="241.625" y="799.375" type="line"/>
      <point x="223.75" y="714.625" type="line"/>
      <point x="281.125" y="714.625" type="line" smooth="yes"/>
      <point x="422.0" y="714.625"/>
      <point x="507.25" y="643.75"/>
      <point x="507.25" y="454.5" type="curve" smooth="yes"/>
      <point x="507.25" y="267.0"/>
      <point x="407.125" y="64.25"/>
      <point x="179.125" y="64.25" type="curve" smooth="yes"/>
      <point x="91.375" y="64.25"/>
      <point x="15.625" y="89.5"/>
      <point x="-42.5" y="130.375" type="curve"/>
      <point x="-42.5" y="29.5" type="line"/>
      <point x="10.625" y="-2.0000000000000004"/>
      <point x="89.625" y="-21.875"/>
    </contour>
  </outline>
</glyph>
<glyph name="seven" format="2">
  <advance width="739.125"/>
  <unicode hex="0037"/>
  <outline>
    <contour>
      <point x="71.125" y="0.0" type="line"/>
      <point x="171.0" y="0.0" type="line"/>
      <point x="810.5" y="1384.75" type="line"/>
      <point x="819.625" y="1462.0" type="line"/>
      <point x="210.5" y="1462.0" type="line"/>
      <point x="192.625" y="1374.25" type="line"/>
      <point x="710.375" y="1374.25" type="line"/>
    </contour>
  </outline>
</glyph>
<glyph name="question" format="2">
  <advance width="530.75"/>
  <unicode hex="003F"/>
  <outline>
    <contour>
      <point x="101.875" y="365.5" type="curve"/>
      <point x="181.625" y="365.5" type="line"/>
      <point x="216.375" y="558.875"/>
      <point x="256.375" y="636.75"/>
      <point x="388.625" y="794.75" type="curve" smooth="yes"/>
      <point x="519.875" y="951.375"/>
      <point x="615.5" y="1079.125"/>
      <point x="615.5" y="1256.625" type="curve" smooth="yes"/>
      <point x="615.5" y="1398.0"/>
      <point x="533.75" y="1483.0"/>
      <point x="393.875" y="1483.0" type="curve" smooth="yes"/>
      <point x="313.375" y="1483.0"/>
      <point x="237.875" y="1455.75"/>
      <point x="175.75" y="1409.0" type="curve"/>
      <point x="205.25" y="1335.25" type="line"/>
      <point x="252.25" y="1368.0"/>
      <point x="305.375" y="1396.375"/>
      <point x="377.75" y="1396.375" type="curve" smooth="yes"/>
      <point x="464.75" y="1396.375"/>
      <point x="519.75" y="1342.25"/>
      <point x="519.75" y="1243.0" type="curve" smooth="yes"/>
      <point x="519.75" y="1074.625"/>
      <point x="438.25" y="982.75"/>
      <point x="307.25" y="820.5" type="curve" smooth="yes"/>
      <point x="182.625" y="667.375"/>
      <point x="141.625" y="571.625"/>
    </contour>
    <contour>
      <point x="83.25" y="-7.25" type="curve" smooth="yes"/>
      <point x="135.5" y="-7.25"/>
      <point x="168.375" y="53.0"/>
      <point x="168.375" y="109.375" type="curve" smooth="yes"/>
      <point x="168.375" y="152.25"/>
      <point x="148.0" y="175.375"/>
      <point x="115.25" y="175.375" type="curve" smooth="yes"/>
      <point x="56.625" y="175.375"/>
      <point x="27.75" y="113.0"/>
      <point x="27.75" y="56.375" type="curve" smooth="yes"/>
      <point x="27.75" y="15.25"/>
      <point x="49.25" y="-7.25"/>
    </contour>
  </outline>
</glyph>
<glyph name="B" format="2">
  <advance width="809.125"/>
  <unicode hex="0042"/>
  <anchor x="292.75" y="0.0" name="bottom"/>
  <anchor x="601.375" y="1462.0" name="top"/>
  <anchor x="964.0" y="1462.0" name="topright"/>
  <outline>
    <contour>
      <point x="5.0" y="0.0" type="line"/>
      <point x="261.375" y="0.0" type="line" smooth="yes"/>
      <point x="558.0" y="0.0"/>
      <point x="702.375" y="222.25"/>
      <point x="702.375" y="495.25" type="curve" smooth="yes"/>
      <point x="702.375" y="637.25"/>
      <point x="637.375" y="736.0"/>
      <point x="533.625" y="762.0" type="curve"/>
      <point x="533.625" y="766.75" type="line"/>
      <point x="731.625" y="812.75"/>
      <point x="819.375" y="1001.875"/>
      <point x="819.375" y="1189.25" type="curve" smooth="yes"/>
      <point x="819.375" y="1360.5"/>
      <point x="716.75" y="1462.0"/>
      <point x="533.75" y="1462.0" type="curve" smooth="yes"/>
      <point x="312.75" y="1462.0" type="line"/>
    </contour>
    <contour>
      <point x="118.125" y="86.25" type="line"/>
      <point x="253.5" y="724.625" type="line"/>
      <point x="381.5" y="724.625" type="line" smooth="yes"/>
      <point x="516.125" y="724.625"/>
      <point x="604.25" y="658.875"/>
      <point x="604.25" y="492.375" type="curve" smooth="yes"/>
      <point x="604.25" y="286.875"/>
      <point x="512.5" y="86.25"/>
      <point x="262.625" y="86.25" type="curve" smooth="yes"/>
    </contour>
    <contour>
      <point x="270.625" y="809.625" type="line"/>
      <point x="389.5" y="1376.5" type="line"/>
      <point x="515.125" y="1376.5" type="line" smooth="yes"/>
      <point x="655.375" y="1376.5"/>
      <point x="719.75" y="1307.125"/>
      <point x="719.75" y="1177.375" type="curve" smooth="yes"/>
      <point x="719.75" y="997.375"/>
      <point x="625.0" y="809.625"/>
      <point x="402.0" y="809.625" type="curve" smooth="yes"/>
    </contour>
  </outline>
</glyph>
<glyph name="G" format="2">
  <advance width="956.75"/>
  <unicode hex="0047"/>
  <anchor x="363.375" y="0.0" name="bottom"/>
  <anchor x="673.625" y="1462.0" name="top"/>
  <anchor x="1110.25" y="1462.0" name="topright"/>
  <outline>
    <contour>
      <point x="446.875" y="-20.0" type="curve" smooth="yes"/>
      <point x="548.0" y="-20.0"/>
      <point x="636.5" y="-0.5000000000000001"/>
      <point x="721.25" y="31.75" type="curve"/>
      <point x="872.25" y="740.125" type="line"/>
      <point x="583.25" y="740.125" type="line"/>
      <point x="563.5" y="653.875" type="line"/>
      <point x="757.875" y="653.875" type="line"/>
      <point x="641.0" y="98.25" type="line"/>
      <point x="585.0" y="77.5"/>
      <point x="525.125" y="67.0"/>
      <point x="457.125" y="67.0" type="curve" smooth="yes"/>
      <point x="269.5" y="67.0"/>
      <point x="172.125" y="180.625"/>
      <point x="172.125" y="448.625" type="curve" smooth="yes"/>
      <point x="172.125" y="903.5"/>
      <point x="375.25" y="1396.875"/>
      <point x="721.0" y="1396.875" type="curve" smooth="yes"/>
      <point x="812.0" y="1396.875"/>
      <point x="883.5" y="1367.25"/>
      <point x="950.375" y="1316.625" type="curve"/>
      <point x="1001.75" y="1396.75" type="line"/>
      <point x="933.75" y="1445.5"/>
      <point x="846.0" y="1485.0"/>
      <point x="726.25" y="1485.0" type="curve" smooth="yes"/>
      <point x="321.625" y="1485.0"/>
      <point x="74.0" y="978.75"/>
      <point x="74.0" y="441.5" type="curve" smooth="yes"/>
      <point x="74.0" y="132.75"/>
      <point x="199.75" y="-20.0"/>
    </contour>
  </outline>
</glyph>
<glyph name="I" format="2">
  <advance width="372.5"/>
  <unicode hex="0049"/>
  <anchor x="56.875" y="0.0" name="bottom"/>
  <anchor x="365.5" y="1462.0" name="top"/>
  <anchor x="527.75" y="1462.0" name="topright"/>
  <outline>
    <contour>
      <point x="2.499999999999999" y="0.0" type="line"/>
      <point x="95.875" y="0.0" type="line"/>
      <point x="406.75" y="1462.0" type="line"/>
      <point x="312.75" y="1462.0" type="line"/>
    </contour>
  </outline>
</glyph>
<glyph name="L" format="2">
  <advance width="645.0"/>
  <unicode hex="004C"/>
  <anchor x="207.75" y="0.0" name="bottom"/>
  <anchor x="367.625" y="731.0" name="center"/>
  <anchor x="519.125" y="1462.0" name="top"/>
  <anchor x="691.375" y="1462.0" name="topright"/>
  <outline>
    <contour>
      <point x="2.499999999999999" y="0.0" type="line"/>
      <point x="472.75" y="0.0" type="line"/>
      <point x="490.5" y="87.0" type="line"/>
      <point x="115.625" y="87.0" type="line"/>
      <point x="408.0" y="1462.0" type="line"/>
      <point x="312.75" y="1462.0" type="line"/>
    </contour>
  </outline>
</glyph>
<glyph name="P" format="2">
  <advance width="760.75"/>
  <unicode hex="0050"/>
  <anchor x="265.875" y="0.0" name="bottom"/>
  <anchor x="576.875" y="1462.0" name="top"/>
  <anchor x="916.0" y="1462.0" name="topright"/>
  <outline>
    <contour>
      <point x="3.749999999999999" y="0.0" type="line"/>
      <point x="98.375" y="0.0" type="line"/>
      <point x="227.5" y="606.0" type="line"/>
      <point x="323.25" y="606.0" type="line" smooth="yes"/>
      <point x="622.25" y="606.0"/>
      <point x="792.75" y="837.625"/>
      <point x="792.75" y="1155.5" type="curve" smooth="yes"/>
      <point x="792.75" y="1347.625"/>
      <point x="688.125" y="1462.0"/>
      <point x="479.375" y="1462.0" type="curve" smooth="yes"/>
      <point x="312.75" y="1462.0" type="line"/>
    </contour>
    <contour>
      <point x="245.0" y="693.375" type="line"/>
      <point x="390.75" y="1375.0" type="line"/>
      <point x="465.25" y="1375.0" type="line" smooth="yes"/>
      <point x="627.75" y="1375.0"/>
      <point x="692.75" y="1290.25"/>
      <point x="692.75" y="1146.375" type="curve" smooth="yes"/>
      <point x="692.75" y="889.25"/>
      <point x="574.625" y="693.375"/>
      <point x="320.0" y="693.375" type="curve" smooth="yes"/>
    </contour>
  </outline>
</glyph>
<glyph name="bracketleft" format="2">
  <advance width="567.375"/>
  <unicode hex="005B"/>
  <outline>
    <contour>
      <point x="-42.5" y="-326.25" type="line"/>
      <point x="315.125" y="-326.25" type="line"/>
      <point x="331.875" y="-245.875" type="line"/>
      <point x="61.5" y="-245.875" type="line"/>
      <point x="410.25" y="1386.75" type="line"/>
      <point x="680.5" y="1386.75" type="line"/>
      <point x="697.625" y="1466.875" type="line"/>
      <point x="340.0" y="1466.875" type="line"/>
    </contour>
  </outline>
</glyph>
<glyph name="d" format="2">
  <advance width="809.0"/>
  <unicode hex="0064"/>
  <anchor x="290.125" y="0.0" name="bottom"/>
  <anchor x="419.0" y="540.5" name="center"/>
  <anchor x="622.125" y="1556.0" name="top"/>
  <anchor x="984.25" y="1556.0" name="topright"/>
  <outline>
    <contour>
      <point x="258.75" y="-20.0" type="curve" smooth="yes"/>
      <point x="369.375" y="-20.0"/>
      <point x="443.875" y="53.5"/>
      <point x="511.75" y="175.75" type="curve"/>
      <point x="515.75" y="175.75" type="line"/>
      <point x="490.625" y="0.0" type="line"/>
      <point x="565.125" y="0.0" type="line"/>
      <point x="893.5" y="1556.0" type="line"/>
      <point x="801.5" y="1556.0" type="line"/>
      <point x="715.75" y="1152.0" type="line" smooth="yes"/>
      <point x="700.625" y="1083.625"/>
      <point x="687.0" y="1007.375"/>
      <point x="675.0" y="940.875" type="curve"/>
      <point x="669.0" y="940.875" type="line"/>
      <point x="651.0" y="1037.375"/>
      <point x="590.0" y="1105.5"/>
      <point x="487.5" y="1105.5" type="curve" smooth="yes"/>
      <point x="198.625" y="1105.5"/>
      <point x="55.25" y="596.0"/>
      <point x="55.25" y="283.75" type="curve" smooth="yes"/>
      <point x="55.25" y="86.75"/>
      <point x="128.75" y="-20.0"/>
    </contour>
    <contour>
      <point x="283.125" y="63.25" type="curve" smooth="yes"/>
      <point x="202.25" y="63.25"/>
      <point x="151.75" y="130.25"/>
      <point x="151.75" y="289.25" type="curve" smooth="yes"/>
      <point x="151.75" y="555.375"/>
      <point x="273.875" y="1020.75"/>
      <point x="495.625" y="1020.75" type="curve" smooth="yes"/>
      <point x="581.75" y="1020.75"/>
      <point x="628.75" y="951.375"/>
      <point x="628.75" y="839.625" type="curve" smooth="yes"/>
      <point x="628.75" y="676.5"/>
      <point x="535.0" y="63.25"/>
    </contour>
  </outline>
</glyph>
<glyph name="e" format="2">
  <advance width="710.75"/>
  <unicode hex="0065"/>
  <anchor x="240.375" y="0.0" name="bottom"/>
  <anchor x="470.375" y="1079.25" name="top"/>
  <anchor x="783.375" y="1079.25" name="topright"/>
  <outline>
    <contour>
      <point x="305.375" y="-20.0" type="curve" smooth="yes"/>
      <point x="390.625" y="-20.0"/>
      <point x="458.25" y="-0.7499999999999999"/>
      <point x="512.125" y="31.75" type="curve"/>
      <point x="512.125" y="118.5" type="line"/>
      <point x="450.25" y="82.25"/>
      <point x="393.375" y="61.75"/>
      <point x="326.25" y="61.75" type="curve" smooth="yes"/>
      <point x="203.25" y="61.75"/>
      <point x="147.0" y="138.125"/>
      <point x="147.0" y="313.375" type="curve" smooth="yes"/>
      <point x="147.0" y="383.25"/>
      <point x="153.0" y="447.625"/>
      <point x="164.25" y="506.5" type="curve"/>
      <point x="177.375" y="506.5" type="line" smooth="yes"/>
      <point x="517.625" y="506.5"/>
      <point x="676.125" y="695.75"/>
      <point x="676.125" y="906.0" type="curve" smooth="yes"/>
      <point x="676.125" y="1044.375"/>
      <point x="602.625" y="1105.5"/>
      <point x="491.625" y="1105.5" type="curve" smooth="yes"/>
      <point x="251.5" y="1105.5"/>
      <point x="52.75" y="738.625"/>
      <point x="52.75" y="300.0" type="curve" smooth="yes"/>
      <point x="52.75" y="86.25"/>
      <point x="144.125" y="-20.0"/>
    </contour>
    <contour>
      <point x="177.875" y="584.125" type="line"/>
      <point x="230.125" y="832.875"/>
      <point x="352.625" y="1023.75"/>
      <point x="482.125" y="1023.75" type="curve" smooth="yes"/>
      <point x="552.75" y="1023.75"/>
      <point x="585.5" y="977.875"/>
      <point x="585.5" y="901.75" type="curve" smooth="yes"/>
      <point x="585.5" y="739.875"/>
      <point x="474.125" y="584.125"/>
      <point x="186.375" y="584.125" type="curve" smooth="yes"/>
    </contour>
  </outline>
</glyph>
<glyph name="g" format="2">
  <advance width="740.375"/>
  <unicode hex="0067"/>
  <note>
g
</note>
  <anchor x="144.0" y="-492.0" name="bottom"/>
  <anchor x="477.25" y="1080.75" name="top"/>
  <anchor x="813.375" y="1079.25" name="topright"/>
  <outline>
    <contour>
      <point x="161.5" y="-492.0" type="curve" smooth="yes"/>
      <point x="392.25" y="-492.0"/>
      <point x="549.5" y="-343.75"/>
      <point x="549.5" y="-124.875" type="curve" smooth="yes"/>
      <point x="549.5" y="19.499999999999996"/>
      <point x="466.5" y="91.375"/>
      <point x="319.0" y="134.25" type="curve" smooth="yes"/>
      <point x="251.75" y="151.125" type="line" smooth="yes"/>
      <point x="200.125" y="166.25"/>
      <point x="162.25" y="179.875"/>
      <point x="162.25" y="232.75" type="curve" smooth="yes"/>
      <point x="162.25" y="283.25"/>
      <point x="203.625" y="335.875"/>
      <point x="286.75" y="392.0" type="curve"/>
      <point x="302.5" y="389.5"/>
      <point x="317.5" y="389.0"/>
      <point x="335.125" y="389.0" type="curve" smooth="yes"/>
      <point x="533.25" y="389.0"/>
      <point x="663.125" y="644.875"/>
      <point x="663.125" y="855.75" type="curve" smooth="yes"/>
      <point x="663.125" y="915.5"/>
      <point x="653.0" y="962.875"/>
      <point x="634.25" y="999.5" type="curve"/>
      <point x="775.625" y="1016.25" type="line"/>
      <point x="791.125" y="1085.0" type="line"/>
      <point x="571.25" y="1085.0" type="line"/>
      <point x="546.125" y="1098.625"/>
      <point x="513.875" y="1106.0"/>
      <point x="472.125" y="1106.0" type="curve" smooth="yes"/>
      <point x="266.875" y="1106.0"/>
      <point x="130.625" y="860.875"/>
      <point x="130.625" y="628.875" type="curve" smooth="yes"/>
      <point x="130.625" y="535.125"/>
      <point x="161.5" y="464.0"/>
      <point x="217.75" y="419.875" type="curve"/>
      <point x="109.75" y="345.125"/>
      <point x="70.0" y="283.625"/>
      <point x="70.0" y="209.875" type="curve" smooth="yes"/>
      <point x="70.0" y="163.125"/>
      <point x="92.375" y="124.25"/>
      <point x="133.375" y="101.375" type="curve"/>
      <point x="-28.125" y="28.75"/>
      <point x="-119.125" y="-93.625"/>
      <point x="-119.125" y="-235.25" type="curve" smooth="yes"/>
      <point x="-119.125" y="-398.5"/>
      <point x="-16.5" y="-492.0"/>
    </contour>
    <contour>
      <point x="168.375" y="-411.5" type="curve" smooth="yes"/>
      <point x="40.875" y="-411.5"/>
      <point x="-25.5" y="-354.0"/>
      <point x="-25.5" y="-227.375" type="curve" smooth="yes"/>
      <point x="-25.5" y="-100.375"/>
      <point x="74.125" y="25.0"/>
      <point x="204.75" y="67.875" type="curve"/>
      <point x="290.875" y="44.0" type="line" smooth="yes"/>
      <point x="402.875" y="9.874999999999996"/>
      <point x="457.75" y="-56.12500000000001"/>
      <point x="457.75" y="-141.375" type="curve" smooth="yes"/>
      <point x="457.75" y="-303.625"/>
      <point x="338.125" y="-411.5"/>
    </contour>
    <contour>
      <point x="339.125" y="464.0" type="curve" smooth="yes"/>
      <point x="265.0" y="464.0"/>
      <point x="224.5" y="530.75"/>
      <point x="224.5" y="619.5" type="curve" smooth="yes"/>
      <point x="224.5" y="819.875"/>
      <point x="328.875" y="1025.5"/>
      <point x="456.125" y="1025.5" type="curve" smooth="yes"/>
      <point x="529.875" y="1025.5"/>
      <point x="568.125" y="963.25"/>
      <point x="568.125" y="868.125" type="curve" smooth="yes"/>
      <point x="568.125" y="684.125"/>
      <point x="469.75" y="464.0"/>
    </contour>
  </outline>
</glyph>
<glyph name="i" format="2">
  <advance width="345.5"/>
  <unicode hex="0069"/>
  <anchor x="58.875" y="0.0" name="bottom"/>
  <anchor x="372.875" y="1477.125" name="top"/>
  <anchor x="504.5" y="1477.125" name="topright"/>
  <outline>
    <contour>
      <point x="6.75" y="0.0" type="line"/>
      <point x="99.75" y="0.0" type="line"/>
      <point x="330.25" y="1084.875" type="line"/>
      <point x="237.875" y="1084.875" type="line"/>
    </contour>
    <contour>
      <point x="336.0" y="1303.875" type="curve" smooth="yes"/>
      <point x="387.875" y="1303.875"/>
      <point x="416.0" y="1363.75"/>
      <point x="416.0" y="1417.125" type="curve" smooth="yes"/>
      <point x="416.0" y="1458.125"/>
      <point x="397.125" y="1477.125"/>
      <point x="364.375" y="1477.125" type="curve" smooth="yes"/>
      <point x="309.5" y="1477.125"/>
      <point x="284.0" y="1415.875"/>
      <point x="284.0" y="1364.5" type="curve" smooth="yes"/>
      <point x="284.0" y="1325.25"/>
      <point x="302.5" y="1303.875"/>
    </contour>
  </outline>
</glyph>
<glyph name="o" format="2">
  <advance width="772.125"/>
  <unicode hex="006F"/>
  <anchor x="272.375" y="0.0" name="bottom"/>
  <anchor x="400.5" y="540.5" name="center"/>
  <anchor x="501.375" y="1079.25" name="top"/>
  <anchor x="845.75" y="1079.25" name="topright"/>
  <outline>
    <contour>
      <point x="284.875" y="-20.0" type="curve" smooth="yes"/>
      <point x="581.25" y="-20.0"/>
      <point x="717.0" y="467.125"/>
      <point x="717.0" y="790.125" type="curve" smooth="yes"/>
      <point x="717.0" y="1002.625"/>
      <point x="633.5" y="1105.5"/>
      <point x="492.625" y="1105.5" type="curve" smooth="yes"/>
      <point x="166.5" y="1105.5"/>
      <point x="54.75" y="551.25"/>
      <point x="54.75" y="292.25" type="curve" smooth="yes"/>
      <point x="54.75" y="78.5"/>
      <point x="142.0" y="-20.0"/>
    </contour>
    <contour>
      <point x="292.5" y="64.0" type="curve" smooth="yes"/>
      <point x="198.75" y="64.0"/>
      <point x="149.75" y="140.375"/>
      <point x="149.75" y="291.5" type="curve" smooth="yes"/>
      <point x="149.75" y="513.5"/>
      <point x="251.0" y="1022.25"/>
      <point x="482.625" y="1022.25" type="curve" smooth="yes"/>
      <point x="575.125" y="1022.25"/>
      <point x="622.25" y="942.75"/>
      <point x="622.25" y="791.625" type="curve" smooth="yes"/>
      <point x="622.25" y="528.25"/>
      <point x="513.5" y="64.0"/>
    </contour>
  </outline>
</glyph>
<glyph name="overscore" format="2">
  <advance width="757.75"/>
  <unicode hex="00AF"/>
  <outline>
    <contour>
      <point x="202.375" y="1556.0" type="line"/>
      <point x="972.5" y="1556.0" type="line"/>
      <point x="990.375" y="1635.375" type="line"/>
      <point x="220.75" y="1635.375" type="line"/>
    </contour>
  </outline>
</glyph>
<glyph name="paragraph" format="2">
  <advance width="867.125"/>
  <unicode hex="00B6"/>
  <outline>
    <contour>
      <point x="449.375" y="-260.0" type="line"/>
      <point x="523.375" y="-260.0" type="line"/>
      <point x="523.375" y="1484.375" type="line"/>
      <point x="690.875" y="1484.375" type="line"/>
      <point x="690.875" y="-260.0" type="line"/>
      <point x="764.5" y="-260.0" type="line"/>
      <point x="764.5" y="1556.0" type="line"/>
      <point x="433.875" y="1556.0" type="line" smooth="yes"/>
      <point x="277.875" y="1556.0"/>
      <point x="185.375" y="1437.625"/>
      <point x="185.375" y="1173.0" type="curve" smooth="yes"/>
      <point x="185.375" y="933.625"/>
      <point x="261.0" y="804.75"/>
      <point x="385.375" y="804.75" type="curve" smooth="yes"/>
      <point x="411.625" y="804.75"/>
      <point x="431.375" y="809.125"/>
      <point x="448.625" y="818.375" type="curve"/>
    </contour>
  </outline>
</glyph>
<glyph name="multiply" format="2">
  <advance width="841.0"/>
  <unicode hex="00D7"/>
  <outline>
    <contour>
      <point x="715.875" y="1070.625" type="line"/>
      <point x="428.375" y="780.875" type="line"/>
      <point x="141.875" y="1069.125" type="line"/>
      <point x="86.0" y="1012.125" type="line"/>
      <point x="371.375" y="724.25" type="line"/>
      <point x="83.5" y="434.0" type="line"/>
      <point x="138.125" y="377.375" type="line"/>
      <point x="427.125" y="667.625" type="line"/>
      <point x="712.625" y="379.375" type="line"/>
      <point x="768.5" y="435.25" type="line"/>
      <point x="483.875" y="724.25" type="line"/>
      <point x="773.625" y="1016.0" type="line"/>
    </contour>
  </outline>
</glyph>
<glyph name="Thorn" format="2">
  <advance width="757.75"/>
  <unicode hex="00DE"/>
  <anchor x="264.375" y="0.0" name="bottom"/>
  <anchor x="575.375" y="1462.0" name="top"/>
  <outline>
    <contour>
      <point x="2.499999999999999" y="0.0" type="line"/>
      <point x="97.125" y="0.0" type="line"/>
      <point x="167.75" y="339.625" type="line"/>
      <point x="266.375" y="339.625" type="line" smooth="yes"/>
      <point x="563.875" y="339.625"/>
      <point x="736.625" y="572.75"/>
      <point x="736.625" y="889.75" type="curve" smooth="yes"/>
      <point x="736.625" y="1081.25"/>
      <point x="630.75" y="1195.5"/>
      <point x="421.75" y="1195.5" type="curve" smooth="yes"/>
      <point x="350.625" y="1195.5" type="line"/>
      <point x="408.0" y="1462.0" type="line"/>
      <point x="312.75" y="1462.0" type="line"/>
    </contour>
    <contour>
      <point x="187.625" y="426.25" type="line"/>
      <point x="332.75" y="1108.5" type="line"/>
      <point x="409.75" y="1108.5" type="line" smooth="yes"/>
      <point x="573.125" y="1108.5"/>
      <point x="637.25" y="1023.875"/>
      <point x="637.25" y="879.875" type="curve" smooth="yes"/>
      <point x="637.25" y="622.125"/>
      <point x="518.75" y="426.25"/>
      <point x="263.875" y="426.25" type="curve" smooth="yes"/>
    </contour>
  </outline>
</glyph>
<glyph name="oslash" format="2">
  <advance width="777.125"/>
  <unicode hex="00F8"/>
  <anchor x="274.875" y="0.0" name="bottom"/>
  <anchor x="503.875" y="1079.25" name="top"/>
  <outline>
    <contour>
      <point x="48.75000000000001" y="-125.5" type="line"/>
      <point x="139.125" y="33.75" type="line"/>
      <point x="177.625" y="-3.2500000000000018"/>
      <point x="226.875" y="-20.0"/>
      <point x="284.875" y="-20.0" type="curve" smooth="yes"/>
      <point x="589.5" y="-20.0"/>
      <point x="717.0" y="489.625"/>
      <point x="717.0" y="790.125" type="curve" smooth="yes"/>
      <point x="717.0" y="870.875"/>
      <point x="705.0" y="934.375"/>
      <point x="682.375" y="982.5" type="curve"/>
      <point x="785.125" y="1163.625" type="line"/>
      <point x="724.75" y="1198.5" type="line"/>
      <point x="638.5" y="1045.375" type="line"/>
      <point x="601.25" y="1085.375"/>
      <point x="552.5" y="1105.5"/>
      <point x="492.625" y="1105.5" type="curve" smooth="yes"/>
      <point x="164.25" y="1105.5"/>
      <point x="54.75" y="544.125"/>
      <point x="54.75" y="292.25" type="curve" smooth="yes"/>
      <point x="54.75" y="207.25"/>
      <point x="69.75" y="141.625"/>
      <point x="93.75" y="91.875" type="curve"/>
      <point x="-10.874999999999996" y="-90.0" type="line"/>
    </contour>
    <contour>
      <point x="292.5" y="61.75" type="curve" smooth="yes"/>
      <point x="247.75" y="61.75"/>
      <point x="211.0" y="79.75"/>
      <point x="187.25" y="116.75" type="curve"/>
      <point x="613.625" y="874.0" type="line"/>
      <point x="620.625" y="845.375"/>
      <point x="623.75" y="808.625"/>
      <point x="623.0" y="768.0" type="curve" smooth="yes"/>
      <point x="617.375" y="504.625"/>
      <point x="509.75" y="61.75"/>
    </contour>
    <contour>
      <point x="161.0" y="197.25" type="line"/>
      <point x="152.75" y="226.375"/>
      <point x="149.0" y="263.625"/>
      <point x="149.0" y="306.875" type="curve" smooth="yes"/>
      <point x="152.75" y="541.25"/>
      <point x="259.625" y="1023.75"/>
      <point x="483.375" y="1023.75" type="curve" smooth="yes"/>
      <point x="531.625" y="1023.75"/>
      <point x="567.875" y="1003.625"/>
      <point x="590.25" y="962.375" type="curve"/>
    </contour>
  </outline>
</glyph>
<glyph name="thorn" format="2">
  <advance width="799.0"/>
  <unicode hex="00FE"/>
  <anchor x="185.375" y="-470.75" name="bottom"/>
  <anchor x="616.125" y="1556.0" name="top"/>
  <outline>
    <contour>
      <point x="-89.25" y="-470.75" type="line"/>
      <point x="1.9999999999999947" y="-470.75" type="line"/>
      <point x="93.625" y="-42.0" type="line" smooth="yes"/>
      <point x="106.5" y="18.124999999999996"/>
      <point x="120.25" y="90.5"/>
      <point x="128.75" y="146.875" type="curve"/>
      <point x="133.5" y="146.875" type="line"/>
      <point x="151.5" y="49.75"/>
      <point x="211.0" y="-20.0"/>
      <point x="314.0" y="-20.0" type="curve" smooth="yes"/>
      <point x="603.625" y="-20.0"/>
      <point x="748.5" y="484.375"/>
      <point x="748.5" y="801.75" type="curve" smooth="yes"/>
      <point x="748.5" y="1001.125"/>
      <point x="675.0" y="1105.5"/>
      <point x="545.0" y="1105.5" type="curve" smooth="yes"/>
      <point x="437.875" y="1105.5"/>
      <point x="359.125" y="1032.125"/>
      <point x="295.75" y="916.125" type="curve"/>
      <point x="291.0" y="916.125" type="line"/>
      <point x="297.0" y="941.625"/>
      <point x="303.375" y="966.0"/>
      <point x="313.125" y="1009.625" type="curve" smooth="yes"/>
      <point x="429.5" y="1556.0" type="line"/>
      <point x="338.25" y="1556.0" type="line"/>
    </contour>
    <contour>
      <point x="308.875" y="64.0" type="curve" smooth="yes"/>
      <point x="224.125" y="64.0"/>
      <point x="176.125" y="134.125"/>
      <point x="176.125" y="247.5" type="curve" smooth="yes"/>
      <point x="176.125" y="322.25"/>
      <point x="194.5" y="476.375"/>
      <point x="235.0" y="627.625" type="curve" smooth="yes"/>
      <point x="288.25" y="825.625"/>
      <point x="380.5" y="1023.0"/>
      <point x="520.625" y="1023.0" type="curve" smooth="yes"/>
      <point x="602.25" y="1023.0"/>
      <point x="652.75" y="955.375"/>
      <point x="652.75" y="796.25" type="curve" smooth="yes"/>
      <point x="652.75" y="537.0"/>
      <point x="533.625" y="64.0"/>
    </contour>
  </outline>
</glyph>
<glyph name="Hbar" format="2">
  <advance width="920.0"/>
  <unicode hex="0126"/>
  <anchor x="345.875" y="0.0" name="bottom"/>
  <anchor x="656.125" y="1462.0" name="top"/>
  <outline>
    <contour>
      <point x="2.499999999999999" y="0.0" type="line"/>
      <point x="97.125" y="0.0" type="line"/>
      <point x="250.25" y="723.125" type="line"/>
      <point x="716.25" y="723.125" type="line"/>
      <point x="562.75" y="0.0" type="line"/>
      <point x="657.375" y="0.0" type="line"/>
      <point x="891.5" y="1100.625" type="line"/>
      <point x="1013.5" y="1100.625" type="line"/>
      <point x="1029.875" y="1180.875" type="line"/>
      <point x="909.125" y="1180.875" type="line"/>
      <point x="969.0" y="1462.0" type="line"/>
      <point x="873.625" y="1462.0" type="line"/>
      <point x="813.75" y="1180.875" type="line"/>
      <point x="348.125" y="1180.875" type="line"/>
      <point x="408.0" y="1462.0" type="line"/>
      <point x="312.75" y="1462.0" type="line"/>
      <point x="253.5" y="1180.875" type="line"/>
      <point x="108.625" y="1180.875" type="line"/>
      <point x="93.5" y="1100.625" type="line"/>
      <point x="235.875" y="1100.625" type="line"/>
    </contour>
    <contour>
      <point x="269.375" y="809.625" type="line"/>
      <point x="331.75" y="1100.625" type="line"/>
      <point x="797.375" y="1100.625" type="line"/>
      <point x="735.0" y="809.625" type="line"/>
    </contour>
  </outline>
</glyph>
<glyph name="hbar" format="2">
  <advance width="780.875"/>
  <unicode hex="0127"/>
  <anchor x="277.125" y="0.0" name="bottom"/>
  <anchor x="608.375" y="1556.0" name="top"/>
  <outline>
    <contour>
      <point x="8.75" y="0.0" type="line"/>
      <point x="101.75" y="0.0" type="line"/>
      <point x="227.5" y="589.5" type="line" smooth="yes"/>
      <point x="286.0" y="873.875"/>
      <point x="368.75" y="1013.625"/>
      <point x="509.25" y="1013.625" type="curve" smooth="yes"/>
      <point x="575.875" y="1013.625"/>
      <point x="618.0" y="976.5"/>
      <point x="618.0" y="903.25" type="curve" smooth="yes"/>
      <point x="618.0" y="836.625"/>
      <point x="600.25" y="756.375"/>
      <point x="584.25" y="679.375" type="curve" smooth="yes"/>
      <point x="439.625" y="0.0" type="line"/>
      <point x="531.625" y="0.0" type="line"/>
      <point x="675.625" y="675.5" type="line" smooth="yes"/>
      <point x="692.125" y="755.0"/>
      <point x="712.5" y="856.75"/>
      <point x="712.5" y="918.125" type="curve" smooth="yes"/>
      <point x="712.5" y="1038.25"/>
      <point x="643.375" y="1100.25"/>
      <point x="536.25" y="1100.25" type="curve" smooth="yes"/>
      <point x="431.5" y="1100.25"/>
      <point x="345.625" y="1037.125"/>
      <point x="293.75" y="927.75" type="curve"/>
      <point x="289.75" y="927.75" type="line"/>
      <point x="305.75" y="991.0"/>
      <point x="328.5" y="1084.125"/>
      <point x="372.0" y="1283.5" type="curve"/>
      <point x="578.375" y="1283.5" type="line"/>
      <point x="594.0" y="1361.5" type="line"/>
      <point x="388.375" y="1361.5" type="line"/>
      <point x="430.75" y="1556.0" type="line"/>
      <point x="338.75" y="1556.0" type="line"/>
      <point x="297.25" y="1361.5" type="line"/>
      <point x="169.25" y="1361.5" type="line"/>
      <point x="152.875" y="1283.5" type="line"/>
      <point x="281.625" y="1283.5" type="line"/>
    </contour>
  </outline>
</glyph>
<glyph name="uni0181" format="2">
  <advance width="979.375"/>
  <unicode hex="0181"/>
  <anchor x="378.25" y="0.0" name="bottom"/>
  <anchor x="688.5" y="1462.0" name="top"/>
  <outline>
    <contour>
      <point x="177.375" y="0.0" type="line"/>
      <point x="432.625" y="0.0" type="line" smooth="yes"/>
      <point x="725.125" y="0.0"/>
      <point x="874.0" y="222.25"/>
      <point x="874.0" y="499.0" type="curve" smooth="yes"/>
      <point x="874.0" y="638.0"/>
      <point x="809.125" y="736.75"/>
      <point x="705.25" y="763.5" type="curve"/>
      <point x="705.25" y="768.25" type="line"/>
      <point x="903.375" y="814.25"/>
      <point x="991.0" y="1003.375"/>
      <point x="991.0" y="1192.25" type="curve" smooth="yes"/>
      <point x="991.0" y="1361.25"/>
      <point x="886.125" y="1462.0"/>
      <point x="705.5" y="1462.0" type="curve" smooth="yes"/>
      <point x="437.625" y="1462.0" type="line" smooth="yes"/>
      <point x="248.25" y="1462.0"/>
      <point x="167.0" y="1346.125"/>
      <point x="167.0" y="1214.875" type="curve" smooth="yes"/>
      <point x="167.0" y="1175.875"/>
      <point x="172.25" y="1147.875"/>
      <point x="179.0" y="1127.125" type="curve"/>
      <point x="267.625" y="1127.125" type="line"/>
      <point x="261.0" y="1148.625"/>
      <point x="254.5" y="1176.375"/>
      <point x="254.5" y="1211.125" type="curve" smooth="yes"/>
      <point x="254.5" y="1298.25"/>
      <point x="296.5" y="1376.5"/>
      <point x="431.875" y="1376.5" type="curve" smooth="yes"/>
      <point x="466.5" y="1376.5" type="line"/>
    </contour>
    <contour>
      <point x="289.875" y="86.25" type="line"/>
      <point x="425.875" y="724.625" type="line"/>
      <point x="553.875" y="724.625" type="line" smooth="yes"/>
      <point x="687.875" y="724.625"/>
      <point x="776.625" y="658.875"/>
      <point x="776.625" y="492.375" type="curve" smooth="yes"/>
      <point x="776.625" y="286.875"/>
      <point x="685.75" y="86.25"/>
      <point x="435.75" y="86.25" type="curve" smooth="yes"/>
    </contour>
    <contour>
      <point x="443.0" y="809.625" type="line"/>
      <point x="561.875" y="1376.5" type="line"/>
      <point x="686.875" y="1376.5" type="line" smooth="yes"/>
      <point x="827.75" y="1376.5"/>
      <point x="891.5" y="1307.125"/>
      <point x="891.5" y="1177.375" type="curve" smooth="yes"/>
      <point x="891.5" y="997.375"/>
      <point x="796.75" y="809.625"/>
      <point x="573.75" y="809.625" type="curve" smooth="yes"/>
    </contour>
  </outline>
</glyph>
<glyph name="uni0185" format="2">
  <advance width="799.0"/>
  <unicode hex="0185"/>
  <anchor x="284.875" y="0.0" name="bottom"/>
  <anchor x="616.125" y="1556.0" name="top"/>
  <outline>
    <contour>
      <point x="307.125" y="-20.0" type="curve" smooth="yes"/>
      <point x="618.25" y="-20.0"/>
      <point x="747.25" y="515.0"/>
      <point x="747.25" y="802.5" type="curve" smooth="yes"/>
      <point x="747.25" y="1004.625"/>
      <point x="673.75" y="1105.5"/>
      <point x="544.5" y="1105.5" type="curve" smooth="yes"/>
      <point x="433.375" y="1105.5"/>
      <point x="350.125" y="1025.875"/>
      <point x="292.25" y="914.375" type="curve"/>
      <point x="288.25" y="914.375" type="line"/>
      <point x="296.875" y="945.375"/>
      <point x="304.375" y="975.75"/>
      <point x="314.125" y="1022.0" type="curve" smooth="yes"/>
      <point x="427.5" y="1556.0" type="line"/>
      <point x="335.5" y="1556.0" type="line"/>
      <point x="126.75" y="565.0" type="line" smooth="yes"/>
      <point x="101.5" y="448.375"/>
      <point x="86.25" y="342.75"/>
      <point x="86.25" y="276.875" type="curve" smooth="yes"/>
      <point x="86.25" y="90.25"/>
      <point x="143.625" y="-20.0"/>
    </contour>
    <contour>
      <point x="313.875" y="63.25" type="curve" smooth="yes"/>
      <point x="221.5" y="63.25"/>
      <point x="179.875" y="125.75"/>
      <point x="179.875" y="283.125" type="curve" smooth="yes"/>
      <point x="179.875" y="436.125"/>
      <point x="273.875" y="1021.5"/>
      <point x="518.625" y="1021.5" type="curve" smooth="yes"/>
      <point x="600.25" y="1021.5"/>
      <point x="650.75" y="959.625"/>
      <point x="650.75" y="795.5" type="curve" smooth="yes"/>
      <point x="650.75" y="551.5"/>
      <point x="535.0" y="63.25"/>
    </contour>
  </outline>
</glyph>
<glyph name="uni0188" format="2">
  <advance width="584.0"/>
  <unicode hex="0188"/>
  <anchor x="177.875" y="0.0" name="bottom"/>
  <anchor x="511.125" y="1565.0" name="top"/>
  <outline>
    <contour>
      <point x="295.5" y="-20.0" type="curve" smooth="yes"/>
      <point x="359.625" y="-20.0"/>
      <point x="415.5" y="-2.2500000000000004"/>
      <point x="456.0" y="18.875" type="curve"/>
      <point x="456.0" y="104.125" type="line"/>
      <point x="408.75" y="79.0"/>
      <point x="359.625" y="64.0"/>
      <point x="311.875" y="64.0" type="curve" smooth="yes"/>
      <point x="205.0" y="64.0"/>
      <point x="151.75" y="132.75"/>
      <point x="151.75" y="313.625" type="curve" smooth="yes"/>
      <point x="151.75" y="614.5"/>
      <point x="277.75" y="1021.5"/>
      <point x="503.875" y="1021.5" type="curve" smooth="yes"/>
      <point x="544.25" y="1021.5"/>
      <point x="592.0" y="1009.875"/>
      <point x="628.0" y="989.75" type="curve"/>
      <point x="712.5" y="1378.25" type="line" smooth="yes"/>
      <point x="728.5" y="1449.0"/>
      <point x="753.0" y="1480.75"/>
      <point x="810.25" y="1480.75" type="curve" smooth="yes"/>
      <point x="841.75" y="1480.75"/>
      <point x="865.125" y="1474.75"/>
      <point x="887.5" y="1464.0" type="curve"/>
      <point x="887.5" y="1548.5" type="line"/>
      <point x="864.125" y="1557.875"/>
      <point x="834.625" y="1565.0"/>
      <point x="796.625" y="1565.0" type="curve" smooth="yes"/>
      <point x="695.75" y="1565.0"/>
      <point x="648.0" y="1494.75"/>
      <point x="627.875" y="1398.125" type="curve" smooth="yes"/>
      <point x="559.75" y="1099.0" type="line"/>
      <point x="542.75" y="1102.25"/>
      <point x="520.625" y="1105.5"/>
      <point x="498.625" y="1105.5" type="curve" smooth="yes"/>
      <point x="195.625" y="1105.5"/>
      <point x="57.25" y="626.25"/>
      <point x="57.25" y="304.75" type="curve" smooth="yes"/>
      <point x="57.25" y="76.5"/>
      <point x="138.0" y="-20.0"/>
    </contour>
  </outline>
</glyph>
<glyph name="uni018B" format="2">
  <advance width="769.0"/>
  <unicode hex="018B"/>
  <anchor x="270.375" y="0.0" name="bottom"/>
  <anchor x="580.625" y="1462.0" name="top"/>
  <outline>
    <contour>
      <point x="325.125" y="0.0" type="curve" smooth="yes"/>
      <point x="491.75" y="0.0" type="line"/>
      <point x="800.75" y="1462.0" type="line"/>
      <point x="275.625" y="1462.0" type="line"/>
      <point x="257.0" y="1374.25" type="line"/>
      <point x="687.25" y="1374.25" type="line"/>
      <point x="577.375" y="856.625" type="line"/>
      <point x="481.625" y="856.625" type="line" smooth="yes"/>
      <point x="182.25" y="856.625"/>
      <point x="11.750000000000002" y="624.375"/>
      <point x="11.750000000000002" y="306.5" type="curve" smooth="yes"/>
      <point x="11.750000000000002" y="115.0"/>
      <point x="116.75" y="0.0"/>
    </contour>
    <contour>
      <point x="340.375" y="87.0" type="line" smooth="yes"/>
      <point x="177.875" y="87.0"/>
      <point x="112.5" y="171.75"/>
      <point x="112.5" y="315.625" type="curve" smooth="yes"/>
      <point x="112.5" y="573.125"/>
      <point x="230.25" y="768.625"/>
      <point x="485.625" y="768.625" type="curve" smooth="yes"/>
      <point x="560.25" y="768.625" type="line"/>
      <point x="413.125" y="87.0" type="line"/>
    </contour>
  </outline>
</glyph>
<glyph name="uni0194" format="2">
  <advance width="724.625"/>
  <unicode hex="0194"/>
  <anchor x="150.5" y="-456.125" name="bottom"/>
  <anchor x="557.75" y="1462.0" name="top"/>
  <outline>
    <contour>
      <point x="147.25" y="-456.125" type="curve" smooth="yes"/>
      <point x="272.5" y="-456.125"/>
      <point x="338.875" y="-347.25"/>
      <point x="338.875" y="-141.0" type="curve" smooth="yes"/>
      <point x="338.875" y="-31.75"/>
      <point x="326.25" y="104.375"/>
      <point x="314.75" y="213.625" type="curve"/>
      <point x="885.75" y="1462.0" type="line"/>
      <point x="782.875" y="1462.0" type="line"/>
      <point x="375.625" y="550.125" type="line" smooth="yes"/>
      <point x="339.125" y="469.625"/>
      <point x="309.875" y="393.25"/>
      <point x="289.5" y="331.875" type="curve"/>
      <point x="294.875" y="406.0"/>
      <point x="295.625" y="509.75"/>
      <point x="292.875" y="576.75" type="curve" smooth="yes"/>
      <point x="265.125" y="1462.0" type="line"/>
      <point x="169.75" y="1462.0" type="line"/>
      <point x="217.625" y="238.375" type="line"/>
      <point x="72.25" y="-3.000000000000004"/>
      <point x="7.499999999999998" y="-153.875"/>
      <point x="7.499999999999998" y="-292.125" type="curve" smooth="yes"/>
      <point x="7.499999999999998" y="-391.5"/>
      <point x="55.625" y="-456.125"/>
    </contour>
    <contour>
      <point x="157.5" y="-377.375" type="curve" smooth="yes"/>
      <point x="115.5" y="-377.375"/>
      <point x="99.625" y="-340.75"/>
      <point x="99.625" y="-284.125" type="curve" smooth="yes"/>
      <point x="99.625" y="-169.0"/>
      <point x="156.0" y="-48.5"/>
      <point x="241.25" y="125.25" type="curve"/>
      <point x="244.0" y="38.0"/>
      <point x="249.5" y="-31.0"/>
      <point x="249.5" y="-137.25" type="curve" smooth="yes"/>
      <point x="249.5" y="-279.375"/>
      <point x="219.0" y="-377.375"/>
    </contour>
  </outline>
</glyph>
<glyph name="uni0195" format="2">
  <advance width="1208.125"/>
  <unicode hex="0195"/>
  <anchor x="489.375" y="0.0" name="bottom"/>
  <anchor x="718.75" y="1079.25" name="top"/>
  <outline>
    <contour>
      <point x="715.0" y="-19.25" type="curve" smooth="yes"/>
      <point x="920.5" y="-19.25"/>
      <point x="985.125" y="120.25"/>
      <point x="1041.25" y="378.5" type="curve" smooth="yes"/>
      <point x="1192.125" y="1084.875" type="line"/>
      <point x="1099.875" y="1084.875" type="line"/>
      <point x="948.875" y="380.5" type="line" smooth="yes"/>
      <point x="902.375" y="164.5"/>
      <point x="861.625" y="64.25"/>
      <point x="722.25" y="64.25" type="curve" smooth="yes"/>
      <point x="641.625" y="64.25"/>
      <point x="590.125" y="113.0"/>
      <point x="590.125" y="207.5" type="curve" smooth="yes"/>
      <point x="590.125" y="272.125"/>
      <point x="607.875" y="355.875"/>
      <point x="627.0" y="446.875" type="curve" smooth="yes"/>
      <point x="678.375" y="686.5" type="line" smooth="yes"/>
      <point x="694.875" y="767.25"/>
      <point x="714.0" y="862.0"/>
      <point x="714.0" y="923.375" type="curve" smooth="yes"/>
      <point x="714.0" y="1043.875"/>
      <point x="644.125" y="1105.5"/>
      <point x="537.75" y="1105.5" type="curve" smooth="yes"/>
      <point x="432.625" y="1105.5"/>
      <point x="346.375" y="1042.375"/>
      <point x="295.25" y="933.0" type="curve"/>
      <point x="291.25" y="933.0" type="line"/>
      <point x="305.875" y="988.125"/>
      <point x="320.0" y="1044.375"/>
      <point x="331.5" y="1099.5" type="curve" smooth="yes"/>
      <point x="430.75" y="1556.0" type="line"/>
      <point x="338.75" y="1556.0" type="line"/>
      <point x="8.75" y="0.0" type="line"/>
      <point x="101.75" y="0.0" type="line"/>
      <point x="228.25" y="594.75" type="line" smooth="yes"/>
      <point x="287.5" y="881.375"/>
      <point x="371.75" y="1019.25"/>
      <point x="510.0" y="1019.25" type="curve" smooth="yes"/>
      <point x="578.125" y="1019.25"/>
      <point x="619.125" y="981.75"/>
      <point x="619.125" y="908.875" type="curve" smooth="yes"/>
      <point x="619.125" y="841.875"/>
      <point x="601.0" y="757.875"/>
      <point x="585.75" y="686.75" type="curve" smooth="yes"/>
      <point x="535.125" y="450.625" type="line" smooth="yes"/>
      <point x="514.25" y="352.875"/>
      <point x="497.125" y="267.375"/>
      <point x="497.125" y="197.125" type="curve" smooth="yes"/>
      <point x="497.125" y="58.875"/>
      <point x="570.625" y="-19.25"/>
    </contour>
  </outline>
</glyph>
<glyph name="uni0199" format="2">
  <advance width="655.875"/>
  <unicode hex="0199"/>
  <anchor x="213.5" y="0.0" name="bottom"/>
  <anchor x="547.5" y="1568.75" name="top"/>
  <outline>
    <contour>
      <point x="6.25" y="0.0" type="line"/>
      <point x="98.625" y="0.0" type="line"/>
      <point x="179.875" y="387.0" type="line"/>
      <point x="337.0" y="575.75" type="line"/>
      <point x="430.875" y="0.0" type="line"/>
      <point x="526.625" y="0.0" type="line"/>
      <point x="416.875" y="658.625" type="line"/>
      <point x="735.875" y="1084.875" type="line"/>
      <point x="634.5" y="1084.875" type="line"/>
      <point x="208.375" y="519.125" type="line"/>
      <point x="205.25" y="519.125" type="line"/>
      <point x="227.125" y="607.875"/>
      <point x="243.75" y="683.125"/>
      <point x="261.125" y="763.75" type="curve" smooth="yes"/>
      <point x="387.5" y="1357.125" type="line" smooth="yes"/>
      <point x="407.0" y="1446.375"/>
      <point x="439.375" y="1484.875"/>
      <point x="516.125" y="1484.875" type="curve" smooth="yes"/>
      <point x="543.375" y="1484.875"/>
      <point x="569.125" y="1478.875"/>
      <point x="586.625" y="1471.0" type="curve"/>
      <point x="586.625" y="1554.75" type="line"/>
      <point x="566.875" y="1563.25"/>
      <point x="536.625" y="1568.75"/>
      <point x="503.0" y="1568.75" type="curve" smooth="yes"/>
      <point x="378.0" y="1568.75"/>
      <point x="325.75" y="1498.25"/>
      <point x="298.5" y="1373.0" type="curve" smooth="yes"/>
    </contour>
  </outline>
</glyph>
<glyph name="uni019C" format="2">
  <advance width="1253.0"/>
  <unicode hex="019C"/>
  <anchor x="511.5" y="0.0" name="bottom"/>
  <anchor x="822.875" y="1462.0" name="top"/>
  <outline>
    <contour>
      <point x="242.125" y="-20.0" type="curve" smooth="yes"/>
      <point x="352.125" y="-20.0"/>
      <point x="431.875" y="34.25"/>
      <point x="483.125" y="131.75" type="curve"/>
      <point x="487.125" y="131.75" type="line"/>
      <point x="497.25" y="35.25"/>
      <point x="560.25" y="-20.0"/>
      <point x="673.0" y="-20.0" type="curve" smooth="yes"/>
      <point x="777.875" y="-20.0"/>
      <point x="859.625" y="37.5"/>
      <point x="913.125" y="142.75" type="curve"/>
      <point x="917.125" y="142.75" type="line"/>
      <point x="893.375" y="0.0" type="line"/>
      <point x="971.375" y="0.0" type="line"/>
      <point x="1279.125" y="1462.0" type="line"/>
      <point x="1184.5" y="1462.0" type="line"/>
      <point x="980.125" y="491.875" type="line" smooth="yes"/>
      <point x="926.0" y="241.125"/>
      <point x="858.625" y="68.5"/>
      <point x="696.125" y="68.5" type="curve" smooth="yes"/>
      <point x="616.75" y="68.5"/>
      <point x="577.5" y="110.5"/>
      <point x="577.5" y="182.875" type="curve" smooth="yes"/>
      <point x="577.5" y="214.0"/>
      <point x="583.25" y="260.625"/>
      <point x="593.125" y="303.875" type="curve" smooth="yes"/>
      <point x="840.0" y="1462.0" type="line"/>
      <point x="745.375" y="1462.0" type="line"/>
      <point x="510.0" y="365.5" type="line" smooth="yes"/>
      <point x="472.25" y="188.25"/>
      <point x="404.375" y="68.5"/>
      <point x="269.5" y="68.5" type="curve" smooth="yes"/>
      <point x="189.0" y="68.5"/>
      <point x="140.875" y="108.0"/>
      <point x="140.875" y="184.125" type="curve" smooth="yes"/>
      <point x="140.875" y="221.0"/>
      <point x="149.125" y="271.375"/>
      <point x="162.875" y="330.5" type="curve" smooth="yes"/>
      <point x="400.875" y="1462.0" type="line"/>
      <point x="306.25" y="1462.0" type="line"/>
      <point x="64.625" y="320.5" type="line" smooth="yes"/>
      <point x="54.75" y="272.875"/>
      <point x="44.0" y="207.0"/>
      <point x="44.0" y="165.0" type="curve" smooth="yes"/>
      <point x="44.0" y="41.25"/>
      <point x="126.0" y="-20.0"/>
    </contour>
  </outline>
</glyph>
<glyph name="ohorn" format="2">
  <advance width="784.125"/>
  <unicode hex="01A1"/>
  <anchor x="278.375" y="0.0" name="bottom"/>
  <anchor x="507.75" y="1079.25" name="top"/>
  <outline>
    <contour>
      <point x="281.125" y="-20.0" type="curve" smooth="yes"/>
      <point x="571.125" y="-20.0"/>
      <point x="713.25" y="462.625"/>
      <point x="713.25" y="790.125" type="curve" smooth="yes"/>
      <point x="713.25" y="818.75"/>
      <point x="711.25" y="847.875"/>
      <point x="707.25" y="877.625" type="curve"/>
      <point x="844.875" y="915.0"/>
      <point x="917.875" y="1027.0"/>
      <point x="953.625" y="1225.75" type="curve"/>
      <point x="946.375" y="1243.125" type="line"/>
      <point x="868.375" y="1243.125" type="line"/>
      <point x="836.625" y="1066.5"/>
      <point x="784.625" y="977.25"/>
      <point x="691.875" y="945.375" type="curve"/>
      <point x="658.375" y="1053.375"/>
      <point x="588.625" y="1105.5"/>
      <point x="488.875" y="1105.5" type="curve" smooth="yes"/>
      <point x="176.625" y="1105.5"/>
      <point x="51.0" y="577.125"/>
      <point x="51.0" y="292.25" type="curve" smooth="yes"/>
      <point x="51.0" y="79.25"/>
      <point x="138.25" y="-20.0"/>
    </contour>
    <contour>
      <point x="288.375" y="63.25" type="curve" smooth="yes"/>
      <point x="195.0" y="63.25"/>
      <point x="146.0" y="137.375"/>
      <point x="146.0" y="288.5" type="curve" smooth="yes"/>
      <point x="146.0" y="513.5"/>
      <point x="251.75" y="1021.5"/>
      <point x="478.875" y="1021.5" type="curve" smooth="yes"/>
      <point x="571.0" y="1021.5"/>
      <point x="618.125" y="946.125"/>
      <point x="618.125" y="794.25" type="curve" smooth="yes"/>
      <point x="618.125" y="535.375"/>
      <point x="510.5" y="63.25"/>
    </contour>
  </outline>
</glyph>
<glyph name="uni01A2" format="2">
  <advance width="1380.5"/>
  <unicode hex="01A2"/>
  <anchor x="576.5" y="0.0" name="bottom"/>
  <anchor x="886.75" y="1462.0" name="top"/>
  <outline>
    <contour>
      <point x="351.625" y="-20.0" type="curve" smooth="yes"/>
      <point x="755.75" y="-20.0"/>
      <point x="911.875" y="718.375"/>
      <point x="911.875" y="1094.625" type="curve" smooth="yes"/>
      <point x="911.875" y="1158.25"/>
      <point x="906.625" y="1213.5"/>
      <point x="896.125" y="1260.25" type="curve"/>
      <point x="953.625" y="1337.5"/>
      <point x="1027.375" y="1394.125"/>
      <point x="1118.875" y="1394.125" type="curve" smooth="yes"/>
      <point x="1208.25" y="1394.125"/>
      <point x="1246.25" y="1350.25"/>
      <point x="1246.25" y="1277.25" type="curve" smooth="yes"/>
      <point x="1246.25" y="1232.0"/>
      <point x="1236.75" y="1174.75"/>
      <point x="1227.25" y="1128.25" type="curve" smooth="yes"/>
      <point x="988.625" y="0.0" type="line"/>
      <point x="1083.875" y="0.0" type="line"/>
      <point x="1324.125" y="1142.5" type="line" smooth="yes"/>
      <point x="1336.25" y="1194.25"/>
      <point x="1343.75" y="1245.125"/>
      <point x="1343.75" y="1294.375" type="curve" smooth="yes"/>
      <point x="1343.75" y="1415.75"/>
      <point x="1265.75" y="1483.0"/>
      <point x="1142.75" y="1483.0" type="curve" smooth="yes"/>
      <point x="1032.375" y="1483.0"/>
      <point x="941.625" y="1422.0"/>
      <point x="871.125" y="1335.5" type="curve"/>
      <point x="827.75" y="1436.25"/>
      <point x="748.5" y="1483.0"/>
      <point x="635.0" y="1483.0" type="curve" smooth="yes"/>
      <point x="246.125" y="1483.0"/>
      <point x="70.75" y="793.25"/>
      <point x="70.75" y="391.875" type="curve" smooth="yes"/>
      <point x="70.75" y="110.125"/>
      <point x="166.0" y="-20.0"/>
    </contour>
    <contour>
      <point x="359.875" y="67.75" type="curve" smooth="yes"/>
      <point x="235.75" y="67.75"/>
      <point x="168.875" y="163.5"/>
      <point x="168.875" y="393.625" type="curve" smooth="yes"/>
      <point x="168.875" y="695.625"/>
      <point x="305.25" y="1395.625"/>
      <point x="626.875" y="1395.625" type="curve" smooth="yes"/>
      <point x="755.25" y="1395.625"/>
      <point x="814.5" y="1304.75"/>
      <point x="814.5" y="1092.875" type="curve" smooth="yes"/>
      <point x="814.5" y="751.125"/>
      <point x="672.0" y="67.75"/>
    </contour>
  </outline>
</glyph>
<glyph name="uni01B4" format="2">
  <advance width="703.875"/>
  <unicode hex="01B4"/>
  <anchor x="98.375" y="-496.5" name="bottom"/>
  <anchor x="434.375" y="1079.25" name="top"/>
  <outline>
    <contour>
      <point x="-125.25" y="-496.5" type="curve" smooth="yes"/>
      <point x="9.624999999999995" y="-496.5"/>
      <point x="80.125" y="-411.625"/>
      <point x="155.75" y="-240.375" type="curve" smooth="yes"/>
      <point x="641.75" y="861.5" type="line" smooth="yes"/>
      <point x="695.125" y="987.25"/>
      <point x="718.5" y="1017.875"/>
      <point x="778.875" y="1017.875" type="curve" smooth="yes"/>
      <point x="802.5" y="1017.875"/>
      <point x="821.625" y="1011.125"/>
      <point x="836.375" y="1002.375" type="curve"/>
      <point x="836.375" y="1086.875" type="line"/>
      <point x="818.25" y="1094.375"/>
      <point x="798.5" y="1101.75"/>
      <point x="767.0" y="1101.75" type="curve" smooth="yes"/>
      <point x="667.75" y="1101.75"/>
      <point x="621.625" y="1038.375"/>
      <point x="562.5" y="896.625" type="curve" smooth="yes"/>
      <point x="328.5" y="358.0" type="line" smooth="yes"/>
      <point x="305.875" y="308.5"/>
      <point x="275.625" y="232.0"/>
      <point x="250.25" y="162.375" type="curve"/>
      <point x="245.5" y="162.375" type="line"/>
      <point x="249.0" y="229.5"/>
      <point x="249.75" y="305.5"/>
      <point x="249.75" y="364.0" type="curve" smooth="yes"/>
      <point x="245.25" y="1084.875" type="line"/>
      <point x="152.875" y="1084.875" type="line"/>
      <point x="170.5" y="18.375" type="line"/>
      <point x="68.125" y="-217.75" type="line" smooth="yes"/>
      <point x="9.875000000000002" y="-353.75"/>
      <point x="-39.875" y="-408.0"/>
      <point x="-123.625" y="-408.0" type="curve" smooth="yes"/>
      <point x="-157.125" y="-408.0"/>
      <point x="-182.5" y="-400.75"/>
      <point x="-203.875" y="-388.75" type="curve"/>
      <point x="-219.875" y="-475.5" type="line"/>
      <point x="-199.625" y="-486.25"/>
      <point x="-167.125" y="-496.5"/>
    </contour>
  </outline>
</glyph>
<glyph name="uni01BF" format="2">
  <advance width="799.0"/>
  <unicode hex="01BF"/>
  <anchor x="185.375" y="-470.75" name="bottom"/>
  <anchor x="514.875" y="1079.25" name="top"/>
  <outline>
    <contour>
      <point x="-89.25" y="-470.75" type="line"/>
      <point x="1.9999999999999947" y="-470.75" type="line"/>
      <point x="97.125" y="-18.75" type="line"/>
      <point x="527.625" y="82.0"/>
      <point x="750.5" y="427.75"/>
      <point x="750.5" y="822.75" type="curve" smooth="yes"/>
      <point x="750.5" y="1012.5"/>
      <point x="682.0" y="1105.5"/>
      <point x="547.0" y="1105.5" type="curve" smooth="yes"/>
      <point x="434.625" y="1105.5"/>
      <point x="355.875" y="1035.375"/>
      <point x="291.25" y="917.625" type="curve"/>
      <point x="286.5" y="917.625" type="line"/>
      <point x="315.0" y="1084.875" type="line"/>
      <point x="238.625" y="1084.875" type="line"/>
    </contour>
    <contour>
      <point x="114.5" y="66.0" type="curve"/>
      <point x="220.25" y="572.75" type="line" smooth="yes"/>
      <point x="258.25" y="753.625"/>
      <point x="344.125" y="1023.0"/>
      <point x="519.375" y="1023.0" type="curve" smooth="yes"/>
      <point x="611.75" y="1023.0"/>
      <point x="655.25" y="959.125"/>
      <point x="655.25" y="825.125" type="curve" smooth="yes"/>
      <point x="655.25" y="460.0"/>
      <point x="456.375" y="158.25"/>
    </contour>
  </outline>
</glyph>
<glyph name="uni01C0" format="2">
  <advance width="520.375"/>
  <unicode hex="01C0"/>
  <anchor x="144.625" y="0.0" name="bottom"/>
  <anchor x="475.375" y="1556.125" name="top"/>
  <outline>
    <contour>
      <point x="100.75" y="0.0" type="line"/>
      <point x="188.5" y="0.0" type="line"/>
      <point x="518.25" y="1556.125" type="line"/>
      <point x="431.5" y="1556.125" type="line"/>
    </contour>
  </outline>
</glyph>
<glyph name="uni01E4" format="2">
  <advance width="964.25"/>
  <unicode hex="01E4"/>
  <anchor x="367.125" y="0.0" name="bottom"/>
  <anchor x="678.0" y="1462.0" name="top"/>
  <outline>
    <contour>
      <point x="446.875" y="-20.0" type="curve" smooth="yes"/>
      <point x="548.0" y="-20.0"/>
      <point x="636.5" y="-0.5000000000000001"/>
      <point x="721.25" y="31.75" type="curve"/>
      <point x="788.5" y="345.75" type="line"/>
      <point x="909.125" y="345.75" type="line"/>
      <point x="924.75" y="421.5" type="line"/>
      <point x="804.5" y="421.5" type="line"/>
      <point x="873.75" y="748.75" type="line"/>
      <point x="585.5" y="748.75" type="line"/>
      <point x="566.5" y="667.0" type="line"/>
      <point x="760.5" y="667.0" type="line"/>
      <point x="710.25" y="421.5" type="line"/>
      <point x="468.875" y="421.5" type="line"/>
      <point x="452.625" y="345.75" type="line"/>
      <point x="692.0" y="345.75" type="line"/>
      <point x="641.0" y="98.25" type="line"/>
      <point x="585.0" y="77.5"/>
      <point x="525.125" y="67.0"/>
      <point x="457.125" y="67.0" type="curve" smooth="yes"/>
      <point x="269.5" y="67.0"/>
      <point x="172.125" y="180.625"/>
      <point x="172.125" y="448.625" type="curve" smooth="yes"/>
      <point x="172.125" y="903.5"/>
      <point x="375.25" y="1396.875"/>
      <point x="721.0" y="1396.875" type="curve" smooth="yes"/>
      <point x="812.0" y="1396.875"/>
      <point x="883.5" y="1367.25"/>
      <point x="950.375" y="1316.625" type="curve"/>
      <point x="1001.75" y="1396.75" type="line"/>
      <point x="933.75" y="1445.5"/>
      <point x="846.0" y="1485.0"/>
      <point x="726.25" y="1485.0" type="curve" smooth="yes"/>
      <point x="321.625" y="1485.0"/>
      <point x="74.0" y="978.75"/>
      <point x="74.0" y="441.5" type="curve" smooth="yes"/>
      <point x="74.0" y="132.75"/>
      <point x="199.75" y="-20.0"/>
    </contour>
  </outline>
</glyph>
<glyph name="uni0220" format="2">
  <advance width="912.125"/>
  <unicode hex="0220"/>
  <anchor x="236.875" y="-492.0" name="bottom"/>
  <anchor x="652.125" y="1462.0" name="top"/>
  <outline>
    <contour>
      <point x="438.375" y="-492.0" type="line"/>
      <point x="532.625" y="-492.0" type="line"/>
      <point x="855.875" y="1023.0" type="line" smooth="yes"/>
      <point x="874.625" y="1110.0"/>
      <point x="892.125" y="1206.75"/>
      <point x="892.125" y="1270.75" type="curve" smooth="yes"/>
      <point x="892.125" y="1399.75"/>
      <point x="816.375" y="1483.0"/>
      <point x="673.75" y="1483.0" type="curve" smooth="yes"/>
      <point x="531.375" y="1483.0"/>
      <point x="425.375" y="1400.0"/>
      <point x="368.5" y="1288.0" type="curve"/>
      <point x="364.5" y="1288.0" type="line"/>
      <point x="392.75" y="1462.0" type="line"/>
      <point x="316.0" y="1462.0" type="line"/>
      <point x="8.25" y="0.0" type="line"/>
      <point x="103.5" y="0.0" type="line"/>
      <point x="306.375" y="964.375" type="line" smooth="yes"/>
      <point x="367.75" y="1255.125"/>
      <point x="480.125" y="1394.125"/>
      <point x="647.125" y="1394.125" type="curve" smooth="yes"/>
      <point x="748.875" y="1394.125"/>
      <point x="794.5" y="1337.25"/>
      <point x="794.5" y="1248.0" type="curve" smooth="yes"/>
      <point x="794.5" y="1186.625"/>
      <point x="779.0" y="1115.5"/>
      <point x="763.75" y="1041.375" type="curve" smooth="yes"/>
    </contour>
  </outline>
</glyph>
<glyph name="uni0235" format="2">
  <advance width="1069.375"/>
  <unicode hex="0235"/>
  <anchor x="419.5" y="0.0" name="bottom"/>
  <anchor x="649.125" y="1079.25" name="top"/>
  <outline>
    <contour>
      <point x="405.375" y="-88.5" type="line"/>
      <point x="438.125" y="-16.5"/>
      <point x="475.125" y="57.0"/>
      <point x="508.875" y="105.375" type="curve"/>
      <point x="535.75" y="40.5"/>
      <point x="602.625" y="-18.75"/>
      <point x="737.125" y="-18.75" type="curve" smooth="yes"/>
      <point x="886.875" y="-18.75"/>
      <point x="991.875" y="76.0"/>
      <point x="991.125" y="202.125" type="curve" smooth="yes"/>
      <point x="991.875" y="311.875"/>
      <point x="916.5" y="383.75"/>
      <point x="798.5" y="383.75" type="curve" smooth="yes"/>
      <point x="703.75" y="383.75"/>
      <point x="635.25" y="343.375"/>
      <point x="593.375" y="299.125" type="curve"/>
      <point x="676.625" y="685.625" type="line" smooth="yes"/>
      <point x="693.125" y="763.5"/>
      <point x="712.75" y="862.75"/>
      <point x="712.75" y="924.125" type="curve" smooth="yes"/>
      <point x="712.75" y="1046.875"/>
      <point x="638.75" y="1105.5"/>
      <point x="534.25" y="1105.5" type="curve" smooth="yes"/>
      <point x="430.25" y="1105.5"/>
      <point x="342.875" y="1040.875"/>
      <point x="291.0" y="930.0" type="curve"/>
      <point x="286.25" y="930.0" type="line"/>
      <point x="311.875" y="1084.875" type="line"/>
      <point x="236.625" y="1084.875" type="line"/>
      <point x="6.75" y="0.0" type="line"/>
      <point x="100.5" y="0.0" type="line"/>
      <point x="224.875" y="588.75" type="line" smooth="yes"/>
      <point x="284.75" y="872.375"/>
      <point x="367.5" y="1019.25"/>
      <point x="509.5" y="1019.25" type="curve" smooth="yes"/>
      <point x="577.625" y="1019.25"/>
      <point x="617.875" y="981.75"/>
      <point x="617.875" y="908.875" type="curve" smooth="yes"/>
      <point x="617.875" y="844.875"/>
      <point x="599.75" y="764.25"/>
      <point x="584.5" y="689.5" type="curve" smooth="yes"/>
      <point x="505.0" y="317.375" type="line" smooth="yes"/>
      <point x="494.375" y="271.125"/>
      <point x="489.125" y="223.875"/>
      <point x="488.375" y="201.125" type="curve"/>
      <point x="442.375" y="139.125"/>
      <point x="384.25" y="35.25"/>
      <point x="342.25" y="-50.5" type="curve"/>
    </contour>
    <contour>
      <point x="747.375" y="53.625" type="curve" smooth="yes"/>
      <point x="654.375" y="51.62499999999999"/>
      <point x="582.25" y="94.875"/>
      <point x="583.0" y="197.5" type="curve"/>
      <point x="641.625" y="278.125"/>
      <point x="714.875" y="312.125"/>
      <point x="789.25" y="312.125" type="curve" smooth="yes"/>
      <point x="868.25" y="312.125"/>
      <point x="913.25" y="262.625"/>
      <point x="913.25" y="195.875" type="curve" smooth="yes"/>
      <point x="913.25" y="117.375"/>
      <point x="851.5" y="54.875"/>
    </contour>
  </outline>
</glyph>
<glyph name="jdotless" format="2">
  <advance width="345.5"/>
  <unicode hex="0237"/>
  <anchor x="-45.5" y="-492.0" name="bottom"/>
  <anchor x="287.875" y="1079.25" name="top"/>
  <outline>
    <contour>
      <point x="-186.875" y="-492.0" type="curve" smooth="yes"/>
      <point x="-17.000000000000007" y="-492.0"/>
      <point x="30.5" y="-365.125"/>
      <point x="85.0" y="-106.375" type="curve" smooth="yes"/>
      <point x="338.5" y="1084.875" type="line"/>
      <point x="246.125" y="1084.875" type="line"/>
      <point x="-5.499999999999998" y="-100.0" type="line" smooth="yes"/>
      <point x="-52.0" y="-337.75"/>
      <point x="-89.75" y="-405.5"/>
      <point x="-193.625" y="-405.5" type="curve" smooth="yes"/>
      <point x="-223.25" y="-405.5"/>
      <point x="-248.25" y="-401.5"/>
      <point x="-269.0" y="-392.75" type="curve"/>
      <point x="-269.0" y="-480.75" type="line"/>
      <point x="-248.625" y="-487.0"/>
      <point x="-220.25" y="-492.0"/>
    </contour>
  </outline>
</glyph>
<glyph name="uni0238" format="2">
  <advance width="1267.0"/>
  <unicode hex="0238"/>
  <anchor x="519.625" y="0.0" name="bottom"/>
  <anchor x="850.875" y="1556.0" name="top"/>
  <outline>
    <contour>
      <point x="267.375" y="-20.0" type="curve" smooth="yes"/>
      <point x="384.125" y="-20.0"/>
      <point x="485.625" y="55.25"/>
      <point x="569.375" y="249.75" type="curve"/>
      <point x="577.625" y="56.25"/>
      <point x="654.375" y="-20.0"/>
      <point x="777.875" y="-20.0" type="curve" smooth="yes"/>
      <point x="1080.875" y="-20.0"/>
      <point x="1212.625" y="515.75"/>
      <point x="1212.625" y="802.5" type="curve" smooth="yes"/>
      <point x="1212.625" y="1004.625"/>
      <point x="1140.5" y="1105.5"/>
      <point x="1009.0" y="1105.5" type="curve" smooth="yes"/>
      <point x="898.625" y="1105.5"/>
      <point x="814.625" y="1025.125"/>
      <point x="758.25" y="914.375" type="curve"/>
      <point x="754.25" y="914.375" type="line"/>
      <point x="763.625" y="949.125"/>
      <point x="774.375" y="989.625"/>
      <point x="783.875" y="1037.375" type="curve" smooth="yes"/>
      <point x="893.5" y="1556.0" type="line"/>
      <point x="801.5" y="1556.0" type="line"/>
      <point x="701.125" y="1084.5" type="line" smooth="yes"/>
      <point x="690.75" y="1035.875"/>
      <point x="681.25" y="981.0"/>
      <point x="674.5" y="934.875" type="curve"/>
      <point x="669.75" y="934.875" type="line"/>
      <point x="654.5" y="1034.375"/>
      <point x="594.5" y="1105.5"/>
      <point x="490.125" y="1105.5" type="curve" smooth="yes"/>
      <point x="198.625" y="1105.5"/>
      <point x="55.25" y="600.5"/>
      <point x="55.25" y="286.75" type="curve" smooth="yes"/>
      <point x="55.25" y="86.75"/>
      <point x="128.75" y="-20.0"/>
    </contour>
    <contour>
      <point x="283.125" y="63.25" type="curve" smooth="yes"/>
      <point x="202.25" y="63.25"/>
      <point x="151.75" y="130.25"/>
      <point x="151.75" y="289.25" type="curve" smooth="yes"/>
      <point x="151.75" y="555.375"/>
      <point x="273.875" y="1020.75"/>
      <point x="495.625" y="1020.75" type="curve" smooth="yes"/>
      <point x="581.75" y="1020.75"/>
      <point x="627.25" y="951.375"/>
      <point x="627.25" y="839.625" type="curve" smooth="yes"/>
      <point x="627.25" y="676.5"/>
      <point x="537.5" y="63.25"/>
    </contour>
    <contour>
      <point x="779.875" y="63.25" type="curve" smooth="yes"/>
      <point x="688.625" y="63.25"/>
      <point x="642.375" y="137.125"/>
      <point x="642.375" y="269.625" type="curve" smooth="yes"/>
      <point x="642.375" y="444.375"/>
      <point x="741.875" y="1021.5"/>
      <point x="984.625" y="1021.5" type="curve" smooth="yes"/>
      <point x="1066.25" y="1021.5"/>
      <point x="1116.75" y="959.625"/>
      <point x="1116.75" y="795.5" type="curve" smooth="yes"/>
      <point x="1116.75" y="551.5"/>
      <point x="1000.375" y="63.25"/>
    </contour>
  </outline>
</glyph>
<glyph name="uni023A" format="2">
  <advance width="727.625"/>
  <unicode hex="023A"/>
  <anchor x="249.0" y="0.0" name="bottom"/>
  <anchor x="527.0" y="1462.75" name="top"/>
  <outline>
    <contour>
      <point x="-21.375000000000014" y="-156.0" type="line"/>
      <point x="53.24999999999999" y="-156.0" type="line"/>
      <point x="771.375" y="1559.0" type="line"/>
      <point x="697.375" y="1559.0" type="line"/>
    </contour>
    <component base="A" xOffset="4.440892098500626e-16"/>
  </outline>
</glyph>
<glyph name="uni023B" format="2">
  <advance width="727.875"/>
  <unicode hex="023B"/>
  <anchor x="258.0" y="0.0" name="bottom"/>
  <anchor x="569.625" y="1462.0" name="top"/>
  <outline>
    <contour>
      <point x="54.374999999999986" y="-156.0" type="line"/>
      <point x="126.12499999999999" y="-156.0" type="line"/>
      <point x="814.875" y="1559.0" type="line"/>
      <point x="742.5" y="1559.0" type="line"/>
    </contour>
    <component base="C" xOffset="-4.440892098500626e-16"/>
  </outline>
</glyph>
<glyph name="uni023D" format="2">
  <advance width="636.75"/>
  <unicode hex="023D"/>
  <anchor x="203.375" y="0.0" name="bottom"/>
  <anchor x="514.625" y="1462.0" name="top"/>
  <outline>
    <contour>
      <point x="2.499999999999999" y="0.0" type="line"/>
      <point x="472.75" y="0.0" type="line"/>
      <point x="490.5" y="87.0" type="line"/>
      <point x="115.625" y="87.0" type="line"/>
      <point x="250.25" y="723.375" type="line"/>
      <point x="441.625" y="723.375" type="line"/>
      <point x="459.375" y="806.5" type="line"/>
      <point x="267.375" y="806.5" type="line"/>
      <point x="408.0" y="1462.0" type="line"/>
      <point x="312.75" y="1462.0" type="line"/>
      <point x="172.75" y="806.5" type="line"/>
      <point x="83.75" y="806.5" type="line"/>
      <point x="66.625" y="723.375" type="line"/>
      <point x="156.375" y="723.375" type="line"/>
    </contour>
  </outline>
</glyph>
<glyph name="uni023E" format="2">
  <advance width="640.625"/>
  <unicode hex="023E"/>
  <anchor x="205.5" y="0.0" name="bottom"/>
  <anchor x="516.375" y="1462.0" name="top"/>
  <outline>
    <contour>
      <point x="-75.75" y="-129.75" type="line"/>
      <point x="-1.5" y="-129.75" type="line"/>
      <point x="768.375" y="1584.125" type="line"/>
      <point x="694.375" y="1584.125" type="line"/>
    </contour>
    <component base="T"/>
  </outline>
</glyph>
<glyph name="uni0240" format="2">
  <advance width="482.875"/>
  <unicode hex="0240"/>
  <anchor x="22.999999999999996" y="-492.0" name="bottom"/>
  <anchor x="356.625" y="1079.25" name="top"/>
  <outline>
    <contour>
      <point x="258.875" y="-492.0" type="curve" smooth="yes"/>
      <point x="292.0" y="-492.0"/>
      <point x="323.5" y="-483.5"/>
      <point x="344.375" y="-473.5" type="curve"/>
      <point x="344.375" y="-392.75" type="line"/>
      <point x="324.5" y="-402.75"/>
      <point x="298.375" y="-409.5"/>
      <point x="271.875" y="-409.5" type="curve" smooth="yes"/>
      <point x="196.25" y="-409.5"/>
      <point x="174.125" y="-347.25"/>
      <point x="172.625" y="-186.875" type="curve" smooth="yes"/>
      <point x="170.375" y="-25.625000000000004"/>
      <point x="126.875" y="46.625"/>
      <point x="42.125" y="71.25" type="curve"/>
      <point x="559.75" y="1011.875" type="line"/>
      <point x="576.0" y="1084.875" type="line"/>
      <point x="185.5" y="1084.875" type="line"/>
      <point x="168.75" y="1002.375" type="line"/>
      <point x="457.875" y="1002.375" type="line"/>
      <point x="-54.75" y="70.375" type="line"/>
      <point x="-70.25" y="0.0" type="line"/>
      <point x="-42.5" y="0.0" type="line" smooth="yes"/>
      <point x="31.75" y="0.0"/>
      <point x="82.5" y="-47.75"/>
      <point x="85.875" y="-210.0" type="curve" smooth="yes"/>
      <point x="88.875" y="-401.125"/>
      <point x="125.5" y="-492.0"/>
    </contour>
  </outline>
</glyph>
<glyph name="uni0241" format="2">
  <advance width="655.125"/>
  <unicode hex="0241"/>
  <anchor x="214.375" y="0.0" name="bottom"/>
  <anchor x="524.625" y="1462.0" name="top"/>
  <outline>
    <contour>
      <point x="31.625" y="0.0" type="line"/>
      <point x="126.875" y="0.0" type="line"/>
      <point x="246.625" y="611.375" type="line"/>
      <point x="546.0" y="702.625"/>
      <point x="679.875" y="936.125"/>
      <point x="679.875" y="1195.875" type="curve" smooth="yes"/>
      <point x="679.875" y="1354.75"/>
      <point x="597.0" y="1483.0"/>
      <point x="414.75" y="1483.0" type="curve" smooth="yes"/>
      <point x="294.25" y="1483.0"/>
      <point x="214.75" y="1440.25"/>
      <point x="146.625" y="1387.125" type="curve"/>
      <point x="182.375" y="1317.125" type="line"/>
      <point x="246.75" y="1365.75"/>
      <point x="311.375" y="1395.625"/>
      <point x="400.625" y="1395.625" type="curve" smooth="yes"/>
      <point x="520.125" y="1395.625"/>
      <point x="581.75" y="1314.125"/>
      <point x="581.75" y="1184.875" type="curve" smooth="yes"/>
      <point x="581.75" y="945.75"/>
      <point x="458.0" y="749.125"/>
      <point x="161.125" y="663.125" type="curve"/>
    </contour>
  </outline>
</glyph>
<glyph name="uni0247" format="2">
  <advance width="710.0"/>
  <unicode hex="0247"/>
  <anchor x="177.375" y="-297.0" name="bottom"/>
  <anchor x="540.625" y="1413.0" name="top"/>
  <outline>
    <contour>
      <point x="67.125" y="-297.0" type="line"/>
      <point x="135.375" y="-297.0" type="line"/>
      <point x="225.625" y="-7.250000000000002" type="line"/>
      <point x="249.25" y="-16.0"/>
      <point x="276.625" y="-20.0"/>
      <point x="307.625" y="-20.0" type="curve" smooth="yes"/>
      <point x="390.625" y="-20.0"/>
      <point x="458.25" y="-0.7499999999999999"/>
      <point x="512.125" y="31.75" type="curve"/>
      <point x="512.125" y="118.5" type="line"/>
      <point x="450.25" y="82.25"/>
      <point x="394.875" y="61.75"/>
      <point x="327.75" y="61.75" type="curve" smooth="yes"/>
      <point x="298.0" y="61.75"/>
      <point x="272.0" y="66.5"/>
      <point x="251.0" y="76.0" type="curve"/>
      <point x="392.375" y="532.875" type="line"/>
      <point x="590.5" y="580.375"/>
      <point x="676.125" y="746.25"/>
      <point x="676.125" y="906.0" type="curve" smooth="yes"/>
      <point x="676.125" y="1007.625"/>
      <point x="635.0" y="1067.75"/>
      <point x="567.125" y="1091.875" type="curve"/>
      <point x="667.0" y="1413.0" type="line"/>
      <point x="599.375" y="1413.0" type="line"/>
      <point x="502.375" y="1104.75" type="line"/>
      <point x="496.375" y="1105.5"/>
      <point x="490.875" y="1105.5"/>
      <point x="484.125" y="1105.5" type="curve" smooth="yes"/>
      <point x="251.5" y="1105.5"/>
      <point x="52.75" y="738.625"/>
      <point x="52.75" y="300.0" type="curve" smooth="yes"/>
      <point x="52.75" y="160.5"/>
      <point x="92.25" y="66.875"/>
      <point x="166.25" y="20.375" type="curve"/>
    </contour>
    <contour>
      <point x="197.375" y="120.375" type="line"/>
      <point x="163.25" y="157.25"/>
      <point x="147.75" y="221.0"/>
      <point x="147.75" y="313.375" type="curve" smooth="yes"/>
      <point x="147.75" y="383.25"/>
      <point x="153.0" y="447.625"/>
      <point x="165.0" y="506.5" type="curve"/>
      <point x="322.125" y="522.625" type="line"/>
    </contour>
    <contour>
      <point x="177.875" y="584.125" type="line"/>
      <point x="230.5" y="838.625"/>
      <point x="353.375" y="1019.25"/>
      <point x="479.0" y="1022.25" type="curve"/>
      <point x="345.875" y="602.625" type="line"/>
      <point x="301.625" y="594.125"/>
      <point x="242.5" y="587.875"/>
      <point x="197.25" y="585.375" type="curve" smooth="yes"/>
    </contour>
    <contour>
      <point x="421.75" y="625.875" type="curve"/>
      <point x="541.875" y="1007.375" type="line"/>
      <point x="572.875" y="990.5"/>
      <point x="588.5" y="951.25"/>
      <point x="588.5" y="901.75" type="curve" smooth="yes"/>
      <point x="588.5" y="795.875"/>
      <point x="545.125" y="669.875"/>
    </contour>
  </outline>
</glyph>
<glyph name="uni0249" format="2">
  <advance width="345.5"/>
  <unicode hex="0249"/>
  <anchor x="-45.5" y="-492.0" name="bottom"/>
  <anchor x="372.875" y="1477.125" name="top"/>
  <outline>
    <contour>
      <point x="-186.875" y="-492.0" type="curve" smooth="yes"/>
      <point x="-17.000000000000007" y="-492.0"/>
      <point x="30.5" y="-365.125"/>
      <point x="85.0" y="-106.375" type="curve" smooth="yes"/>
      <point x="221.625" y="529.125" type="line"/>
      <point x="344.875" y="529.125" type="line"/>
      <point x="362.0" y="609.375" type="line"/>
      <point x="238.0" y="609.375" type="line"/>
      <point x="338.5" y="1084.875" type="line"/>
      <point x="246.125" y="1084.875" type="line"/>
      <point x="146.375" y="609.375" type="line"/>
      <point x="17.375" y="609.375" type="line"/>
      <point x="2.2500000000000018" y="529.125" type="line"/>
      <point x="127.75" y="529.125" type="line"/>
      <point x="-5.499999999999998" y="-100.0" type="line" smooth="yes"/>
      <point x="-52.0" y="-337.75"/>
      <point x="-89.75" y="-405.5"/>
      <point x="-193.625" y="-405.5" type="curve" smooth="yes"/>
      <point x="-223.25" y="-405.5"/>
      <point x="-248.25" y="-401.5"/>
      <point x="-269.0" y="-392.75" type="curve"/>
      <point x="-269.0" y="-480.75" type="line"/>
      <point x="-248.625" y="-487.0"/>
      <point x="-220.25" y="-492.0"/>
    </contour>
    <contour>
      <point x="344.25" y="1303.875" type="curve" smooth="yes"/>
      <point x="396.125" y="1303.875"/>
      <point x="424.25" y="1363.75"/>
      <point x="424.25" y="1417.125" type="curve" smooth="yes"/>
      <point x="424.25" y="1458.125"/>
      <point x="405.375" y="1477.125"/>
      <point x="372.625" y="1477.125" type="curve" smooth="yes"/>
      <point x="317.75" y="1477.125"/>
      <point x="292.25" y="1415.875"/>
      <point x="292.25" y="1364.5" type="curve" smooth="yes"/>
      <point x="292.25" y="1325.25"/>
      <point x="310.75" y="1303.875"/>
    </contour>
  </outline>
</glyph>
<glyph name="uni024A" format="2">
  <advance width="987.875"/>
  <unicode hex="024A"/>
  <anchor x="275.125" y="-492.0" name="bottom"/>
  <anchor x="690.375" y="1462.0" name="top"/>
  <outline>
    <contour>
      <point x="672.0" y="-492.0" type="curve" smooth="yes"/>
      <point x="708.25" y="-492.0"/>
      <point x="745.375" y="-482.75"/>
      <point x="772.625" y="-471.5" type="curve"/>
      <point x="772.625" y="-387.125" type="line"/>
      <point x="747.75" y="-397.0"/>
      <point x="723.625" y="-403.25"/>
      <point x="695.375" y="-403.25" type="curve" smooth="yes"/>
      <point x="658.125" y="-403.25"/>
      <point x="637.625" y="-382.125"/>
      <point x="637.625" y="-340.5" type="curve" smooth="yes"/>
      <point x="637.625" y="-313.0"/>
      <point x="642.875" y="-281.0"/>
      <point x="652.625" y="-235.875" type="curve" smooth="yes"/>
      <point x="1013.875" y="1462.0" type="line"/>
      <point x="933.75" y="1462.0" type="line"/>
      <point x="881.875" y="1279.5" type="line"/>
      <point x="877.125" y="1279.5" type="line"/>
      <point x="848.75" y="1407.25"/>
      <point x="774.75" y="1483.0"/>
      <point x="639.5" y="1483.0" type="curve" smooth="yes"/>
      <point x="232.375" y="1483.0"/>
      <point x="76.75" y="784.875"/>
      <point x="76.75" y="402.625" type="curve" smooth="yes"/>
      <point x="76.75" y="108.875"/>
      <point x="170.75" y="-20.0"/>
      <point x="353.25" y="-20.0" type="curve" smooth="yes"/>
      <point x="503.25" y="-20.0"/>
      <point x="595.75" y="76.625"/>
      <point x="650.125" y="178.0" type="curve"/>
      <point x="654.875" y="178.0" type="line"/>
      <point x="639.0" y="123.75"/>
      <point x="622.875" y="68.375"/>
      <point x="609.25" y="0.0" type="curve" smooth="yes"/>
      <point x="559.875" y="-234.375" type="line" smooth="yes"/>
      <point x="547.5" y="-285.875"/>
      <point x="540.875" y="-329.375"/>
      <point x="540.875" y="-359.125" type="curve" smooth="yes"/>
      <point x="540.875" y="-444.375"/>
      <point x="587.625" y="-492.0"/>
    </contour>
    <contour>
      <point x="375.75" y="67.75" type="curve" smooth="yes"/>
      <point x="249.25" y="67.75"/>
      <point x="174.125" y="156.5"/>
      <point x="174.125" y="405.125" type="curve" smooth="yes"/>
      <point x="174.125" y="682.25"/>
      <point x="294.0" y="1395.625"/>
      <point x="643.375" y="1395.625" type="curve" smooth="yes"/>
      <point x="774.0" y="1395.625"/>
      <point x="832.875" y="1304.875"/>
      <point x="832.875" y="1154.25" type="curve" smooth="yes"/>
      <point x="832.875" y="1074.25"/>
      <point x="818.5" y="993.625"/>
      <point x="804.5" y="925.625" type="curve" smooth="yes"/>
      <point x="707.375" y="468.125" type="line" smooth="yes"/>
      <point x="671.5" y="294.25"/>
      <point x="578.875" y="67.75"/>
    </contour>
  </outline>
</glyph>
<glyph name="uni024C" format="2">
  <advance width="790.5"/>
  <unicode hex="024C"/>
  <anchor x="280.625" y="0.0" name="bottom"/>
  <anchor x="591.25" y="1462.0" name="top"/>
  <outline>
    <contour>
      <point x="3.749999999999999" y="0.0" type="line"/>
      <point x="98.375" y="0.0" type="line"/>
      <point x="234.25" y="640.125" type="line"/>
      <point x="386.125" y="640.125" type="line"/>
      <point x="498.625" y="0.0" type="line"/>
      <point x="600.375" y="0.0" type="line"/>
      <point x="478.125" y="658.125" type="line"/>
      <point x="680.625" y="701.375"/>
      <point x="790.375" y="917.875"/>
      <point x="790.375" y="1157.5" type="curve" smooth="yes"/>
      <point x="790.375" y="1357.25"/>
      <point x="676.125" y="1462.0"/>
      <point x="491.875" y="1462.0" type="curve" smooth="yes"/>
      <point x="312.75" y="1462.0" type="line"/>
      <point x="157.5" y="725.125" type="line"/>
      <point x="42.0" y="725.125" type="line"/>
      <point x="24.875" y="640.125" type="line"/>
      <point x="139.0" y="640.125" type="line"/>
    </contour>
    <contour>
      <point x="253.375" y="725.125" type="line"/>
      <point x="390.75" y="1375.75" type="line"/>
      <point x="471.625" y="1375.75" type="line" smooth="yes"/>
      <point x="615.875" y="1375.75"/>
      <point x="691.5" y="1303.5"/>
      <point x="691.5" y="1145.875" type="curve" smooth="yes"/>
      <point x="691.5" y="951.625"/>
      <point x="603.0" y="725.125"/>
      <point x="377.75" y="725.125" type="curve" smooth="yes"/>
    </contour>
  </outline>
</glyph>
<glyph name="uni024E" format="2">
  <advance width="611.0"/>
  <unicode hex="024E"/>
  <anchor x="191.0" y="0.0" name="bottom"/>
  <anchor x="501.25" y="1462.0" name="top"/>
  <outline>
    <contour>
      <point x="136.875" y="0.0" type="line"/>
      <point x="231.875" y="0.0" type="line"/>
      <point x="352.125" y="568.25" type="line"/>
      <point x="598.625" y="1042.125" type="line"/>
      <point x="724.875" y="1042.125" type="line"/>
      <point x="740.5" y="1119.625" type="line"/>
      <point x="639.625" y="1119.625" type="line"/>
      <point x="816.875" y="1462.0" type="line"/>
      <point x="714.75" y="1462.0" type="line"/>
      <point x="541.0" y="1119.625" type="line"/>
      <point x="296.375" y="1119.625" type="line"/>
      <point x="267.125" y="1462.0" type="line"/>
      <point x="170.25" y="1462.0" type="line"/>
      <point x="203.0" y="1119.625" type="line"/>
      <point x="111.375" y="1119.625" type="line"/>
      <point x="95.75" y="1042.125" type="line"/>
      <point x="210.75" y="1042.125" type="line"/>
      <point x="256.75" y="566.75" type="line"/>
    </contour>
    <contour>
      <point x="328.5" y="694.625" type="line"/>
      <point x="301.125" y="1042.125" type="line"/>
      <point x="501.625" y="1042.125" type="line"/>
    </contour>
  </outline>
</glyph>
<glyph name="uni024F" format="2">
  <advance width="637.25"/>
  <unicode hex="024F"/>
  <anchor x="98.375" y="-496.5" name="bottom"/>
  <anchor x="434.375" y="1079.25" name="top"/>
  <outline>
    <contour>
      <point x="14.875" y="530.375" type="line"/>
      <point x="626.25" y="530.375" type="line"/>
      <point x="644.625" y="609.375" type="line"/>
      <point x="33.25" y="609.375" type="line"/>
    </contour>
    <component base="y"/>
  </outline>
</glyph>
<glyph name="uni0253" format="2">
  <advance width="796.5"/>
  <unicode hex="0253"/>
  <anchor x="283.625" y="0.0" name="bottom"/>
  <anchor x="617.625" y="1568.75" name="top"/>
  <outline>
    <contour>
      <point x="318.25" y="-20.0" type="curve" smooth="yes"/>
      <point x="613.25" y="-20.0"/>
      <point x="747.25" y="515.75"/>
      <point x="747.25" y="802.5" type="curve" smooth="yes"/>
      <point x="747.25" y="1004.625"/>
      <point x="673.0" y="1105.5"/>
      <point x="543.75" y="1105.5" type="curve" smooth="yes"/>
      <point x="433.375" y="1105.5"/>
      <point x="349.375" y="1025.875"/>
      <point x="291.5" y="914.375" type="curve"/>
      <point x="287.5" y="914.375" type="line"/>
      <point x="295.75" y="945.375"/>
      <point x="304.125" y="972.75"/>
      <point x="313.375" y="1019.0" type="curve" smooth="yes"/>
      <point x="385.5" y="1360.125" type="line" smooth="yes"/>
      <point x="404.25" y="1446.375"/>
      <point x="436.625" y="1484.875"/>
      <point x="513.375" y="1484.875" type="curve" smooth="yes"/>
      <point x="540.625" y="1484.875"/>
      <point x="566.375" y="1478.875"/>
      <point x="583.875" y="1471.0" type="curve"/>
      <point x="583.875" y="1554.75" type="line"/>
      <point x="564.125" y="1563.25"/>
      <point x="533.875" y="1568.75"/>
      <point x="500.25" y="1568.75" type="curve" smooth="yes"/>
      <point x="375.25" y="1568.75"/>
      <point x="322.625" y="1496.25"/>
      <point x="295.75" y="1371.75" type="curve" smooth="yes"/>
      <point x="6.75" y="0.0" type="line"/>
      <point x="81.25" y="0.0" type="line"/>
      <point x="125.25" y="160.625" type="line"/>
      <point x="130.0" y="160.625" type="line"/>
      <point x="142.375" y="57.875"/>
      <point x="204.25" y="-20.0"/>
    </contour>
    <contour>
      <point x="313.875" y="63.25" type="curve" smooth="yes"/>
      <point x="221.5" y="63.25"/>
      <point x="174.125" y="137.125"/>
      <point x="174.125" y="269.625" type="curve" smooth="yes"/>
      <point x="174.125" y="444.375"/>
      <point x="275.75" y="1021.5"/>
      <point x="518.625" y="1021.5" type="curve" smooth="yes"/>
      <point x="600.25" y="1021.5"/>
      <point x="650.75" y="959.625"/>
      <point x="650.75" y="795.5" type="curve" smooth="yes"/>
      <point x="650.75" y="551.5"/>
      <point x="535.0" y="63.25"/>
    </contour>
  </outline>
</glyph>
<glyph name="uni0255" format="2">
  <advance width="622.25"/>
  <unicode hex="0255"/>
  <anchor x="196.25" y="0.0" name="bottom"/>
  <anchor x="425.25" y="1079.25" name="top"/>
  <outline>
    <contour>
      <point x="95.375" y="-204.125" type="line"/>
      <point x="113.0" y="-115.625"/>
      <point x="134.375" y="-35.0"/>
      <point x="160.5" y="37.125" type="curve"/>
      <point x="198.5" y="-2.5"/>
      <point x="249.0" y="-18.75"/>
      <point x="315.625" y="-18.75" type="curve" smooth="yes"/>
      <point x="468.125" y="-18.75"/>
      <point x="568.125" y="72.25"/>
      <point x="568.125" y="197.625" type="curve" smooth="yes"/>
      <point x="568.125" y="305.875"/>
      <point x="504.375" y="373.25"/>
      <point x="398.375" y="373.25" type="curve" smooth="yes"/>
      <point x="290.75" y="373.25"/>
      <point x="213.125" y="314.875"/>
      <point x="159.75" y="214.125" type="curve"/>
      <point x="154.5" y="241.875"/>
      <point x="152.5" y="275.125"/>
      <point x="152.5" y="322.625" type="curve" smooth="yes"/>
      <point x="152.5" y="604.0"/>
      <point x="275.125" y="1021.5"/>
      <point x="501.625" y="1021.5" type="curve" smooth="yes"/>
      <point x="540.125" y="1021.5"/>
      <point x="578.875" y="1011.875"/>
      <point x="613.375" y="992.5" type="curve"/>
      <point x="648.625" y="1073.5" type="line"/>
      <point x="610.75" y="1095.25"/>
      <point x="560.125" y="1105.5"/>
      <point x="502.375" y="1105.5" type="curve" smooth="yes"/>
      <point x="195.625" y="1105.5"/>
      <point x="56.0" y="626.25"/>
      <point x="56.0" y="326.5" type="curve" smooth="yes"/>
      <point x="56.0" y="218.25"/>
      <point x="78.0" y="150.125"/>
      <point x="106.375" y="100.875" type="curve"/>
      <point x="73.375" y="18.125000000000007"/>
      <point x="47.12499999999999" y="-82.75"/>
      <point x="25.625" y="-186.375" type="curve"/>
    </contour>
    <contour>
      <point x="332.25" y="53.625" type="curve" smooth="yes"/>
      <point x="272.625" y="53.625"/>
      <point x="220.125" y="76.375"/>
      <point x="194.125" y="127.0" type="curve"/>
      <point x="242.75" y="241.375"/>
      <point x="302.375" y="301.25"/>
      <point x="389.125" y="301.25" type="curve" smooth="yes"/>
      <point x="452.5" y="301.25"/>
      <point x="488.75" y="255.5"/>
      <point x="488.75" y="192.125" type="curve" smooth="yes"/>
      <point x="488.75" y="113.625"/>
      <point x="434.125" y="54.875"/>
    </contour>
  </outline>
</glyph>
<glyph name="uni025E" format="2">
  <advance width="798.75"/>
  <unicode hex="025E"/>
  <anchor x="284.375" y="0.0" name="bottom"/>
  <anchor x="514.375" y="1079.25" name="top"/>
  <outline>
    <contour>
      <point x="338.875" y="-20.0" type="curve" smooth="yes"/>
      <point x="534.5" y="-20.0"/>
      <point x="656.375" y="145.875"/>
      <point x="656.375" y="334.0" type="curve" smooth="yes"/>
      <point x="656.375" y="449.625"/>
      <point x="605.375" y="530.125"/>
      <point x="509.75" y="554.5" type="curve"/>
      <point x="509.75" y="559.25" type="line"/>
      <point x="673.5" y="585.75"/>
      <point x="760.0" y="732.75"/>
      <point x="760.0" y="885.875" type="curve" smooth="yes"/>
      <point x="760.0" y="1025.75"/>
      <point x="678.5" y="1105.5"/>
      <point x="535.375" y="1105.5" type="curve" smooth="yes"/>
      <point x="182.5" y="1105.5"/>
      <point x="57.25" y="629.125"/>
      <point x="57.25" y="333.25" type="curve" smooth="yes"/>
      <point x="57.25" y="87.75"/>
      <point x="158.0" y="-20.0"/>
    </contour>
    <contour>
      <point x="344.625" y="60.25" type="curve" smooth="yes"/>
      <point x="219.75" y="60.25"/>
      <point x="153.0" y="137.125"/>
      <point x="153.0" y="336.25" type="curve" smooth="yes"/>
      <point x="153.0" y="656.125"/>
      <point x="289.75" y="1025.25"/>
      <point x="524.875" y="1025.25" type="curve" smooth="yes"/>
      <point x="618.625" y="1025.25"/>
      <point x="666.75" y="971.625"/>
      <point x="666.75" y="880.875" type="curve" smooth="yes"/>
      <point x="666.75" y="735.0"/>
      <point x="584.875" y="598.625"/>
      <point x="380.5" y="598.625" type="curve" smooth="yes"/>
      <point x="287.75" y="598.625" type="line"/>
      <point x="272.125" y="520.0" type="line"/>
      <point x="366.125" y="520.0" type="line" smooth="yes"/>
      <point x="506.5" y="520.0"/>
      <point x="562.75" y="449.875"/>
      <point x="562.75" y="331.5" type="curve" smooth="yes"/>
      <point x="562.75" y="194.875"/>
      <point x="486.375" y="60.25"/>
    </contour>
  </outline>
</glyph>
<glyph name="uni025F" format="2">
  <advance width="345.5"/>
  <unicode hex="025F"/>
  <anchor x="-45.5" y="-492.0" name="bottom"/>
  <anchor x="287.875" y="1084.875" name="top"/>
  <anchor x="423.875" y="1084.875" name="topright"/>
  <outline>
    <contour>
      <point x="-179.875" y="-492.0" type="curve" smooth="yes"/>
      <point x="-2.2500000000000036" y="-492.0"/>
      <point x="35.0" y="-299.25"/>
      <point x="75.5" y="-106.375" type="curve" smooth="yes"/>
      <point x="211.5" y="529.125" type="line"/>
      <point x="338.0" y="529.125" type="line"/>
      <point x="357.0" y="609.375" type="line"/>
      <point x="227.875" y="609.375" type="line"/>
      <point x="329.0" y="1084.875" type="line"/>
      <point x="238.625" y="1084.875" type="line"/>
      <point x="137.5" y="609.375" type="line"/>
      <point x="18.125" y="609.375" type="line"/>
      <point x="1.0" y="529.125" type="line"/>
      <point x="119.125" y="529.125" type="line"/>
      <point x="-13.749999999999998" y="-100.0" type="line" smooth="yes"/>
      <point x="-60.25" y="-337.75"/>
      <point x="-85.25" y="-404.25"/>
      <point x="-182.75" y="-404.25" type="curve" smooth="yes"/>
      <point x="-213.0" y="-404.25"/>
      <point x="-241.75" y="-400.25"/>
      <point x="-265.75" y="-391.5" type="curve"/>
      <point x="-265.75" y="-480.75" type="line"/>
      <point x="-242.125" y="-487.0"/>
      <point x="-213.25" y="-492.0"/>
    </contour>
  </outline>
</glyph>
<glyph name="uni0262" format="2">
  <advance width="683.375"/>
  <unicode hex="0262"/>
  <anchor x="227.375" y="0.0" name="bottom"/>
  <anchor x="456.75" y="1079.25" name="top"/>
  <anchor x="755.25" y="1084.875" name="topright"/>
  <outline>
    <contour>
      <point x="316.125" y="-20.0" type="curve" smooth="yes"/>
      <point x="377.25" y="-20.0"/>
      <point x="432.375" y="-6.0"/>
      <point x="487.375" y="19.375" type="curve"/>
      <point x="599.875" y="570.125" type="line"/>
      <point x="352.625" y="570.125" type="line"/>
      <point x="336.0" y="487.125" type="line"/>
      <point x="492.625" y="487.125" type="line"/>
      <point x="409.625" y="78.75" type="line"/>
      <point x="386.875" y="69.5"/>
      <point x="350.125" y="65.5"/>
      <point x="330.75" y="65.5" type="curve" smooth="yes"/>
      <point x="211.5" y="65.5"/>
      <point x="151.75" y="139.375"/>
      <point x="151.75" y="288.375" type="curve" smooth="yes"/>
      <point x="151.75" y="602.0"/>
      <point x="284.0" y="1019.625"/>
      <point x="535.125" y="1019.625" type="curve" smooth="yes"/>
      <point x="577.875" y="1019.625"/>
      <point x="620.75" y="1009.375"/>
      <point x="660.0" y="992.0" type="curve"/>
      <point x="697.375" y="1073.5" type="line"/>
      <point x="655.25" y="1095.25"/>
      <point x="606.875" y="1105.5"/>
      <point x="543.625" y="1105.5" type="curve" smooth="yes"/>
      <point x="202.75" y="1105.5"/>
      <point x="57.25" y="624.875"/>
      <point x="57.25" y="290.75" type="curve" smooth="yes"/>
      <point x="57.25" y="89.25"/>
      <point x="148.125" y="-20.0"/>
    </contour>
  </outline>
</glyph>
<glyph name="uni0263" format="2">
  <advance width="583.25"/>
  <unicode hex="0263"/>
  <anchor x="73.0" y="-493.25" name="bottom"/>
  <anchor x="407.0" y="1079.25" name="top"/>
  <outline>
    <contour>
      <point x="87.75" y="-493.25" type="curve" smooth="yes"/>
      <point x="209.875" y="-493.25"/>
      <point x="272.5" y="-375.625"/>
      <point x="272.5" y="-179.5" type="curve" smooth="yes"/>
      <point x="272.5" y="-83.5"/>
      <point x="261.375" y="35.75"/>
      <point x="252.125" y="126.625" type="curve"/>
      <point x="684.125" y="1084.875" type="line"/>
      <point x="586.0" y="1084.875" type="line"/>
      <point x="290.25" y="408.25" type="line" smooth="yes"/>
      <point x="273.75" y="369.625"/>
      <point x="247.0" y="306.375"/>
      <point x="229.0" y="247.75" type="curve"/>
      <point x="223.625" y="247.75" type="line"/>
      <point x="226.375" y="298.375"/>
      <point x="226.625" y="383.375"/>
      <point x="224.625" y="442.0" type="curve" smooth="yes"/>
      <point x="207.25" y="1084.875" type="line"/>
      <point x="116.5" y="1084.875" type="line"/>
      <point x="150.625" y="146.875" type="line"/>
      <point x="22.875" y="-71.625"/>
      <point x="-45.0" y="-210.125"/>
      <point x="-45.0" y="-336.125" type="curve" smooth="yes"/>
      <point x="-45.0" y="-435.5"/>
      <point x="-4.0000000000000036" y="-493.25"/>
    </contour>
    <contour>
      <point x="94.875" y="-417.625" type="curve" smooth="yes"/>
      <point x="57.125" y="-417.625"/>
      <point x="40.0" y="-385.0"/>
      <point x="40.0" y="-331.125" type="curve" smooth="yes"/>
      <point x="40.0" y="-226.625"/>
      <point x="102.0" y="-112.625"/>
      <point x="182.375" y="49.49999999999999" type="curve"/>
      <point x="186.25" y="-31.375000000000007"/>
      <point x="190.25" y="-86.5"/>
      <point x="190.25" y="-177.25" type="curve" smooth="yes"/>
      <point x="190.25" y="-314.5"/>
      <point x="159.0" y="-417.625"/>
    </contour>
  </outline>
</glyph>
<glyph name="uni0264" format="2">
  <advance width="603.625"/>
  <unicode hex="0264"/>
  <anchor x="188.5" y="0.0" name="bottom"/>
  <anchor x="417.5" y="1079.25" name="top"/>
  <outline>
    <contour>
      <point x="190.0" y="-20.0" type="curve" smooth="yes"/>
      <point x="317.25" y="-20.0"/>
      <point x="383.875" y="112.0"/>
      <point x="383.875" y="276.125" type="curve" smooth="yes"/>
      <point x="383.875" y="366.125"/>
      <point x="368.25" y="471.125"/>
      <point x="349.125" y="555.625" type="curve"/>
      <point x="507.625" y="818.25" type="line" smooth="yes"/>
      <point x="606.375" y="985.0"/>
      <point x="631.75" y="1017.125"/>
      <point x="679.0" y="1017.125" type="curve" smooth="yes"/>
      <point x="696.125" y="1017.125"/>
      <point x="713.0" y="1012.375"/>
      <point x="726.875" y="1005.625" type="curve"/>
      <point x="743.625" y="1084.875" type="line"/>
      <point x="728.625" y="1093.625"/>
      <point x="703.5" y="1101.0"/>
      <point x="672.75" y="1101.0" type="curve" smooth="yes"/>
      <point x="605.875" y="1101.0"/>
      <point x="560.125" y="1064.0"/>
      <point x="503.25" y="971.5" type="curve" smooth="yes"/>
      <point x="375.75" y="757.375" type="line" smooth="yes"/>
      <point x="355.875" y="723.625"/>
      <point x="339.25" y="696.125"/>
      <point x="321.25" y="661.125" type="curve"/>
      <point x="316.5" y="661.125" type="line"/>
      <point x="311.875" y="699.375"/>
      <point x="307.875" y="731.375"/>
      <point x="300.75" y="768.375" type="curve" smooth="yes"/>
      <point x="265.625" y="979.0" type="line" smooth="yes"/>
      <point x="250.25" y="1060.25"/>
      <point x="217.75" y="1105.5"/>
      <point x="140.625" y="1105.5" type="curve" smooth="yes"/>
      <point x="117.0" y="1105.5"/>
      <point x="94.625" y="1100.75"/>
      <point x="77.0" y="1093.375" type="curve"/>
      <point x="77.0" y="1010.625" type="line"/>
      <point x="91.625" y="1016.125"/>
      <point x="103.875" y="1020.0"/>
      <point x="122.5" y="1020.0" type="curve" smooth="yes"/>
      <point x="160.125" y="1020.0"/>
      <point x="173.375" y="990.0"/>
      <point x="185.625" y="931.625" type="curve" smooth="yes"/>
      <point x="253.5" y="566.625" type="line"/>
      <point x="115.375" y="368.75"/>
      <point x="48.25" y="229.375"/>
      <point x="48.25" y="129.375" type="curve" smooth="yes"/>
      <point x="48.25" y="27.875"/>
      <point x="94.625" y="-20.0"/>
    </contour>
    <contour>
      <point x="190.25" y="54.625" type="curve" smooth="yes"/>
      <point x="160.0" y="54.625"/>
      <point x="138.125" y="76.25"/>
      <point x="138.125" y="128.875" type="curve" smooth="yes"/>
      <point x="138.125" y="202.375"/>
      <point x="176.75" y="295.0"/>
      <point x="279.25" y="468.25" type="curve"/>
      <point x="290.0" y="411.0"/>
      <point x="294.75" y="356.875"/>
      <point x="294.75" y="280.125" type="curve" smooth="yes"/>
      <point x="294.75" y="158.125"/>
      <point x="261.75" y="54.625"/>
    </contour>
  </outline>
</glyph>
<glyph name="uni0266" format="2">
  <advance width="773.875"/>
  <unicode hex="0266"/>
  <anchor x="272.625" y="0.0" name="bottom"/>
  <anchor x="606.625" y="1568.75" name="top"/>
  <outline>
    <contour>
      <point x="8.75" y="0.0" type="line"/>
      <point x="101.75" y="0.0" type="line"/>
      <point x="228.25" y="594.75" type="line" smooth="yes"/>
      <point x="287.5" y="881.375"/>
      <point x="371.75" y="1019.25"/>
      <point x="510.0" y="1019.25" type="curve" smooth="yes"/>
      <point x="578.125" y="1019.25"/>
      <point x="619.125" y="981.75"/>
      <point x="619.125" y="908.875" type="curve" smooth="yes"/>
      <point x="619.125" y="841.875"/>
      <point x="601.0" y="761.625"/>
      <point x="585.0" y="685.0" type="curve" smooth="yes"/>
      <point x="439.625" y="0.0" type="line"/>
      <point x="531.625" y="0.0" type="line"/>
      <point x="677.125" y="680.75" type="line" smooth="yes"/>
      <point x="693.625" y="760.25"/>
      <point x="714.0" y="862.0"/>
      <point x="714.0" y="923.375" type="curve" smooth="yes"/>
      <point x="714.0" y="1043.875"/>
      <point x="644.125" y="1105.5"/>
      <point x="537.75" y="1105.5" type="curve" smooth="yes"/>
      <point x="432.625" y="1105.5"/>
      <point x="346.375" y="1042.375"/>
      <point x="295.25" y="933.0" type="curve"/>
      <point x="291.25" y="933.0" type="line"/>
      <point x="305.875" y="988.125"/>
      <point x="317.25" y="1037.625"/>
      <point x="329.25" y="1090.125" type="curve" smooth="yes"/>
      <point x="386.75" y="1354.625" type="line" smooth="yes"/>
      <point x="406.25" y="1441.875"/>
      <point x="440.625" y="1484.875"/>
      <point x="517.375" y="1484.875" type="curve" smooth="yes"/>
      <point x="544.625" y="1484.875"/>
      <point x="569.625" y="1478.875"/>
      <point x="587.125" y="1471.0" type="curve"/>
      <point x="587.125" y="1554.75" type="line"/>
      <point x="567.375" y="1563.25"/>
      <point x="537.125" y="1568.75"/>
      <point x="503.5" y="1568.75" type="curve" smooth="yes"/>
      <point x="378.5" y="1568.75"/>
      <point x="325.875" y="1495.0"/>
      <point x="299.0" y="1371.75" type="curve" smooth="yes"/>
    </contour>
  </outline>
</glyph>
<glyph name="uni026C" format="2">
  <advance width="575.125"/>
  <unicode hex="026C"/>
  <anchor x="173.375" y="0.0" name="bottom"/>
  <anchor x="504.0" y="1556.0" name="top"/>
  <outline>
    <contour>
      <point x="179.5" y="0.0" type="line"/>
      <point x="271.875" y="0.0" type="line"/>
      <point x="390.125" y="553.25" type="line"/>
      <point x="542.5" y="553.25" type="line"/>
      <point x="557.375" y="628.25" type="line"/>
      <point x="405.375" y="628.25" type="line"/>
      <point x="603.875" y="1556.0" type="line"/>
      <point x="511.5" y="1556.0" type="line"/>
      <point x="377.0" y="923.625" type="line"/>
      <point x="362.125" y="965.625"/>
      <point x="321.875" y="997.375"/>
      <point x="262.875" y="997.375" type="curve" smooth="yes"/>
      <point x="123.75" y="997.375"/>
      <point x="51.0" y="876.375"/>
      <point x="51.0" y="743.375" type="curve" smooth="yes"/>
      <point x="51.0" y="623.625"/>
      <point x="120.25" y="553.25"/>
      <point x="239.375" y="553.25" type="curve" smooth="yes"/>
      <point x="297.75" y="553.25" type="line"/>
    </contour>
    <contour>
      <point x="253.375" y="628.25" type="line" smooth="yes"/>
      <point x="164.75" y="628.25"/>
      <point x="128.5" y="669.625"/>
      <point x="128.5" y="749.625" type="curve" smooth="yes"/>
      <point x="128.5" y="836.25"/>
      <point x="170.375" y="923.875"/>
      <point x="255.5" y="923.875" type="curve" smooth="yes"/>
      <point x="313.25" y="923.875"/>
      <point x="342.25" y="887.75"/>
      <point x="342.25" y="802.75" type="curve" smooth="yes"/>
      <point x="342.25" y="776.25"/>
      <point x="337.0" y="742.875"/>
      <point x="330.5" y="710.375" type="curve" smooth="yes"/>
      <point x="313.375" y="628.25" type="line"/>
    </contour>
  </outline>
</glyph>
<glyph name="uni026E" format="2">
  <advance width="784.75"/>
  <unicode hex="026E"/>
  <anchor x="173.375" y="-492.0" name="bottom"/>
  <anchor x="609.375" y="1556.0" name="top"/>
  <outline>
    <contour>
      <point x="226.375" y="-492.0" type="curve" smooth="yes"/>
      <point x="509.875" y="-492.0"/>
      <point x="635.125" y="-174.625"/>
      <point x="635.125" y="94.0" type="curve" smooth="yes"/>
      <point x="635.125" y="294.75"/>
      <point x="554.875" y="412.0"/>
      <point x="385.125" y="430.625" type="curve"/>
      <point x="806.875" y="1009.375" type="line"/>
      <point x="821.375" y="1084.875" type="line"/>
      <point x="329.75" y="1084.875" type="line"/>
      <point x="430.25" y="1556.0" type="line"/>
      <point x="338.25" y="1556.0" type="line"/>
      <point x="6.25" y="0.0" type="line"/>
      <point x="98.625" y="0.0" type="line"/>
      <point x="312.625" y="1001.625" type="line"/>
      <point x="696.625" y="1001.625" type="line"/>
      <point x="281.25" y="424.875" type="line"/>
      <point x="266.625" y="354.125" type="line"/>
      <point x="322.5" y="354.125" type="line" smooth="yes"/>
      <point x="474.125" y="354.125"/>
      <point x="540.75" y="266.0"/>
      <point x="540.75" y="87.75" type="curve" smooth="yes"/>
      <point x="540.75" y="-132.25"/>
      <point x="451.75" y="-405.5"/>
      <point x="224.375" y="-405.5" type="curve" smooth="yes"/>
      <point x="147.625" y="-405.5"/>
      <point x="83.25" y="-380.125"/>
      <point x="32.24999999999999" y="-337.125" type="curve"/>
      <point x="32.24999999999999" y="-440.75" type="line"/>
      <point x="72.0" y="-469.0"/>
      <point x="138.125" y="-492.0"/>
    </contour>
  </outline>
</glyph>
<glyph name="uni0271" format="2">
  <advance width="1168.125"/>
  <unicode hex="0271"/>
  <anchor x="366.25" y="-492.0" name="bottom"/>
  <anchor x="699.875" y="1079.25" name="top"/>
  <anchor x="1242.125" y="1079.25" name="topright"/>
  <outline>
    <contour>
      <point x="653.375" y="-492.0" type="curve" smooth="yes"/>
      <point x="789.125" y="-492.0"/>
      <point x="840.0" y="-397.375"/>
      <point x="864.875" y="-275.875" type="curve" smooth="yes"/>
      <point x="1090.75" y="780.5" type="line" smooth="yes"/>
      <point x="1099.5" y="823.25"/>
      <point x="1109.375" y="882.375"/>
      <point x="1109.375" y="920.875" type="curve" smooth="yes"/>
      <point x="1109.375" y="1045.125"/>
      <point x="1031.875" y="1105.5"/>
      <point x="928.375" y="1105.5" type="curve" smooth="yes"/>
      <point x="825.625" y="1105.5"/>
      <point x="748.5" y="1051.375"/>
      <point x="698.375" y="961.375" type="curve"/>
      <point x="694.375" y="961.375" type="line"/>
      <point x="683.125" y="1054.875"/>
      <point x="625.0" y="1105.5"/>
      <point x="522.875" y="1105.5" type="curve" smooth="yes"/>
      <point x="425.75" y="1105.5"/>
      <point x="346.625" y="1046.625"/>
      <point x="293.5" y="940.25" type="curve"/>
      <point x="288.75" y="940.25" type="line"/>
      <point x="313.125" y="1084.875" type="line"/>
      <point x="236.625" y="1084.875" type="line"/>
      <point x="6.75" y="0.0" type="line"/>
      <point x="100.5" y="0.0" type="line"/>
      <point x="227.5" y="596.75" type="line" smooth="yes"/>
      <point x="275.25" y="826.125"/>
      <point x="337.5" y="1020.0"/>
      <point x="497.125" y="1020.0" type="curve" smooth="yes"/>
      <point x="568.875" y="1020.0"/>
      <point x="606.25" y="977.375"/>
      <point x="606.25" y="903.0" type="curve" smooth="yes"/>
      <point x="606.25" y="876.875"/>
      <point x="603.5" y="838.875"/>
      <point x="594.75" y="800.875" type="curve" smooth="yes"/>
      <point x="422.25" y="0.0" type="line"/>
      <point x="514.625" y="0.0" type="line"/>
      <point x="677.5" y="751.625" type="line" smooth="yes"/>
      <point x="708.25" y="891.25"/>
      <point x="770.375" y="1020.0"/>
      <point x="898.0" y="1020.0" type="curve" smooth="yes"/>
      <point x="968.5" y="1020.0"/>
      <point x="1014.125" y="980.5"/>
      <point x="1014.125" y="901.0" type="curve" smooth="yes"/>
      <point x="1014.125" y="869.875"/>
      <point x="1007.375" y="824.75"/>
      <point x="996.125" y="770.75" type="curve" smooth="yes"/>
      <point x="776.625" y="-262.0" type="line" smooth="yes"/>
      <point x="755.5" y="-360.125"/>
      <point x="719.5" y="-407.75"/>
      <point x="640.625" y="-407.75" type="curve" smooth="yes"/>
      <point x="611.125" y="-407.75"/>
      <point x="590.5" y="-403.0"/>
      <point x="569.875" y="-394.25" type="curve"/>
      <point x="569.875" y="-480.0" type="line"/>
      <point x="588.25" y="-485.5"/>
      <point x="617.875" y="-492.0"/>
    </contour>
  </outline>
</glyph>
<glyph name="uni0274" format="2">
  <advance width="792.0"/>
  <unicode hex="0274"/>
  <anchor x="281.625" y="0.0" name="bottom"/>
  <anchor x="511.625" y="1079.25" name="top"/>
  <anchor x="860.875" y="1084.875" name="topright"/>
  <outline>
    <contour>
      <point x="8.75" y="0.0" type="line"/>
      <point x="101.75" y="0.0" type="line"/>
      <point x="251.75" y="704.75" type="line" smooth="yes"/>
      <point x="264.375" y="761.625"/>
      <point x="273.625" y="823.875"/>
      <point x="281.625" y="880.5" type="curve"/>
      <point x="454.75" y="0.0" type="line"/>
      <point x="540.0" y="0.0" type="line"/>
      <point x="770.875" y="1084.875" type="line"/>
      <point x="679.25" y="1084.875" type="line"/>
      <point x="529.875" y="383.625" type="line" smooth="yes"/>
      <point x="518.625" y="327.375"/>
      <point x="508.0" y="268.0"/>
      <point x="498.75" y="210.125" type="curve"/>
      <point x="325.5" y="1084.875" type="line"/>
      <point x="239.875" y="1084.875" type="line"/>
    </contour>
  </outline>
</glyph>
<glyph name="omegaclosed" format="2">
  <advance width="884.125"/>
  <unicode hex="0277"/>
  <anchor x="328.875" y="0.0" name="bottom"/>
  <anchor x="557.875" y="1079.25" name="top"/>
  <outline>
    <contour>
      <point x="189.75" y="-20.0" type="curve" smooth="yes"/>
      <point x="281.0" y="-20.0"/>
      <point x="335.375" y="28.75"/>
      <point x="371.125" y="109.625" type="curve"/>
      <point x="375.125" y="109.625" type="line"/>
      <point x="381.875" y="26.125"/>
      <point x="427.375" y="-20.0"/>
      <point x="505.25" y="-20.0" type="curve" smooth="yes"/>
      <point x="751.75" y="-20.0"/>
      <point x="848.875" y="459.125"/>
      <point x="848.875" y="723.75" type="curve" smooth="yes"/>
      <point x="848.875" y="990.875"/>
      <point x="733.0" y="1105.5"/>
      <point x="547.5" y="1105.5" type="curve" smooth="yes"/>
      <point x="199.375" y="1105.5"/>
      <point x="33.25" y="625.625"/>
      <point x="24.375" y="237.875" type="curve" smooth="yes"/>
      <point x="24.375" y="48.0"/>
      <point x="95.875" y="-20.0"/>
    </contour>
    <contour>
      <point x="206.0" y="63.25" type="curve" smooth="yes"/>
      <point x="155.75" y="63.25"/>
      <point x="116.125" y="103.75"/>
      <point x="119.375" y="240.875" type="curve" smooth="yes"/>
      <point x="127.875" y="566.25"/>
      <point x="260.625" y="1022.25"/>
      <point x="544.5" y="1022.25" type="curve" smooth="yes"/>
      <point x="676.75" y="1022.25"/>
      <point x="755.25" y="938.25"/>
      <point x="755.25" y="721.25" type="curve" smooth="yes"/>
      <point x="755.25" y="487.75"/>
      <point x="677.375" y="63.25"/>
      <point x="511.625" y="63.25" type="curve" smooth="yes"/>
      <point x="466.875" y="63.25"/>
      <point x="440.75" y="102.25"/>
      <point x="440.75" y="166.0" type="curve" smooth="yes"/>
      <point x="440.75" y="229.125"/>
      <point x="450.25" y="284.25"/>
      <point x="477.0" y="410.75" type="curve" smooth="yes"/>
      <point x="528.25" y="659.375" type="line"/>
      <point x="437.375" y="659.375" type="line"/>
      <point x="385.5" y="410.75" type="line" smooth="yes"/>
      <point x="334.75" y="161.5"/>
      <point x="297.0" y="63.25"/>
    </contour>
  </outline>
</glyph>
<glyph name="uni027A" format="2">
  <advance width="499.75"/>
  <unicode hex="027A"/>
  <anchor x="135.375" y="0.0" name="bottom"/>
  <anchor x="463.5" y="1547.75" name="top"/>
  <outline>
    <contour>
      <point x="-42.0" y="-20.0" type="curve" smooth="yes"/>
      <point x="64.875" y="-20.0"/>
      <point x="144.625" y="52.5"/>
      <point x="202.0" y="181.25" type="curve"/>
      <point x="206.0" y="181.25" type="line"/>
      <point x="175.875" y="0.0" type="line"/>
      <point x="248.875" y="0.0" type="line"/>
      <point x="573.375" y="1547.75" type="line"/>
      <point x="481.375" y="1547.75" type="line"/>
      <point x="262.75" y="509.0" type="line" smooth="yes"/>
      <point x="221.625" y="316.125"/>
      <point x="143.625" y="73.75"/>
      <point x="-26.625" y="73.75" type="curve" smooth="yes"/>
      <point x="-52.0" y="73.75"/>
      <point x="-73.875" y="78.125"/>
      <point x="-91.5" y="85.625" type="curve"/>
      <point x="-116.625" y="-8.0" type="line"/>
      <point x="-98.125" y="-14.75"/>
      <point x="-73.125" y="-20.0"/>
    </contour>
  </outline>
</glyph>
<glyph name="uni0282" format="2">
  <advance width="593.25"/>
  <unicode hex="0282"/>
  <anchor x="98.625" y="-391.875" name="bottom"/>
  <anchor x="411.125" y="1079.25" name="top"/>
  <outline>
    <contour>
      <point x="33.5" y="-391.875" type="curve" smooth="yes"/>
      <point x="70.5" y="-391.875"/>
      <point x="103.0" y="-384.75"/>
      <point x="124.0" y="-378.0" type="curve"/>
      <point x="124.0" y="-294.875" type="line"/>
      <point x="103.5" y="-304.25"/>
      <point x="80.25" y="-309.0"/>
      <point x="52.375" y="-309.0" type="curve" smooth="yes"/>
      <point x="14.374999999999995" y="-309.0"/>
      <point x="-10.250000000000007" y="-289.875"/>
      <point x="-10.250000000000007" y="-244.875" type="curve" smooth="yes"/>
      <point x="-10.250000000000007" y="-217.25"/>
      <point x="-4.250000000000006" y="-183.375"/>
      <point x="6.624999999999995" y="-138.75" type="curve" smooth="yes"/>
      <point x="36.25" y="2.2499999999999982" type="line"/>
      <point x="71.75" y="-10.25"/>
      <point x="119.75" y="-20.0"/>
      <point x="174.375" y="-20.0" type="curve" smooth="yes"/>
      <point x="357.5" y="-20.0"/>
      <point x="465.5" y="93.625"/>
      <point x="465.5" y="291.375" type="curve" smooth="yes"/>
      <point x="465.5" y="422.5"/>
      <point x="415.0" y="484.625"/>
      <point x="317.0" y="598.875" type="curve" smooth="yes"/>
      <point x="241.25" y="684.625"/>
      <point x="210.25" y="745.375"/>
      <point x="210.25" y="833.375" type="curve" smooth="yes"/>
      <point x="210.25" y="947.625"/>
      <point x="281.5" y="1023.0"/>
      <point x="395.375" y="1023.0" type="curve" smooth="yes"/>
      <point x="471.5" y="1023.0"/>
      <point x="527.375" y="996.625"/>
      <point x="568.375" y="965.625" type="curve"/>
      <point x="615.25" y="1042.625" type="line"/>
      <point x="565.875" y="1075.625"/>
      <point x="496.125" y="1105.5"/>
      <point x="397.125" y="1105.5" type="curve" smooth="yes"/>
      <point x="219.5" y="1105.5"/>
      <point x="115.5" y="981.0"/>
      <point x="115.5" y="822.0" type="curve" smooth="yes"/>
      <point x="115.5" y="699.375"/>
      <point x="170.0" y="620.125"/>
      <point x="246.25" y="533.875" type="curve" smooth="yes"/>
      <point x="334.5" y="431.0"/>
      <point x="370.0" y="377.75"/>
      <point x="370.0" y="284.125" type="curve" smooth="yes"/>
      <point x="370.0" y="143.375"/>
      <point x="302.0" y="64.75"/>
      <point x="168.0" y="64.75" type="curve" smooth="yes"/>
      <point x="89.375" y="64.75"/>
      <point x="14.374999999999996" y="90.125"/>
      <point x="-30.0" y="122.5" type="curve"/>
      <point x="-85.0" y="-137.25" type="line" smooth="yes"/>
      <point x="-97.0" y="-191.625"/>
      <point x="-103.375" y="-230.625"/>
      <point x="-103.375" y="-262.0" type="curve" smooth="yes"/>
      <point x="-103.375" y="-343.5"/>
      <point x="-53.25" y="-391.875"/>
    </contour>
  </outline>
</glyph>
<glyph name="eshsquatreversed" format="2">
  <advance width="362.125"/>
  <unicode hex="0285"/>
  <anchor x="-37.625" y="-492.0" name="bottom"/>
  <anchor x="295.75" y="1079.25" name="top"/>
  <outline>
    <contour>
      <point x="82.5" y="-492.0" type="curve" smooth="yes"/>
      <point x="119.25" y="-492.0"/>
      <point x="157.25" y="-481.5"/>
      <point x="183.875" y="-470.25" type="curve"/>
      <point x="183.875" y="-389.25" type="line"/>
      <point x="159.625" y="-398.75"/>
      <point x="132.375" y="-406.25"/>
      <point x="105.375" y="-406.25" type="curve" smooth="yes"/>
      <point x="67.75" y="-406.25"/>
      <point x="48.875" y="-385.5"/>
      <point x="48.875" y="-344.75" type="curve" smooth="yes"/>
      <point x="48.875" y="-317.25"/>
      <point x="52.875" y="-293.25"/>
      <point x="61.37499999999999" y="-253.5" type="curve" smooth="yes"/>
      <point x="300.375" y="862.5" type="line" smooth="yes"/>
      <point x="308.375" y="905.75"/>
      <point x="315.125" y="944.0"/>
      <point x="315.125" y="975.125" type="curve" smooth="yes"/>
      <point x="315.125" y="1059.0"/>
      <point x="272.75" y="1105.5"/>
      <point x="188.375" y="1105.5" type="curve" smooth="yes"/>
      <point x="150.875" y="1105.5"/>
      <point x="113.625" y="1096.0"/>
      <point x="86.25" y="1083.75" type="curve"/>
      <point x="86.25" y="1003.5" type="line"/>
      <point x="111.625" y="1013.375"/>
      <point x="138.875" y="1020.75"/>
      <point x="165.5" y="1020.75" type="curve" smooth="yes"/>
      <point x="202.75" y="1020.75"/>
      <point x="222.0" y="999.75"/>
      <point x="222.0" y="959.375" type="curve" smooth="yes"/>
      <point x="222.0" y="931.875"/>
      <point x="218.0" y="907.5"/>
      <point x="208.75" y="868.125" type="curve" smooth="yes"/>
      <point x="-29.125000000000007" y="-249.0" type="line" smooth="yes"/>
      <point x="-37.87500000000001" y="-290.875"/>
      <point x="-44.25000000000001" y="-329.375"/>
      <point x="-44.25000000000001" y="-361.625" type="curve" smooth="yes"/>
      <point x="-44.25000000000001" y="-444.375"/>
      <point x="-0.8750000000000036" y="-492.0"/>
    </contour>
  </outline>
</glyph>
<glyph name="eshcurl" format="2">
  <advance width="352.125"/>
  <unicode hex="0286"/>
  <anchor x="-43.25" y="-492.0" name="bottom"/>
  <anchor x="394.625" y="1565.75" name="top"/>
  <outline>
    <contour>
      <point x="-156.375" y="-492.0" type="curve" smooth="yes"/>
      <point x="-28.375000000000004" y="-492.0"/>
      <point x="18.875" y="-401.625"/>
      <point x="56.125" y="-239.625" type="curve"/>
      <point x="179.625" y="-239.625" type="line"/>
      <point x="195.75" y="-167.25" type="line"/>
      <point x="71.0" y="-167.25" type="line"/>
      <point x="383.75" y="1292.125" type="line" smooth="yes"/>
      <point x="413.75" y="1433.25"/>
      <point x="448.5" y="1480.75"/>
      <point x="533.5" y="1480.75" type="curve" smooth="yes"/>
      <point x="560.0" y="1480.75"/>
      <point x="590.25" y="1474.75"/>
      <point x="610.375" y="1465.75" type="curve"/>
      <point x="610.375" y="1549.5" type="line"/>
      <point x="588.75" y="1560.25"/>
      <point x="559.25" y="1565.75"/>
      <point x="524.875" y="1565.75" type="curve" smooth="yes"/>
      <point x="385.25" y="1565.75"/>
      <point x="332.25" y="1481.125"/>
      <point x="293.0" y="1303.125" type="curve" smooth="yes"/>
      <point x="-20.625000000000004" y="-167.25" type="line"/>
      <point x="-73.375" y="-167.25" type="line" smooth="yes"/>
      <point x="-227.75" y="-167.25"/>
      <point x="-298.25" y="-238.75"/>
      <point x="-298.25" y="-354.875" type="curve" smooth="yes"/>
      <point x="-298.25" y="-441.5"/>
      <point x="-240.25" y="-492.0"/>
    </contour>
    <contour>
      <point x="-154.375" y="-418.625" type="curve" smooth="yes"/>
      <point x="-193.375" y="-418.625"/>
      <point x="-219.0" y="-398.125"/>
      <point x="-219.0" y="-350.125" type="curve" smooth="yes"/>
      <point x="-219.0" y="-279.625"/>
      <point x="-180.375" y="-239.625"/>
      <point x="-84.0" y="-239.625" type="curve" smooth="yes"/>
      <point x="-35.5" y="-239.625" type="line"/>
      <point x="-62.625" y="-362.125"/>
      <point x="-83.5" y="-418.625"/>
    </contour>
  </outline>
</glyph>
<glyph name="uni028B" format="2">
  <advance width="780.125"/>
  <unicode hex="028B"/>
  <anchor x="276.375" y="0.0" name="bottom"/>
  <anchor x="505.75" y="1079.25" name="top"/>
  <outline>
    <contour>
      <point x="286.5" y="-20.0" type="curve" smooth="yes"/>
      <point x="480.375" y="-20.0"/>
      <point x="549.625" y="113.125"/>
      <point x="598.875" y="345.125" type="curve" smooth="yes"/>
      <point x="710.0" y="856.625" type="line" smooth="yes"/>
      <point x="719.875" y="900.0"/>
      <point x="725.125" y="936.0"/>
      <point x="725.125" y="968.5" type="curve" smooth="yes"/>
      <point x="725.125" y="1054.5"/>
      <point x="673.0" y="1105.5"/>
      <point x="587.5" y="1105.5" type="curve" smooth="yes"/>
      <point x="542.75" y="1105.5"/>
      <point x="505.5" y="1094.375"/>
      <point x="483.625" y="1086.375" type="curve"/>
      <point x="485.875" y="1004.625" type="line"/>
      <point x="504.375" y="1015.125"/>
      <point x="533.125" y="1023.0"/>
      <point x="562.375" y="1023.0" type="curve" smooth="yes"/>
      <point x="603.75" y="1023.0"/>
      <point x="631.25" y="996.125"/>
      <point x="631.25" y="950.625" type="curve" smooth="yes"/>
      <point x="631.25" y="919.125"/>
      <point x="624.0" y="888.125"/>
      <point x="618.125" y="858.5" type="curve" smooth="yes"/>
      <point x="505.75" y="341.875" type="line" smooth="yes"/>
      <point x="463.75" y="148.75"/>
      <point x="414.625" y="63.25"/>
      <point x="292.75" y="63.25" type="curve" smooth="yes"/>
      <point x="205.75" y="63.25"/>
      <point x="157.25" y="114.5"/>
      <point x="157.25" y="213.625" type="curve" smooth="yes"/>
      <point x="157.25" y="264.625"/>
      <point x="164.5" y="314.625"/>
      <point x="174.875" y="362.875" type="curve" smooth="yes"/>
      <point x="325.75" y="1084.875" type="line"/>
      <point x="233.375" y="1084.875" type="line"/>
      <point x="84.0" y="374.75" type="line" smooth="yes"/>
      <point x="70.0" y="306.125"/>
      <point x="63.0" y="253.625"/>
      <point x="63.0" y="208.0" type="curve" smooth="yes"/>
      <point x="63.0" y="61.125"/>
      <point x="137.75" y="-20.0"/>
    </contour>
  </outline>
</glyph>
<glyph name="uni0290" format="2">
  <advance width="511.875"/>
  <unicode hex="0290"/>
  <anchor x="57.375" y="-400.625" name="bottom"/>
  <anchor x="371.0" y="1079.25" name="top"/>
  <outline>
    <contour>
      <point x="347.875" y="-400.625" type="curve" smooth="yes"/>
      <point x="385.0" y="-400.625"/>
      <point x="417.5" y="-393.125"/>
      <point x="438.875" y="-386.0" type="curve"/>
      <point x="438.875" y="-303.5" type="line"/>
      <point x="418.375" y="-312.25"/>
      <point x="394.375" y="-317.375"/>
      <point x="367.5" y="-317.375" type="curve" smooth="yes"/>
      <point x="329.125" y="-317.375"/>
      <point x="304.625" y="-297.875"/>
      <point x="304.625" y="-252.875" type="curve" smooth="yes"/>
      <point x="304.625" y="-225.625"/>
      <point x="310.625" y="-191.375"/>
      <point x="321.0" y="-148.125" type="curve" smooth="yes"/>
      <point x="371.625" y="83.25" type="line"/>
      <point x="49.375" y="83.25" type="line"/>
      <point x="559.75" y="1011.875" type="line"/>
      <point x="576.0" y="1084.875" type="line"/>
      <point x="185.5" y="1084.875" type="line"/>
      <point x="168.75" y="1002.375" type="line"/>
      <point x="457.875" y="1002.375" type="line"/>
      <point x="-54.75" y="70.375" type="line"/>
      <point x="-70.25" y="0.0" type="line"/>
      <point x="259.5" y="0.0" type="line"/>
      <point x="229.125" y="-145.875" type="line" smooth="yes"/>
      <point x="216.75" y="-199.625"/>
      <point x="210.75" y="-238.625"/>
      <point x="210.75" y="-270.0" type="curve" smooth="yes"/>
      <point x="210.75" y="-351.5"/>
      <point x="260.875" y="-400.625"/>
    </contour>
  </outline>
</glyph>
<glyph name="uni0299" format="2">
  <advance width="678.375"/>
  <unicode hex="0299"/>
  <anchor x="285.375" y="0.0" name="bottom"/>
  <anchor x="516.875" y="1084.875" name="top"/>
  <outline>
    <contour>
      <point x="4.25" y="0.0" type="line"/>
      <point x="215.0" y="0.0" type="line" smooth="yes"/>
      <point x="426.75" y="0.0"/>
      <point x="550.375" y="159.0"/>
      <point x="550.375" y="368.75" type="curve" smooth="yes"/>
      <point x="550.375" y="461.0"/>
      <point x="510.625" y="538.75"/>
      <point x="422.375" y="564.25" type="curve"/>
      <point x="422.375" y="569.375" type="line"/>
      <point x="570.625" y="604.75"/>
      <point x="637.125" y="746.875"/>
      <point x="637.125" y="883.5" type="curve" smooth="yes"/>
      <point x="637.125" y="1011.625"/>
      <point x="544.75" y="1085.125"/>
      <point x="414.5" y="1085.125" type="curve" smooth="yes"/>
      <point x="234.125" y="1085.125" type="line"/>
    </contour>
    <contour>
      <point x="114.0" y="81.75" type="line"/>
      <point x="208.5" y="528.875" type="line"/>
      <point x="304.5" y="528.875" type="line" smooth="yes"/>
      <point x="396.625" y="528.875"/>
      <point x="454.625" y="478.75"/>
      <point x="454.625" y="366.375" type="curve" smooth="yes"/>
      <point x="454.625" y="215.125"/>
      <point x="389.375" y="81.75"/>
      <point x="215.75" y="81.75" type="curve" smooth="yes"/>
    </contour>
    <contour>
      <point x="224.125" y="608.375" type="line"/>
      <point x="307.0" y="1003.375" type="line"/>
      <point x="395.125" y="1003.375" type="line" smooth="yes"/>
      <point x="494.625" y="1003.375"/>
      <point x="539.875" y="958.875"/>
      <point x="539.875" y="865.25" type="curve" smooth="yes"/>
      <point x="539.875" y="731.25"/>
      <point x="467.5" y="608.375"/>
      <point x="318.5" y="608.375" type="curve" smooth="yes"/>
    </contour>
  </outline>
</glyph>
<glyph name="dzligcurl" format="2">
  <advance width="1250.875"/>
  <unicode hex="02A5"/>
  <anchor x="511.125" y="0.0" name="bottom"/>
  <anchor x="841.75" y="1556.0" name="top"/>
  <outline>
    <contour>
      <point x="704.5" y="-266.75" type="line"/>
      <point x="744.25" y="-153.0"/>
      <point x="771.5" y="-72.0"/>
      <point x="803.125" y="0.0" type="curve"/>
      <point x="959.25" y="0.0" type="line" smooth="yes"/>
      <point x="1090.875" y="0.0"/>
      <point x="1196.0" y="52.625"/>
      <point x="1196.0" y="192.625" type="curve" smooth="yes"/>
      <point x="1196.75" y="277.5"/>
      <point x="1138.625" y="343.875"/>
      <point x="1035.0" y="343.875" type="curve" smooth="yes"/>
      <point x="922.0" y="343.875"/>
      <point x="841.375" y="262.625"/>
      <point x="759.875" y="83.25" type="curve"/>
      <point x="675.875" y="83.25" type="line"/>
      <point x="1187.375" y="1011.875" type="line"/>
      <point x="1201.875" y="1084.875" type="line"/>
      <point x="795.0" y="1084.875" type="line"/>
      <point x="893.5" y="1556.0" type="line"/>
      <point x="801.5" y="1556.0" type="line"/>
      <point x="715.75" y="1152.0" type="line" smooth="yes"/>
      <point x="700.625" y="1083.625"/>
      <point x="687.0" y="1007.375"/>
      <point x="675.0" y="940.875" type="curve"/>
      <point x="669.0" y="940.875" type="line"/>
      <point x="651.0" y="1037.375"/>
      <point x="590.0" y="1105.5"/>
      <point x="487.5" y="1105.5" type="curve" smooth="yes"/>
      <point x="198.625" y="1105.5"/>
      <point x="55.25" y="596.0"/>
      <point x="55.25" y="283.75" type="curve" smooth="yes"/>
      <point x="55.25" y="86.75"/>
      <point x="128.75" y="-20.0"/>
      <point x="258.75" y="-20.0" type="curve" smooth="yes"/>
      <point x="369.375" y="-20.0"/>
      <point x="443.875" y="53.5"/>
      <point x="511.75" y="175.75" type="curve"/>
      <point x="515.75" y="175.75" type="line"/>
      <point x="490.625" y="0.0" type="line"/>
      <point x="724.125" y="0.0" type="line"/>
      <point x="692.625" y="-71.75"/>
      <point x="664.625" y="-155.125"/>
      <point x="632.875" y="-247.25" type="curve"/>
    </contour>
    <contour>
      <point x="283.125" y="63.25" type="curve" smooth="yes"/>
      <point x="202.25" y="63.25"/>
      <point x="151.75" y="130.25"/>
      <point x="151.75" y="289.25" type="curve" smooth="yes"/>
      <point x="151.75" y="555.375"/>
      <point x="273.875" y="1020.75"/>
      <point x="495.625" y="1020.75" type="curve" smooth="yes"/>
      <point x="581.75" y="1020.75"/>
      <point x="628.75" y="951.375"/>
      <point x="628.75" y="839.625" type="curve" smooth="yes"/>
      <point x="628.75" y="676.5"/>
      <point x="535.0" y="63.25"/>
    </contour>
    <contour>
      <point x="837.625" y="83.25" type="line"/>
      <point x="899.25" y="212.25"/>
      <point x="957.125" y="271.875"/>
      <point x="1029.5" y="271.875" type="curve" smooth="yes"/>
      <point x="1083.25" y="271.875"/>
      <point x="1117.25" y="237.625"/>
      <point x="1117.25" y="189.125" type="curve" smooth="yes"/>
      <point x="1117.25" y="104.25"/>
      <point x="1050.5" y="83.25"/>
      <point x="969.375" y="83.25" type="curve" smooth="yes"/>
    </contour>
    <contour>
      <point x="584.5" y="94.375" type="line"/>
      <point x="775.25" y="1002.375" type="line"/>
      <point x="1084.375" y="1002.375" type="line"/>
    </contour>
  </outline>
</glyph>
<glyph name="uni02A7" format="2">
  <advance width="639.875"/>
  <unicode hex="02A7"/>
  <anchor x="100.625" y="-492.0" name="bottom"/>
  <anchor x="539.25" y="1565.75" name="top"/>
  <outline>
    <contour>
      <point x="94.75" y="-492.0" type="curve" smooth="yes"/>
      <point x="263.625" y="-492.0"/>
      <point x="311.5" y="-366.375"/>
      <point x="355.25" y="-160.875" type="curve" smooth="yes"/>
      <point x="665.5" y="1292.125" type="line" smooth="yes"/>
      <point x="695.625" y="1433.25"/>
      <point x="730.375" y="1480.75"/>
      <point x="815.375" y="1480.75" type="curve" smooth="yes"/>
      <point x="842.875" y="1480.75"/>
      <point x="872.75" y="1474.75"/>
      <point x="892.875" y="1465.75" type="curve"/>
      <point x="892.875" y="1549.5" type="line"/>
      <point x="871.25" y="1560.25"/>
      <point x="841.75" y="1565.75"/>
      <point x="806.0" y="1565.75" type="curve" smooth="yes"/>
      <point x="667.5" y="1565.75"/>
      <point x="614.125" y="1481.125"/>
      <point x="575.5" y="1303.125" type="curve" smooth="yes"/>
      <point x="529.125" y="1084.875" type="line"/>
      <point x="321.75" y="1084.875" type="line"/>
      <point x="376.0" y="1343.625" type="line"/>
      <point x="306.375" y="1343.625" type="line"/>
      <point x="230.875" y="1085.375" type="line"/>
      <point x="128.25" y="1065.5" type="line"/>
      <point x="115.25" y="1002.375" type="line"/>
      <point x="212.0" y="1002.375" type="line"/>
      <point x="59.875" y="292.75" type="line" smooth="yes"/>
      <point x="46.25" y="230.125"/>
      <point x="37.75" y="171.125"/>
      <point x="37.75" y="129.625" type="curve" smooth="yes"/>
      <point x="37.75" y="34.0"/>
      <point x="85.75" y="-20.0"/>
      <point x="185.375" y="-20.0" type="curve" smooth="yes"/>
      <point x="223.375" y="-20.0"/>
      <point x="262.875" y="-14.0"/>
      <point x="296.625" y="-2.5" type="curve"/>
      <point x="264.375" y="-154.75" type="line" smooth="yes"/>
      <point x="226.125" y="-329.875"/>
      <point x="193.5" y="-406.25"/>
      <point x="88.0" y="-406.25" type="curve" smooth="yes"/>
      <point x="57.75" y="-406.25"/>
      <point x="32.75" y="-401.5"/>
      <point x="11.625" y="-393.5" type="curve"/>
      <point x="11.625" y="-480.75" type="line"/>
      <point x="32.0" y="-487.0"/>
      <point x="60.75" y="-492.0"/>
    </contour>
    <contour>
      <point x="211.375" y="64.75" type="curve" smooth="yes"/>
      <point x="150.625" y="64.75"/>
      <point x="130.125" y="91.75"/>
      <point x="130.125" y="143.125" type="curve" smooth="yes"/>
      <point x="130.125" y="176.375"/>
      <point x="138.625" y="226.125"/>
      <point x="151.0" y="286.5" type="curve" smooth="yes"/>
      <point x="303.25" y="1002.375" type="line"/>
      <point x="510.0" y="1002.375" type="line"/>
      <point x="314.125" y="82.75" type="line"/>
      <point x="284.5" y="73.25"/>
      <point x="245.75" y="64.75"/>
    </contour>
  </outline>
</glyph>
<glyph name="uni02A9" format="2">
  <advance width="1054.375"/>
  <unicode hex="02A9"/>
  <anchor x="307.875" y="-492.0" name="bottom"/>
  <anchor x="745.75" y="1567.0" name="top"/>
  <outline>
    <contour>
      <point x="-173.875" y="-492.0" type="curve" smooth="yes"/>
      <point x="-13.750000000000005" y="-492.0"/>
      <point x="35.5" y="-353.625"/>
      <point x="72.25" y="-183.75" type="curve" smooth="yes"/>
      <point x="327.0" y="1002.375" type="line"/>
      <point x="501.75" y="1002.375" type="line"/>
      <point x="289.25" y="0.0" type="line"/>
      <point x="381.625" y="0.0" type="line"/>
      <point x="506.625" y="588.75" type="line" smooth="yes"/>
      <point x="566.5" y="872.375"/>
      <point x="650.0" y="1019.25"/>
      <point x="790.625" y="1019.25" type="curve" smooth="yes"/>
      <point x="859.375" y="1019.25"/>
      <point x="900.375" y="981.75"/>
      <point x="900.375" y="908.875" type="curve" smooth="yes"/>
      <point x="900.375" y="844.875"/>
      <point x="882.25" y="764.25"/>
      <point x="866.375" y="689.5" type="curve" smooth="yes"/>
      <point x="689.25" y="-143.875" type="line" smooth="yes"/>
      <point x="645.875" y="-349.5"/>
      <point x="609.875" y="-407.75"/>
      <point x="518.25" y="-407.75" type="curve" smooth="yes"/>
      <point x="488.75" y="-407.75"/>
      <point x="467.5" y="-403.0"/>
      <point x="446.75" y="-394.25" type="curve"/>
      <point x="446.75" y="-480.0" type="line"/>
      <point x="465.625" y="-485.5"/>
      <point x="495.5" y="-492.0"/>
      <point x="530.25" y="-492.0" type="curve" smooth="yes"/>
      <point x="676.625" y="-492.0"/>
      <point x="727.125" y="-398.625"/>
      <point x="778.5" y="-160.375" type="curve" smooth="yes"/>
      <point x="958.375" y="685.625" type="line" smooth="yes"/>
      <point x="975.625" y="764.75"/>
      <point x="994.5" y="862.75"/>
      <point x="994.5" y="924.125" type="curve" smooth="yes"/>
      <point x="994.5" y="1046.875"/>
      <point x="921.25" y="1105.5"/>
      <point x="816.75" y="1105.5" type="curve" smooth="yes"/>
      <point x="712.0" y="1105.5"/>
      <point x="624.25" y="1040.875"/>
      <point x="572.75" y="930.0" type="curve"/>
      <point x="568.75" y="930.0" type="line"/>
      <point x="593.0" y="1084.875" type="line"/>
      <point x="344.125" y="1084.875" type="line"/>
      <point x="380.5" y="1256.25" type="line" smooth="yes"/>
      <point x="412.75" y="1402.0"/>
      <point x="445.875" y="1482.625"/>
      <point x="535.125" y="1482.625" type="curve" smooth="yes"/>
      <point x="564.625" y="1482.625"/>
      <point x="594.875" y="1474.75"/>
      <point x="617.125" y="1463.25" type="curve"/>
      <point x="652.125" y="1541.5" type="line"/>
      <point x="624.75" y="1554.75"/>
      <point x="577.625" y="1567.0"/>
      <point x="537.125" y="1567.0" type="curve" smooth="yes"/>
      <point x="389.5" y="1567.0"/>
      <point x="334.625" y="1464.875"/>
      <point x="291.375" y="1267.75" type="curve" smooth="yes"/>
      <point x="251.0" y="1086.875" type="line"/>
      <point x="124.5" y="1061.0" type="line"/>
      <point x="113.125" y="1002.375" type="line"/>
      <point x="233.875" y="1002.375" type="line"/>
      <point x="-18.875" y="-175.5" type="line" smooth="yes"/>
      <point x="-48.75" y="-315.25"/>
      <point x="-78.5" y="-406.25"/>
      <point x="-180.25" y="-406.25" type="curve" smooth="yes"/>
      <point x="-215.0" y="-406.25"/>
      <point x="-238.875" y="-401.5"/>
      <point x="-262.0" y="-393.5" type="curve"/>
      <point x="-262.0" y="-478.25" type="line"/>
      <point x="-239.625" y="-485.75"/>
      <point x="-211.625" y="-492.0"/>
    </contour>
  </outline>
</glyph>
<glyph name="uni02AA" format="2">
  <advance width="856.0"/>
  <unicode hex="02AA"/>
  <anchor x="314.5" y="0.0" name="bottom"/>
  <anchor x="644.75" y="1556.0" name="top"/>
  <outline>
    <contour>
      <point x="398.875" y="-20.0" type="curve" smooth="yes"/>
      <point x="603.75" y="-20.0"/>
      <point x="728.375" y="100.625"/>
      <point x="728.375" y="291.375" type="curve" smooth="yes"/>
      <point x="728.375" y="422.5"/>
      <point x="677.125" y="484.625"/>
      <point x="578.75" y="598.875" type="curve" smooth="yes"/>
      <point x="503.75" y="684.625"/>
      <point x="472.375" y="745.375"/>
      <point x="472.375" y="833.375" type="curve" smooth="yes"/>
      <point x="472.375" y="947.625"/>
      <point x="543.25" y="1023.0"/>
      <point x="657.875" y="1023.0" type="curve" smooth="yes"/>
      <point x="733.625" y="1023.0"/>
      <point x="789.125" y="996.625"/>
      <point x="830.5" y="965.625" type="curve"/>
      <point x="877.0" y="1042.625" type="line"/>
      <point x="828.0" y="1075.625"/>
      <point x="758.875" y="1105.5"/>
      <point x="658.875" y="1105.5" type="curve" smooth="yes"/>
      <point x="482.375" y="1105.5"/>
      <point x="377.25" y="981.0"/>
      <point x="377.25" y="822.0" type="curve" smooth="yes"/>
      <point x="377.25" y="699.375"/>
      <point x="432.375" y="620.125"/>
      <point x="508.0" y="533.875" type="curve" smooth="yes"/>
      <point x="596.25" y="431.0"/>
      <point x="631.75" y="377.75"/>
      <point x="631.75" y="284.125" type="curve" smooth="yes"/>
      <point x="631.75" y="147.875"/>
      <point x="551.0" y="64.75"/>
      <point x="399.625" y="64.75" type="curve" smooth="yes"/>
      <point x="292.125" y="64.75"/>
      <point x="204.625" y="100.25"/>
      <point x="131.125" y="146.25" type="curve"/>
      <point x="430.25" y="1556.0" type="line"/>
      <point x="338.25" y="1556.0" type="line"/>
      <point x="6.25" y="0.0" type="line"/>
      <point x="98.625" y="0.0" type="line"/>
      <point x="112.0" y="58.0" type="line"/>
      <point x="180.875" y="16.75"/>
      <point x="275.375" y="-20.0"/>
    </contour>
  </outline>
</glyph>
<glyph name="uni02AB" format="2">
  <advance width="671.875"/>
  <unicode hex="02AB"/>
  <anchor x="118.375" y="0.0" name="bottom"/>
  <anchor x="449.625" y="1556.0" name="top"/>
  <outline>
    <contour>
      <point x="6.25" y="0.0" type="line"/>
      <point x="513.875" y="0.0" type="line"/>
      <point x="531.625" y="83.25" type="line"/>
      <point x="209.375" y="83.25" type="line"/>
      <point x="720.875" y="1011.875" type="line"/>
      <point x="736.0" y="1084.875" type="line"/>
      <point x="329.75" y="1084.875" type="line"/>
      <point x="430.25" y="1556.0" type="line"/>
      <point x="338.25" y="1556.0" type="line"/>
    </contour>
    <contour>
      <point x="118.0" y="94.375" type="line"/>
      <point x="312.625" y="1002.375" type="line"/>
      <point x="617.875" y="1002.375" type="line"/>
    </contour>
  </outline>
</glyph>
<glyph name="caron" format="2">
  <advance width="599.0"/>
  <unicode hex="02C7"/>
  <outline>
    <contour>
      <point x="411.75" y="1241.0" type="curve"/>
      <point x="491.5" y="1241.0" type="line"/>
      <point x="544.0" y="1335.125"/>
      <point x="660.75" y="1477.25"/>
      <point x="731.625" y="1550.5" type="curve"/>
      <point x="734.375" y="1569.0" type="line"/>
      <point x="687.0" y="1569.0" type="line"/>
      <point x="607.375" y="1503.875"/>
      <point x="531.75" y="1421.625"/>
      <point x="467.75" y="1342.375" type="curve"/>
      <point x="431.375" y="1430.875"/>
      <point x="382.25" y="1514.375"/>
      <point x="347.125" y="1569.0" type="curve"/>
      <point x="300.25" y="1569.0" type="line"/>
      <point x="297.5" y="1550.5" type="line"/>
      <point x="332.5" y="1485.25"/>
      <point x="394.0" y="1319.75"/>
    </contour>
  </outline>
</glyph>
<glyph name="macron" format="2">
  <advance width="621.875"/>
  <unicode hex="02C9"/>
  <outline>
    <contour>
      <point x="232.25" y="1251.5" type="line"/>
      <point x="689.125" y="1251.5" type="line"/>
      <point x="706.75" y="1330.125" type="line"/>
      <point x="248.5" y="1330.125" type="line"/>
    </contour>
  </outline>
</glyph>
<glyph name="uni02D7" format="2">
  <advance width="518.25"/>
  <unicode hex="02D7"/>
  <outline>
    <contour>
      <point x="123.75" y="656.75" type="line"/>
      <point x="107.125" y="572.125" type="line"/>
      <point x="425.75" y="572.125" type="line"/>
      <point x="441.625" y="656.75" type="line"/>
    </contour>
  </outline>
</glyph>
<glyph name="ogonek" format="2">
  <advance width="429.625"/>
  <unicode hex="02DB"/>
  <outline>
    <contour>
      <point x="52.0" y="-447.125" type="curve" smooth="yes"/>
      <point x="89.25" y="-447.125"/>
      <point x="116.125" y="-440.625"/>
      <point x="140.375" y="-431.25" type="curve"/>
      <point x="154.375" y="-359.375" type="line"/>
      <point x="130.125" y="-365.375"/>
      <point x="103.125" y="-371.375"/>
      <point x="78.75" y="-371.375" type="curve" smooth="yes"/>
      <point x="23.249999999999993" y="-371.375"/>
      <point x="-4.750000000000006" y="-342.625"/>
      <point x="-4.750000000000006" y="-288.875" type="curve" smooth="yes"/>
      <point x="-6.000000000000007" y="-197.375"/>
      <point x="45.5" y="-120.375"/>
      <point x="190.125" y="0.0" type="curve"/>
      <point x="116.0" y="0.0" type="line"/>
      <point x="-39.75" y="-115.875"/>
      <point x="-92.75" y="-203.25"/>
      <point x="-92.75" y="-308.5" type="curve" smooth="yes"/>
      <point x="-92.75" y="-389.5"/>
      <point x="-41.75" y="-447.125"/>
    </contour>
  </outline>
</glyph>
<glyph name="uni02F0" format="2">
  <advance width="572.125"/>
  <unicode hex="02F0"/>
  <outline>
    <contour>
      <point x="-126.0" y="-435.375" type="line"/>
      <point x="-50.75" y="-435.375" type="line"/>
      <point x="139.125" y="-161.0" type="line"/>
      <point x="215.5" y="-435.375" type="line"/>
      <point x="282.125" y="-435.375" type="line"/>
      <point x="177.375" y="-67.875" type="line"/>
      <point x="133.25" y="-67.875" type="line"/>
    </contour>
  </outline>
</glyph>
<glyph name="uni02F1" format="2">
  <advance width="470.625"/>
  <unicode hex="02F1"/>
  <outline>
    <contour>
      <point x="177.375" y="-445.125" type="line"/>
      <point x="193.625" y="-365.125" type="line"/>
      <point x="1.7499999999999964" y="-225.75" type="line"/>
      <point x="250.25" y="-88.25" type="line"/>
      <point x="272.375" y="0.75" type="line"/>
      <point x="-74.75" y="-193.625" type="line"/>
      <point x="-86.25" y="-251.0" type="line"/>
    </contour>
  </outline>
</glyph>
<glyph name="uni02F2" format="2">
  <advance width="474.125"/>
  <unicode hex="02F2"/>
  <outline>
    <contour>
      <point x="-127.25" y="-445.125" type="line"/>
      <point x="222.625" y="-251.0" type="line"/>
      <point x="234.125" y="-193.625" type="line"/>
      <point x="-30.25" y="0.7499999999999964" type="line"/>
      <point x="-46.5" y="-77.5" type="line"/>
      <point x="144.875" y="-216.25" type="line"/>
      <point x="-104.0" y="-353.75" type="line"/>
    </contour>
  </outline>
</glyph>
<glyph name="uni02FC" format="2">
  <advance width="608.0"/>
  <unicode hex="02FC"/>
  <outline>
    <contour>
      <point x="-10.75" y="0.0" type="line"/>
      <point x="411.25" y="0.0" type="line"/>
      <point x="411.25" y="463.0" type="line"/>
      <point x="302.25" y="463.0" type="line"/>
      <point x="302.25" y="109.0" type="line"/>
      <point x="-10.75" y="109.0" type="line"/>
    </contour>
  </outline>
</glyph>
<glyph name="dblverticallineabovecomb" format="2">
  <unicode hex="030E"/>
  <anchor x="117.0" y="1079.25" name="_top"/>
  <anchor x="133.75" y="1546.0" name="top"/>
  <outline>
    <contour>
      <point x="229.25" y="1221.0" type="line"/>
      <point x="311.375" y="1221.0" type="line"/>
      <point x="384.75" y="1557.625" type="line"/>
      <point x="304.0" y="1557.625" type="line"/>
    </contour>
    <contour>
      <point x="-17.875" y="1221.0" type="line"/>
      <point x="63.625" y="1221.0" type="line"/>
      <point x="137.25" y="1557.625" type="line"/>
      <point x="56.5" y="1557.625" type="line"/>
    </contour>
  </outline>
</glyph>
<glyph name="dblgravecomb" format="2">
  <unicode hex="030F"/>
  <anchor x="-589.125" y="1079.25" name="_top"/>
  <anchor x="-490.125" y="1564.5" name="top"/>
  <outline>
    <contour>
      <point x="-343.125" y="1241.0" type="curve"/>
      <point x="-299.25" y="1241.0" type="line"/>
      <point x="-297.375" y="1259.625" type="line"/>
      <point x="-345.625" y="1355.75"/>
      <point x="-380.875" y="1454.5"/>
      <point x="-418.375" y="1564.5" type="curve"/>
      <point x="-507.875" y="1564.5" type="line"/>
      <point x="-508.625" y="1548.75" type="line"/>
      <point x="-473.25" y="1449.25"/>
      <point x="-403.125" y="1321.25"/>
    </contour>
    <contour>
      <point x="-580.625" y="1241.0" type="curve"/>
      <point x="-534.875" y="1241.0" type="line"/>
      <point x="-532.625" y="1259.625" type="line"/>
      <point x="-580.875" y="1349.75"/>
      <point x="-618.0" y="1458.625"/>
      <point x="-654.0" y="1564.5" type="curve"/>
      <point x="-743.875" y="1564.5" type="line"/>
      <point x="-744.625" y="1548.75" type="line"/>
      <point x="-709.625" y="1450.0"/>
      <point x="-638.0" y="1319.75"/>
    </contour>
  </outline>
</glyph>
<glyph name="lefttackbelowcomb" format="2">
  <unicode hex="0318"/>
  <anchor x="-100.0" y="0.0" name="_bottom"/>
  <anchor x="-187.375" y="-430.25" name="bottom"/>
  <outline>
    <contour>
      <point x="-176.0" y="-430.25" type="line"/>
      <point x="-90.75" y="-430.25" type="line"/>
      <point x="-17.875" y="-73.75" type="line"/>
      <point x="-102.5" y="-73.75" type="line"/>
      <point x="-131.5" y="-208.75" type="line"/>
      <point x="-273.625" y="-208.75" type="line"/>
      <point x="-291.0" y="-295.25" type="line"/>
      <point x="-147.0" y="-295.25" type="line"/>
    </contour>
  </outline>
</glyph>
<glyph name="horncomb" format="2">
  <unicode hex="031B"/>
  <anchor x="175.5" y="1221.125" name="_topright"/>
  <outline>
    <contour>
      <point x="-3.1249999999999982" y="1144.625" type="line"/>
      <point x="189.125" y="1179.625"/>
      <point x="285.5" y="1307.875"/>
      <point x="341.375" y="1532.0" type="curve"/>
      <point x="334.375" y="1554.0" type="line"/>
      <point x="247.875" y="1554.0" type="line"/>
      <point x="203.125" y="1343.375"/>
      <point x="130.875" y="1242.75"/>
      <point x="11.875000000000002" y="1221.125" type="curve"/>
    </contour>
  </outline>
</glyph>
<glyph name="dotbelowcomb" format="2">
  <unicode hex="0323"/>
  <anchor x="-574.875" y="0.0" name="_bottom"/>
  <anchor x="-637.25" y="-317.625" name="bottom"/>
  <outline>
    <contour>
      <point x="-637.0" y="-316.875" type="curve" smooth="yes"/>
      <point x="-584.75" y="-316.875"/>
      <point x="-556.75" y="-257.375"/>
      <point x="-556.75" y="-206.25" type="curve" smooth="yes"/>
      <point x="-556.75" y="-163.75"/>
      <point x="-575.875" y="-143.625"/>
      <point x="-609.875" y="-143.625" type="curve" smooth="yes"/>
      <point x="-662.875" y="-143.625"/>
      <point x="-690.125" y="-203.0"/>
      <point x="-690.125" y="-254.75" type="curve" smooth="yes"/>
      <point x="-690.125" y="-293.75"/>
      <point x="-671.0" y="-316.875"/>
    </contour>
  </outline>
</glyph>
<glyph name="commaaccentcomb" format="2">
  <unicode hex="0326"/>
  <anchor x="403.25" y="0.0" name="_bottom"/>
  <anchor x="308.0" y="-453.0" name="bottom"/>
  <outline>
    <contour>
      <point x="216.25000000000003" y="-453.0" type="line"/>
      <point x="264.0" y="-453.0" type="line"/>
      <point x="337.375" y="-381.75"/>
      <point x="441.875" y="-232.25"/>
      <point x="474.0" y="-146.25" type="curve"/>
      <point x="474.0" y="-125.0" type="line"/>
      <point x="382.375" y="-125.0" type="line"/>
      <point x="353.5" y="-214.75"/>
      <point x="268.75" y="-362.875"/>
      <point x="216.25000000000003" y="-422.75" type="curve"/>
    </contour>
  </outline>
</glyph>
<glyph name="dblarchinvertedbelowcomb" format="2">
  <unicode hex="032B"/>
  <anchor x="-97.25" y="0.0" name="_bottom"/>
  <anchor x="-167.0" y="-344.25" name="bottom"/>
  <outline>
    <contour>
      <point x="-292.25" y="-344.25" type="curve" smooth="yes"/>
      <point x="-231.125" y="-344.25"/>
      <point x="-198.0" y="-313.875"/>
      <point x="-169.5" y="-253.25" type="curve"/>
      <point x="-160.0" y="-309.5"/>
      <point x="-120.0" y="-344.25"/>
      <point x="-67.875" y="-344.25" type="curve" smooth="yes"/>
      <point x="7.375000000000002" y="-344.25"/>
      <point x="73.375" y="-298.25"/>
      <point x="108.875" y="-125.0" type="curve"/>
      <point x="31.75" y="-125.0" type="line"/>
      <point x="13.125000000000002" y="-217.0"/>
      <point x="-19.375" y="-260.0"/>
      <point x="-63.875" y="-260.0" type="curve" smooth="yes"/>
      <point x="-99.75" y="-260.0"/>
      <point x="-114.25" y="-242.5"/>
      <point x="-114.25" y="-201.25" type="curve" smooth="yes"/>
      <point x="-114.25" y="-179.75"/>
      <point x="-110.25" y="-156.5"/>
      <point x="-102.0" y="-125.0" type="curve"/>
      <point x="-180.75" y="-125.0" type="line"/>
      <point x="-199.75" y="-217.0"/>
      <point x="-232.375" y="-260.0"/>
      <point x="-278.125" y="-260.0" type="curve" smooth="yes"/>
      <point x="-311.375" y="-260.0"/>
      <point x="-326.125" y="-242.5"/>
      <point x="-326.125" y="-200.75" type="curve" smooth="yes"/>
      <point x="-326.125" y="-180.5"/>
      <point x="-322.125" y="-156.5"/>
      <point x="-314.875" y="-125.0" type="curve"/>
      <point x="-392.625" y="-125.0" type="line"/>
      <point x="-398.625" y="-160.5"/>
      <point x="-403.875" y="-188.5"/>
      <point x="-403.875" y="-213.5" type="curve" smooth="yes"/>
      <point x="-403.875" y="-307.0"/>
      <point x="-350.625" y="-344.25"/>
    </contour>
  </outline>
</glyph>
<glyph name="strokelongoverlaycomb" format="2">
  <unicode hex="0336"/>
  <anchor x="6.0" y="569.5" name="_center"/>
  <outline>
    <contour>
      <point x="-647.0" y="529.625" type="line"/>
      <point x="642.25" y="529.625" type="line"/>
      <point x="657.375" y="609.125" type="line"/>
      <point x="-631.75" y="609.125" type="line"/>
    </contour>
  </outline>
</glyph>
<glyph name="squarebelowcomb" format="2">
  <unicode hex="033B"/>
  <anchor x="-114.25" y="0.0" name="_bottom"/>
  <anchor x="-208.25" y="-465.0" name="bottom"/>
  <outline>
    <contour>
      <point x="-513.5" y="-465.0" type="line"/>
      <point x="88.5" y="-465.0" type="line"/>
      <point x="174.5" y="-59.0" type="line"/>
      <point x="-427.5" y="-59.0" type="line"/>
    </contour>
    <contour>
      <point x="-410.5" y="-380.0" type="line"/>
      <point x="-360.0" y="-144.375" type="line"/>
      <point x="70.0" y="-144.375" type="line"/>
      <point x="19.875" y="-380.0" type="line"/>
    </contour>
  </outline>
</glyph>
<glyph name="seagullbelowcomb" format="2">
  <unicode hex="033C"/>
  <anchor x="-137.0" y="0.0" name="_bottom"/>
  <anchor x="-206.75" y="-337.25" name="bottom"/>
  <outline>
    <contour>
      <point x="-442.375" y="-337.25" type="curve"/>
      <point x="-379.25" y="-337.25" type="line"/>
      <point x="-360.625" y="-246.5"/>
      <point x="-326.75" y="-194.625"/>
      <point x="-273.375" y="-194.625" type="curve" smooth="yes"/>
      <point x="-205.0" y="-194.625"/>
      <point x="-208.0" y="-261.0"/>
      <point x="-222.75" y="-337.25" type="curve"/>
      <point x="-159.75" y="-337.25" type="line"/>
      <point x="-138.75" y="-245.25"/>
      <point x="-106.125" y="-194.625"/>
      <point x="-52.75" y="-194.625" type="curve" smooth="yes"/>
      <point x="12.250000000000002" y="-194.625"/>
      <point x="9.500000000000004" y="-261.75"/>
      <point x="-4.4999999999999964" y="-337.25" type="curve"/>
      <point x="58.625" y="-337.25" type="line"/>
      <point x="62.625" y="-304.25"/>
      <point x="66.625" y="-271.875"/>
      <point x="66.625" y="-249.5" type="curve" smooth="yes"/>
      <point x="66.625" y="-175.0"/>
      <point x="22.875000000000004" y="-132.0"/>
      <point x="-39.25" y="-132.0" type="curve" smooth="yes"/>
      <point x="-94.0" y="-132.0"/>
      <point x="-134.75" y="-153.25"/>
      <point x="-169.0" y="-217.25" type="curve"/>
      <point x="-177.25" y="-165.5"/>
      <point x="-212.75" y="-132.0"/>
      <point x="-269.0" y="-132.0" type="curve" smooth="yes"/>
      <point x="-353.75" y="-132.0"/>
      <point x="-411.875" y="-189.375"/>
    </contour>
  </outline>
</glyph>
<glyph name="leftanglebelowcomb" format="2">
  <unicode hex="0349"/>
  <anchor x="-91.25" y="0.0" name="_bottom"/>
  <anchor x="-183.5" y="-458.25" name="bottom"/>
  <outline>
    <contour>
      <point x="-173.5" y="-458.25" type="line"/>
      <point x="-87.5" y="-458.25" type="line"/>
      <point x="-18.625000000000004" y="-138.75" type="line"/>
      <point x="-270.875" y="-138.75" type="line"/>
      <point x="-290.25" y="-224.0" type="line"/>
      <point x="-121.75" y="-224.0" type="line"/>
    </contour>
  </outline>
</glyph>
<glyph name="fermatacomb" format="2">
  <unicode hex="0352"/>
  <anchor x="111.625" y="1079.25" name="_top"/>
  <anchor x="223.75" y="1638.375" name="top"/>
  <outline>
    <contour>
      <point x="-17.625" y="1403.25" type="curve"/>
      <point x="51.5" y="1403.25" type="line"/>
      <point x="76.25" y="1513.875"/>
      <point x="128.5" y="1560.25"/>
      <point x="204.0" y="1560.25" type="curve" smooth="yes"/>
      <point x="276.875" y="1560.25"/>
      <point x="325.75" y="1525.0"/>
      <point x="325.75" y="1403.25" type="curve"/>
      <point x="390.125" y="1403.25" type="line"/>
      <point x="405.375" y="1535.875"/>
      <point x="348.375" y="1638.375"/>
      <point x="211.25" y="1638.375" type="curve" smooth="yes"/>
      <point x="83.25" y="1638.375"/>
      <point x="8.25" y="1552.625"/>
    </contour>
    <contour>
      <point x="154.25" y="1239.75" type="curve" smooth="yes"/>
      <point x="201.25" y="1239.75"/>
      <point x="235.125" y="1291.25"/>
      <point x="235.125" y="1351.125" type="curve" smooth="yes"/>
      <point x="235.125" y="1393.375"/>
      <point x="218.5" y="1414.625"/>
      <point x="186.25" y="1414.625" type="curve" smooth="yes"/>
      <point x="140.0" y="1414.625"/>
      <point x="107.375" y="1360.25"/>
      <point x="107.375" y="1296.625" type="curve" smooth="yes"/>
      <point x="107.375" y="1257.625"/>
      <point x="124.0" y="1239.75"/>
    </contour>
  </outline>
</glyph>
<glyph name="arrowheadrightbelowcomb" format="2">
  <unicode hex="0355"/>
  <anchor x="-94.75" y="0.0" name="_bottom"/>
  <anchor x="-194.125" y="-492.0" name="bottom"/>
  <outline>
    <contour>
      <point x="-265.25" y="-492.0" type="line"/>
      <point x="-253.75" y="-492.0" type="line"/>
      <point x="-173.5" y="-412.0"/>
      <point x="-102.0" y="-355.75"/>
      <point x="-47.25" y="-322.625" type="curve"/>
      <point x="-47.25" y="-250.75" type="line"/>
      <point x="-106.0" y="-212.0"/>
      <point x="-201.25" y="-131.5"/>
      <point x="-253.75" y="-80.0" type="curve"/>
      <point x="-265.25" y="-80.0" type="line"/>
      <point x="-265.25" y="-148.625" type="line"/>
      <point x="-225.5" y="-196.75"/>
      <point x="-180.5" y="-239.5"/>
      <point x="-131.25" y="-287.0" type="curve"/>
      <point x="-177.25" y="-330.5"/>
      <point x="-223.0" y="-372.75"/>
      <point x="-265.25" y="-422.75" type="curve"/>
    </contour>
  </outline>
</glyph>
<glyph name="Theta" format="2">
  <advance width="985.875"/>
  <unicode hex="0398"/>
  <anchor x="379.5" y="0.0" name="bottom"/>
  <anchor x="690.375" y="1462.0" name="top"/>
  <outline>
    <contour>
      <point x="354.625" y="-20.0" type="curve" smooth="yes"/>
      <point x="748.25" y="-20.0"/>
      <point x="922.0" y="686.125"/>
      <point x="922.0" y="1094.625" type="curve" smooth="yes"/>
      <point x="922.0" y="1366.5"/>
      <point x="821.875" y="1483.0"/>
      <point x="641.0" y="1483.0" type="curve" smooth="yes"/>
      <point x="238.625" y="1483.0"/>
      <point x="70.75" y="768.5"/>
      <point x="70.75" y="391.875" type="curve" smooth="yes"/>
      <point x="70.75" y="110.125"/>
      <point x="166.75" y="-20.0"/>
    </contour>
    <contour>
      <point x="363.25" y="67.75" type="curve" smooth="yes"/>
      <point x="236.5" y="67.75"/>
      <point x="168.125" y="163.5"/>
      <point x="168.125" y="393.625" type="curve" smooth="yes"/>
      <point x="168.125" y="694.875"/>
      <point x="308.25" y="1395.625"/>
      <point x="634.0" y="1395.625" type="curve" smooth="yes"/>
      <point x="764.25" y="1395.625"/>
      <point x="825.375" y="1304.75"/>
      <point x="825.375" y="1092.875" type="curve" smooth="yes"/>
      <point x="825.375" y="762.75"/>
      <point x="679.5" y="67.75"/>
    </contour>
    <contour>
      <point x="372.25" y="714.875" type="line"/>
      <point x="609.625" y="714.875" type="line"/>
      <point x="628.25" y="801.125" type="line"/>
      <point x="392.375" y="801.125" type="line"/>
    </contour>
  </outline>
</glyph>
<glyph name="Lambda" format="2">
  <advance width="726.625"/>
  <unicode hex="039B"/>
  <anchor x="249.5" y="0.0" name="bottom"/>
  <anchor x="559.75" y="1462.0" name="top"/>
  <outline>
    <contour>
      <point x="-140.0" y="0.0" type="line"/>
      <point x="-39.12500000000001" y="0.0" type="line"/>
      <point x="420.375" y="1096.0" type="line" smooth="yes"/>
      <point x="460.0" y="1193.0"/>
      <point x="490.125" y="1267.375"/>
      <point x="516.875" y="1343.75" type="curve"/>
      <point x="512.5" y="1271.875"/>
      <point x="511.0" y="1204.125"/>
      <point x="511.0" y="1135.0" type="curve" smooth="yes"/>
      <point x="506.25" y="0.0" type="line"/>
      <point x="603.125" y="0.0" type="line"/>
      <point x="600.125" y="1463.5" type="line"/>
      <point x="482.0" y="1463.5" type="line"/>
    </contour>
  </outline>
</glyph>
<glyph name="Sigma" format="2">
  <advance width="674.25"/>
  <unicode hex="03A3"/>
  <anchor x="223.625" y="0.0" name="bottom"/>
  <anchor x="533.875" y="1462.0" name="top"/>
  <outline>
    <contour>
      <point x="-81.5" y="0.0" type="line"/>
      <point x="495.0" y="0.0" type="line"/>
      <point x="510.875" y="87.0" type="line"/>
      <point x="46.625" y="87.0" type="line"/>
      <point x="488.125" y="758.25" type="line"/>
      <point x="320.125" y="1375.0" type="line"/>
      <point x="758.75" y="1375.0" type="line"/>
      <point x="775.875" y="1462.0" type="line"/>
      <point x="235.375" y="1462.0" type="line"/>
      <point x="218.25" y="1378.75" type="line"/>
      <point x="386.5" y="764.75" type="line"/>
      <point x="-67.625" y="76.25" type="line"/>
    </contour>
  </outline>
</glyph>
<glyph name="Omega" format="2">
  <advance width="970.5"/>
  <unicode hex="03A9"/>
  <anchor x="370.875" y="0.0" name="bottom"/>
  <anchor x="682.875" y="1462.0" name="top"/>
  <anchor x="237.25" y="1462.0" name="topleft"/>
  <outline>
    <contour>
      <point x="-74.25" y="0.0" type="line"/>
      <point x="268.625" y="0.0" type="line"/>
      <point x="287.0" y="82.0" type="line"/>
      <point x="212.125" y="187.25"/>
      <point x="178.125" y="322.125"/>
      <point x="178.125" y="509.0" type="curve" smooth="yes"/>
      <point x="178.125" y="804.875"/>
      <point x="292.125" y="1395.625"/>
      <point x="626.125" y="1395.625" type="curve" smooth="yes"/>
      <point x="763.75" y="1395.625"/>
      <point x="827.75" y="1296.75"/>
      <point x="827.75" y="1089.875" type="curve" smooth="yes"/>
      <point x="827.75" y="687.125"/>
      <point x="666.625" y="251.125"/>
      <point x="430.375" y="82.0" type="curve"/>
      <point x="412.625" y="0.0" type="line"/>
      <point x="774.625" y="0.0" type="line"/>
      <point x="794.5" y="87.0" type="line"/>
      <point x="534.0" y="87.0" type="line"/>
      <point x="758.75" y="259.125"/>
      <point x="927.25" y="664.25"/>
      <point x="927.25" y="1104.875" type="curve" smooth="yes"/>
      <point x="927.25" y="1349.125"/>
      <point x="836.25" y="1483.0"/>
      <point x="635.0" y="1483.0" type="curve" smooth="yes"/>
      <point x="238.25" y="1483.0"/>
      <point x="83.75" y="899.625"/>
      <point x="83.75" y="521.875" type="curve" smooth="yes"/>
      <point x="83.75" y="325.5"/>
      <point x="132.0" y="171.875"/>
      <point x="197.0" y="87.0" type="curve"/>
      <point x="-55.75" y="87.0" type="line"/>
    </contour>
  </outline>
</glyph>
<glyph name="beta" format="2">
  <advance width="797.0"/>
  <unicode hex="03B2"/>
  <anchor x="358.75" y="0.0" name="bottom"/>
  <anchor x="617.125" y="1567.0" name="top"/>
  <anchor x="974.25" y="1567.0" name="topright"/>
  <outline>
    <contour>
      <point x="-100.25" y="-492.0" type="line"/>
      <point x="-10.500000000000005" y="-492.0" type="line"/>
      <point x="109.75" y="55.75" type="line"/>
      <point x="153.0" y="16.625"/>
      <point x="230.25" y="-20.0"/>
      <point x="316.75" y="-20.0" type="curve" smooth="yes"/>
      <point x="597.75" y="-20.0"/>
      <point x="699.625" y="277.125"/>
      <point x="699.625" y="517.75" type="curve" smooth="yes"/>
      <point x="699.625" y="675.0"/>
      <point x="630.875" y="795.25"/>
      <point x="523.125" y="819.75" type="curve"/>
      <point x="721.75" y="858.25"/>
      <point x="812.875" y="1074.75"/>
      <point x="812.875" y="1304.875" type="curve" smooth="yes"/>
      <point x="812.875" y="1477.375"/>
      <point x="719.5" y="1567.0"/>
      <point x="579.875" y="1567.0" type="curve" smooth="yes"/>
      <point x="383.75" y="1567.0"/>
      <point x="310.5" y="1433.125"/>
      <point x="266.25" y="1229.25" type="curve" smooth="yes"/>
    </contour>
    <contour>
      <point x="311.375" y="65.5" type="curve" smooth="yes"/>
      <point x="240.0" y="65.5"/>
      <point x="170.5" y="101.25"/>
      <point x="130.125" y="146.75" type="curve"/>
      <point x="358.5" y="1228.375" type="line" smooth="yes"/>
      <point x="393.875" y="1392.375"/>
      <point x="448.5" y="1482.625"/>
      <point x="568.375" y="1482.625" type="curve" smooth="yes"/>
      <point x="664.125" y="1482.625"/>
      <point x="717.0" y="1422.75"/>
      <point x="717.0" y="1299.125" type="curve" smooth="yes"/>
      <point x="717.0" y="1094.25"/>
      <point x="633.75" y="861.875"/>
      <point x="427.0" y="861.875" type="curve" smooth="yes"/>
      <point x="401.5" y="861.875" type="line"/>
      <point x="381.75" y="777.5" type="line"/>
      <point x="412.0" y="777.5" type="line" smooth="yes"/>
      <point x="529.375" y="777.5"/>
      <point x="604.5" y="684.5"/>
      <point x="604.5" y="513.25" type="curve" smooth="yes"/>
      <point x="604.5" y="318.625"/>
      <point x="533.375" y="65.5"/>
    </contour>
  </outline>
</glyph>
<glyph name="theta" format="2">
  <advance width="792.75"/>
  <unicode hex="03B8"/>
  <anchor x="282.375" y="0.0" name="bottom"/>
  <anchor x="617.625" y="1577.75" name="top"/>
  <anchor x="972.75" y="1577.75" name="topright"/>
  <outline>
    <contour>
      <point x="282.375" y="-23.125" type="curve" smooth="yes"/>
      <point x="487.625" y="-23.125"/>
      <point x="628.5" y="284.75"/>
      <point x="713.0" y="624.625" type="curve" smooth="yes"/>
      <point x="768.5" y="828.375"/>
      <point x="802.5" y="1070.375"/>
      <point x="802.5" y="1234.625" type="curve" smooth="yes"/>
      <point x="802.5" y="1474.875"/>
      <point x="734.875" y="1577.75"/>
      <point x="588.625" y="1577.75" type="curve" smooth="yes"/>
      <point x="349.0" y="1577.75"/>
      <point x="202.75" y="1203.0"/>
      <point x="125.75" y="849.5" type="curve" smooth="yes"/>
      <point x="84.0" y="657.125"/>
      <point x="62.25" y="473.625"/>
      <point x="62.25" y="346.75" type="curve" smooth="yes"/>
      <point x="62.25" y="84.5"/>
      <point x="138.25" y="-23.125"/>
    </contour>
    <contour>
      <point x="285.25" y="60.0" type="curve" smooth="yes"/>
      <point x="203.25" y="60.0"/>
      <point x="154.25" y="128.25"/>
      <point x="154.25" y="342.0" type="curve" smooth="yes"/>
      <point x="154.25" y="441.125"/>
      <point x="171.5" y="591.625"/>
      <point x="204.5" y="762.125" type="curve"/>
      <point x="652.0" y="762.125" type="line"/>
      <point x="580.125" y="401.875"/>
      <point x="456.75" y="60.0"/>
    </contour>
    <contour>
      <point x="221.625" y="844.5" type="line"/>
      <point x="296.625" y="1185.625"/>
      <point x="419.25" y="1495.25"/>
      <point x="583.375" y="1495.25" type="curve" smooth="yes"/>
      <point x="671.25" y="1495.25"/>
      <point x="709.25" y="1427.75"/>
      <point x="709.25" y="1241.75" type="curve" smooth="yes"/>
      <point x="709.25" y="1143.0"/>
      <point x="694.25" y="1000.625"/>
      <point x="667.75" y="844.5" type="curve"/>
    </contour>
  </outline>
</glyph>
<glyph name="lambda" format="2">
  <advance width="637.25"/>
  <unicode hex="03BB"/>
  <anchor x="204.75" y="0.0" name="bottom"/>
  <anchor x="538.75" y="1569.75" name="top"/>
  <outline>
    <contour>
      <point x="499.75" y="-20.0" type="curve" smooth="yes"/>
      <point x="521.875" y="-20.0"/>
      <point x="552.875" y="-14.0"/>
      <point x="567.25" y="-8.5" type="curve"/>
      <point x="567.25" y="74.25" type="line"/>
      <point x="553.125" y="68.75"/>
      <point x="535.25" y="65.5"/>
      <point x="514.875" y="65.5" type="curve" smooth="yes"/>
      <point x="471.875" y="65.5"/>
      <point x="455.25" y="99.75"/>
      <point x="456.5" y="190.75" type="curve" smooth="yes"/>
      <point x="471.625" y="1368.0" type="line" smooth="yes"/>
      <point x="472.125" y="1504.875"/>
      <point x="426.125" y="1569.75"/>
      <point x="323.25" y="1569.75" type="curve" smooth="yes"/>
      <point x="288.0" y="1569.75"/>
      <point x="262.375" y="1563.0"/>
      <point x="244.75" y="1557.125" type="curve"/>
      <point x="244.75" y="1474.75" type="line"/>
      <point x="260.875" y="1481.875"/>
      <point x="278.875" y="1486.5"/>
      <point x="299.5" y="1486.5" type="curve" smooth="yes"/>
      <point x="359.125" y="1486.5"/>
      <point x="380.5" y="1452.25"/>
      <point x="379.25" y="1365.0" type="curve" smooth="yes"/>
      <point x="374.75" y="1096.25" type="line"/>
      <point x="-102.75" y="0.0" type="line"/>
      <point x="-7.250000000000007" y="0.0" type="line"/>
      <point x="325.375" y="781.75" type="line" smooth="yes"/>
      <point x="346.875" y="829.75"/>
      <point x="365.375" y="878.75"/>
      <point x="381.625" y="925.0" type="curve"/>
      <point x="377.375" y="859.25"/>
      <point x="377.375" y="812.125"/>
      <point x="375.375" y="742.0" type="curve" smooth="yes"/>
      <point x="366.375" y="174.75" type="line" smooth="yes"/>
      <point x="365.125" y="36.0"/>
      <point x="405.375" y="-20.0"/>
    </contour>
  </outline>
</glyph>
<glyph name="pi" format="2">
  <advance width="777.5"/>
  <unicode hex="03C0"/>
  <anchor x="274.25" y="0.0" name="bottom"/>
  <anchor x="503.25" y="1079.25" name="top"/>
  <outline>
    <contour>
      <point x="552.375" y="-9.0" type="curve" smooth="yes"/>
      <point x="585.125" y="-9.0"/>
      <point x="618.25" y="-1.4999999999999996"/>
      <point x="640.375" y="9.0" type="curve"/>
      <point x="640.375" y="88.0" type="line"/>
      <point x="627.5" y="83.25"/>
      <point x="602.625" y="76.5"/>
      <point x="580.75" y="76.5" type="curve" smooth="yes"/>
      <point x="541.25" y="76.5"/>
      <point x="520.0" y="98.875"/>
      <point x="520.0" y="139.875" type="curve" smooth="yes"/>
      <point x="520.0" y="173.25"/>
      <point x="525.25" y="208.5"/>
      <point x="535.0" y="256.0" type="curve" smooth="yes"/>
      <point x="693.875" y="1002.375" type="line"/>
      <point x="823.75" y="1002.375" type="line"/>
      <point x="838.5" y="1084.875" type="line"/>
      <point x="198.25" y="1084.875" type="line"/>
      <point x="106.875" y="1049.375" type="line"/>
      <point x="96.0" y="1002.375" type="line"/>
      <point x="235.875" y="1002.375" type="line"/>
      <point x="17.374999999999996" y="0.0" type="line"/>
      <point x="110.0" y="0.0" type="line"/>
      <point x="327.5" y="1002.375" type="line"/>
      <point x="601.875" y="1002.375" type="line"/>
      <point x="444.125" y="261.625" type="line" smooth="yes"/>
      <point x="434.125" y="213.125"/>
      <point x="426.25" y="161.875"/>
      <point x="426.25" y="124.75" type="curve" smooth="yes"/>
      <point x="426.25" y="31.5"/>
      <point x="478.375" y="-9.0"/>
    </contour>
  </outline>
</glyph>
<glyph name="psi" format="2">
  <advance width="889.875"/>
  <unicode hex="03C8"/>
  <anchor x="226.625" y="-492.0" name="bottom"/>
  <anchor x="663.75" y="1564.0" name="top"/>
  <outline>
    <contour>
      <point x="178.625" y="-492.0" type="line"/>
      <point x="270.25" y="-492.0" type="line"/>
      <point x="370.25" y="-23.125" type="line"/>
      <point x="772.375" y="-18.5"/>
      <point x="848.125" y="624.875"/>
      <point x="859.625" y="1084.875" type="curve"/>
      <point x="769.625" y="1084.875" type="line"/>
      <point x="758.875" y="678.0"/>
      <point x="690.625" y="68.75"/>
      <point x="388.75" y="63.75" type="curve"/>
      <point x="706.75" y="1564.0" type="line"/>
      <point x="615.875" y="1564.0" type="line"/>
      <point x="296.5" y="63.0" type="line"/>
      <point x="201.5" y="74.25"/>
      <point x="140.375" y="134.5"/>
      <point x="140.375" y="261.625" type="curve" smooth="yes"/>
      <point x="140.375" y="339.375"/>
      <point x="156.75" y="419.75"/>
      <point x="176.375" y="508.5" type="curve" smooth="yes"/>
      <point x="300.625" y="1084.875" type="line"/>
      <point x="208.25" y="1084.875" type="line"/>
      <point x="84.75" y="515.625" type="line" smooth="yes"/>
      <point x="64.875" y="418.75"/>
      <point x="50.0" y="335.5"/>
      <point x="50.0" y="258.625" type="curve" smooth="yes"/>
      <point x="50.0" y="87.75"/>
      <point x="140.5" y="-8.0"/>
      <point x="279.375" y="-21.125" type="curve"/>
    </contour>
  </outline>
</glyph>
<glyph name="KaiSymbol" format="2">
  <advance width="738.125"/>
  <unicode hex="03CF"/>
  <outline>
    <contour>
      <point x="119.5" y="-492.0" type="curve" smooth="yes"/>
      <point x="364.0" y="-492.0"/>
      <point x="522.875" y="-362.125"/>
      <point x="618.875" y="0.0" type="curve"/>
      <point x="438.75" y="809.25" type="line"/>
      <point x="908.125" y="1462.0" type="line"/>
      <point x="800.75" y="1462.0" type="line"/>
      <point x="373.25" y="870.875" type="line"/>
      <point x="242.75" y="682.5" type="line"/>
      <point x="408.0" y="1462.0" type="line"/>
      <point x="312.75" y="1462.0" type="line"/>
      <point x="2.499999999999999" y="0.0" type="line"/>
      <point x="97.125" y="0.0" type="line"/>
      <point x="217.875" y="568.625" type="line"/>
      <point x="358.625" y="733.0" type="line"/>
      <point x="514.5" y="0.0" type="line"/>
      <point x="434.5" y="-309.5"/>
      <point x="302.125" y="-399.5"/>
      <point x="125.5" y="-399.5" type="curve" smooth="yes"/>
      <point x="28.125" y="-399.5"/>
      <point x="-55.125" y="-367.375"/>
      <point x="-114.375" y="-320.5" type="curve"/>
      <point x="-135.5" y="-419.75" type="line"/>
      <point x="-92.5" y="-451.625"/>
      <point x="5.8749999999999964" y="-492.0"/>
    </contour>
  </outline>
</glyph>
<glyph name="uni03D1" format="2">
  <advance width="870.625"/>
  <unicode hex="03D1"/>
  <outline>
    <contour>
      <point x="262.375" y="-20.0" type="curve" smooth="yes"/>
      <point x="525.375" y="-20.0"/>
      <point x="678.75" y="316.5"/>
      <point x="764.375" y="867.25" type="curve"/>
      <point x="886.5" y="867.25" type="line"/>
      <point x="904.875" y="951.625" type="line"/>
      <point x="777.875" y="951.625" type="line"/>
      <point x="787.0" y="1040.875"/>
      <point x="794.25" y="1124.75"/>
      <point x="794.25" y="1218.875" type="curve" smooth="yes"/>
      <point x="794.25" y="1474.125"/>
      <point x="719.375" y="1579.0"/>
      <point x="568.625" y="1579.0" type="curve" smooth="yes"/>
      <point x="386.625" y="1579.0"/>
      <point x="291.0" y="1404.75"/>
      <point x="291.0" y="1212.625" type="curve" smooth="yes"/>
      <point x="291.0" y="966.75"/>
      <point x="450.125" y="866.75"/>
      <point x="670.75" y="868.0" type="curve"/>
      <point x="592.5" y="365.625"/>
      <point x="455.75" y="62.5"/>
      <point x="272.625" y="62.5" type="curve" smooth="yes"/>
      <point x="195.0" y="62.5"/>
      <point x="154.75" y="109.25"/>
      <point x="154.75" y="201.875" type="curve" smooth="yes"/>
      <point x="154.75" y="292.5"/>
      <point x="177.875" y="394.5"/>
      <point x="212.0" y="499.375" type="curve" smooth="yes"/>
      <point x="245.25" y="595.625"/>
      <point x="275.75" y="684.0"/>
      <point x="275.75" y="751.0" type="curve" smooth="yes"/>
      <point x="275.75" y="842.125"/>
      <point x="224.625" y="885.125"/>
      <point x="156.125" y="885.125" type="curve" smooth="yes"/>
      <point x="112.125" y="885.125"/>
      <point x="74.25" y="873.125"/>
      <point x="46.75" y="860.0" type="curve"/>
      <point x="46.75" y="774.875" type="line"/>
      <point x="68.75" y="788.25"/>
      <point x="97.25" y="799.625"/>
      <point x="127.0" y="799.625" type="curve" smooth="yes"/>
      <point x="161.875" y="799.625"/>
      <point x="180.625" y="775.625"/>
      <point x="180.625" y="731.875" type="curve" smooth="yes"/>
      <point x="180.625" y="673.625"/>
      <point x="151.375" y="591.75"/>
      <point x="122.5" y="504.625" type="curve" smooth="yes"/>
      <point x="88.0" y="401.125"/>
      <point x="59.00000000000001" y="301.0"/>
      <point x="59.00000000000001" y="192.875" type="curve" smooth="yes"/>
      <point x="59.00000000000001" y="41.0"/>
      <point x="144.125" y="-20.0"/>
    </contour>
    <contour>
      <point x="683.875" y="951.625" type="curve"/>
      <point x="507.25" y="952.375"/>
      <point x="385.375" y="1018.5"/>
      <point x="385.375" y="1216.625" type="curve" smooth="yes"/>
      <point x="385.375" y="1368.75"/>
      <point x="453.5" y="1496.5"/>
      <point x="564.625" y="1496.5" type="curve" smooth="yes"/>
      <point x="664.875" y="1496.5"/>
      <point x="700.625" y="1393.0"/>
      <point x="700.625" y="1214.125" type="curve" smooth="yes"/>
      <point x="700.625" y="1127.5"/>
      <point x="694.625" y="1044.875"/>
    </contour>
  </outline>
</glyph>
<glyph name="uni03D6" format="2">
  <advance width="912.25"/>
  <unicode hex="03D6"/>
  <outline>
    <contour>
      <point x="188.625" y="-20.0" type="curve" smooth="yes"/>
      <point x="284.75" y="-20.0"/>
      <point x="332.5" y="34.0"/>
      <point x="372.125" y="127.25" type="curve"/>
      <point x="372.125" y="29.749999999999996"/>
      <point x="421.125" y="-20.0"/>
      <point x="501.5" y="-20.0" type="curve" smooth="yes"/>
      <point x="752.5" y="-20.0"/>
      <point x="851.125" y="513.5"/>
      <point x="851.125" y="842.0" type="curve" smooth="yes"/>
      <point x="851.125" y="896.75"/>
      <point x="847.875" y="956.125"/>
      <point x="844.625" y="1001.625" type="curve"/>
      <point x="986.125" y="1001.625" type="line"/>
      <point x="1004.0" y="1084.875" type="line"/>
      <point x="197.375" y="1084.875" type="line"/>
      <point x="99.5" y="1048.125" type="line"/>
      <point x="90.5" y="1001.625" type="line"/>
      <point x="242.25" y="1001.625" type="line"/>
      <point x="127.0" y="770.75"/>
      <point x="31.125" y="469.25"/>
      <point x="31.125" y="224.625" type="curve" smooth="yes"/>
      <point x="31.125" y="53.625"/>
      <point x="98.125" y="-20.0"/>
    </contour>
    <contour>
      <point x="209.75" y="67.0" type="curve" smooth="yes"/>
      <point x="159.125" y="67.0"/>
      <point x="126.125" y="109.75"/>
      <point x="126.125" y="223.875" type="curve" smooth="yes"/>
      <point x="126.125" y="457.75"/>
      <point x="216.125" y="760.125"/>
      <point x="337.0" y="1001.625" type="curve"/>
      <point x="754.625" y="1001.625" type="line"/>
      <point x="756.625" y="955.375"/>
      <point x="758.625" y="896.5"/>
      <point x="758.625" y="844.0" type="curve" smooth="yes"/>
      <point x="758.625" y="555.625"/>
      <point x="675.125" y="67.0"/>
      <point x="507.5" y="67.0" type="curve" smooth="yes"/>
      <point x="464.25" y="67.0"/>
      <point x="439.25" y="102.25"/>
      <point x="439.25" y="166.0" type="curve" smooth="yes"/>
      <point x="439.25" y="229.125"/>
      <point x="448.75" y="284.25"/>
      <point x="476.25" y="410.75" type="curve" smooth="yes"/>
      <point x="526.75" y="658.625" type="line"/>
      <point x="435.875" y="658.625" type="line"/>
      <point x="384.0" y="410.75" type="line" smooth="yes"/>
      <point x="336.25" y="180.25"/>
      <point x="300.75" y="67.0"/>
    </contour>
  </outline>
</glyph>
<glyph name="uni03DB" format="2">
  <advance width="571.625"/>
  <unicode hex="03DB"/>
  <anchor x="95.125" y="-367.125" name="bottom"/>
  <anchor x="401.625" y="1079.25" name="top"/>
  <outline>
    <contour>
      <point x="108.75" y="-367.125" type="curve" smooth="yes"/>
      <point x="310.625" y="-367.125"/>
      <point x="399.875" y="-249.75"/>
      <point x="399.875" y="-114.625" type="curve" smooth="yes"/>
      <point x="399.875" y="-11.000000000000004"/>
      <point x="353.375" y="38.25"/>
      <point x="282.5" y="93.625" type="curve" smooth="yes"/>
      <point x="191.75" y="164.75"/>
      <point x="148.75" y="218.25"/>
      <point x="148.75" y="377.375" type="curve" smooth="yes"/>
      <point x="148.75" y="611.5"/>
      <point x="277.25" y="1020.75"/>
      <point x="502.5" y="1020.75" type="curve" smooth="yes"/>
      <point x="548.125" y="1020.75"/>
      <point x="583.625" y="1008.625"/>
      <point x="615.625" y="993.25" type="curve"/>
      <point x="650.125" y="1073.5" type="line"/>
      <point x="612.25" y="1092.625"/>
      <point x="564.625" y="1105.5"/>
      <point x="501.875" y="1105.5" type="curve" smooth="yes"/>
      <point x="204.25" y="1105.5"/>
      <point x="51.5" y="675.75"/>
      <point x="51.5" y="369.875" type="curve" smooth="yes"/>
      <point x="51.5" y="176.875"/>
      <point x="105.875" y="105.375"/>
      <point x="213.0" y="26.625" type="curve" smooth="yes"/>
      <point x="273.375" y="-18.125"/>
      <point x="301.75" y="-56.625"/>
      <point x="301.75" y="-118.375" type="curve" smooth="yes"/>
      <point x="301.75" y="-202.125"/>
      <point x="246.0" y="-282.375"/>
      <point x="103.625" y="-282.375" type="curve" smooth="yes"/>
      <point x="57.875" y="-282.375"/>
      <point x="12.374999999999998" y="-274.75"/>
      <point x="-17.625" y="-262.75" type="curve"/>
      <point x="-17.625" y="-353.875" type="line"/>
      <point x="13.124999999999998" y="-361.875"/>
      <point x="60.125" y="-367.125"/>
    </contour>
  </outline>
</glyph>
<glyph name="uni03DE" format="2">
  <advance width="817.625"/>
  <unicode hex="03DE"/>
  <anchor x="295.0" y="0.0" name="bottom"/>
  <anchor x="605.875" y="1462.0" name="top"/>
  <outline>
    <contour>
      <point x="643.5" y="-19.875" type="curve" smooth="yes"/>
      <point x="678.0" y="-19.875"/>
      <point x="711.5" y="-13.5"/>
      <point x="728.375" y="-8.0" type="curve"/>
      <point x="732.375" y="76.5" type="line"/>
      <point x="717.75" y="70.5"/>
      <point x="690.625" y="65.25"/>
      <point x="665.0" y="65.25" type="curve" smooth="yes"/>
      <point x="602.375" y="65.25"/>
      <point x="569.375" y="98.875"/>
      <point x="569.375" y="170.75" type="curve" smooth="yes"/>
      <point x="569.375" y="224.125"/>
      <point x="584.125" y="292.5"/>
      <point x="604.125" y="374.25" type="curve" smooth="yes"/>
      <point x="713.625" y="809.375" type="line"/>
      <point x="300.625" y="809.375" type="line"/>
      <point x="369.75" y="1087.625" type="line" smooth="yes"/>
      <point x="385.75" y="1155.25"/>
      <point x="407.5" y="1235.25"/>
      <point x="407.5" y="1308.375" type="curve" smooth="yes"/>
      <point x="407.5" y="1409.25"/>
      <point x="353.375" y="1483.0"/>
      <point x="241.375" y="1483.0" type="curve" smooth="yes"/>
      <point x="201.75" y="1483.0"/>
      <point x="162.5" y="1474.25"/>
      <point x="137.25" y="1464.5" type="curve"/>
      <point x="147.375" y="1384.0" type="line"/>
      <point x="164.5" y="1390.0"/>
      <point x="190.375" y="1397.875"/>
      <point x="220.5" y="1397.875" type="curve" smooth="yes"/>
      <point x="283.125" y="1397.875"/>
      <point x="312.25" y="1363.0"/>
      <point x="312.25" y="1294.25" type="curve" smooth="yes"/>
      <point x="312.25" y="1235.0"/>
      <point x="291.5" y="1150.0"/>
      <point x="274.375" y="1080.5" type="curve" smooth="yes"/>
      <point x="184.0" y="719.875" type="line"/>
      <point x="596.25" y="719.875" type="line"/>
      <point x="510.25" y="373.5" type="line" smooth="yes"/>
      <point x="488.875" y="291.0"/>
      <point x="473.5" y="218.5"/>
      <point x="473.5" y="152.875" type="curve" smooth="yes"/>
      <point x="473.5" y="50.375"/>
      <point x="530.875" y="-19.875"/>
    </contour>
  </outline>
</glyph>
<glyph name="uni03DF" format="2">
  <advance width="699.875"/>
  <unicode hex="03DF"/>
  <anchor x="131.875" y="-492.0" name="bottom"/>
  <anchor x="569.875" y="1567.0" name="top"/>
  <outline>
    <contour>
      <point x="426.125" y="-492.0" type="curve" smooth="yes"/>
      <point x="460.0" y="-492.0"/>
      <point x="492.125" y="-483.75"/>
      <point x="510.875" y="-476.25" type="curve"/>
      <point x="510.875" y="-395.75" type="line"/>
      <point x="494.375" y="-401.75"/>
      <point x="466.625" y="-408.25"/>
      <point x="441.875" y="-408.25" type="curve" smooth="yes"/>
      <point x="376.375" y="-408.25"/>
      <point x="347.625" y="-372.625"/>
      <point x="347.625" y="-303.25" type="curve" smooth="yes"/>
      <point x="347.625" y="-222.0"/>
      <point x="381.125" y="-124.125"/>
      <point x="410.25" y="-42.0" type="curve" smooth="yes"/>
      <point x="630.125" y="577.375" type="line"/>
      <point x="630.125" y="645.625" type="line"/>
      <point x="165.625" y="531.125" type="line"/>
      <point x="373.5" y="1116.75" type="line" smooth="yes"/>
      <point x="400.375" y="1194.0"/>
      <point x="438.125" y="1305.125"/>
      <point x="438.125" y="1384.75" type="curve" smooth="yes"/>
      <point x="438.125" y="1486.25"/>
      <point x="394.625" y="1567.0"/>
      <point x="268.25" y="1567.0" type="curve" smooth="yes"/>
      <point x="232.375" y="1567.0"/>
      <point x="196.75" y="1559.0"/>
      <point x="178.0" y="1550.5" type="curve"/>
      <point x="180.25" y="1470.75" type="line"/>
      <point x="194.375" y="1476.75"/>
      <point x="222.5" y="1483.875"/>
      <point x="253.75" y="1483.875" type="curve" smooth="yes"/>
      <point x="317.875" y="1483.875"/>
      <point x="343.5" y="1445.5"/>
      <point x="343.5" y="1375.75" type="curve" smooth="yes"/>
      <point x="343.5" y="1303.125"/>
      <point x="309.25" y="1199.75"/>
      <point x="282.125" y="1122.75" type="curve" smooth="yes"/>
      <point x="57.25" y="491.125" type="line"/>
      <point x="57.25" y="424.875" type="line"/>
      <point x="523.0" y="536.625" type="line"/>
      <point x="318.875" y="-36.0" type="line" smooth="yes"/>
      <point x="289.5" y="-118.375"/>
      <point x="253.625" y="-224.0"/>
      <point x="253.625" y="-313.0" type="curve" smooth="yes"/>
      <point x="253.625" y="-417.875"/>
      <point x="302.25" y="-492.0"/>
    </contour>
  </outline>
</glyph>
<glyph name="uni03E0" format="2">
  <advance width="788.375"/>
  <unicode hex="03E0"/>
  <anchor x="280.375" y="0.0" name="bottom"/>
  <anchor x="591.25" y="1462.0" name="top"/>
  <outline>
    <contour>
      <point x="319.125" y="0.0" type="curve"/>
      <point x="425.0" y="0.0" type="line"/>
      <point x="639.5" y="369.75"/>
      <point x="750.0" y="770.25"/>
      <point x="750.0" y="1075.5" type="curve" smooth="yes"/>
      <point x="750.0" y="1348.875"/>
      <point x="633.25" y="1483.0"/>
      <point x="442.375" y="1483.0" type="curve" smooth="yes"/>
      <point x="299.0" y="1483.0"/>
      <point x="204.25" y="1428.375"/>
      <point x="103.5" y="1335.25" type="curve"/>
      <point x="147.125" y="1261.25" type="line"/>
      <point x="227.375" y="1338.5"/>
      <point x="311.375" y="1395.625"/>
      <point x="429.5" y="1395.625" type="curve" smooth="yes"/>
      <point x="533.125" y="1395.625"/>
      <point x="598.375" y="1337.0"/>
      <point x="626.875" y="1247.25" type="curve"/>
      <point x="244.5" y="1042.875" type="line"/>
      <point x="276.875" y="977.25" type="line"/>
      <point x="642.25" y="1172.125" type="line"/>
      <point x="649.375" y="1144.125"/>
      <point x="652.625" y="1099.375"/>
      <point x="652.625" y="1061.25" type="curve" smooth="yes"/>
      <point x="652.625" y="1021.25"/>
      <point x="650.625" y="985.75"/>
      <point x="647.375" y="946.25" type="curve"/>
      <point x="373.625" y="790.125" type="line"/>
      <point x="405.875" y="725.75" type="line"/>
      <point x="636.375" y="861.125" type="line"/>
      <point x="602.5" y="612.0"/>
      <point x="507.375" y="314.625"/>
    </contour>
  </outline>
</glyph>
<glyph name="uni03F1" format="2">
  <advance width="789.25"/>
  <unicode hex="03F1"/>
  <anchor x="176.375" y="-492.0" name="bottom"/>
  <anchor x="510.375" y="1079.25" name="top"/>
  <outline>
    <contour>
      <point x="386.75" y="-492.0" type="curve"/>
      <point x="475.5" y="-492.0" type="line"/>
      <point x="481.625" y="-476.25"/>
      <point x="490.5" y="-443.625"/>
      <point x="490.5" y="-415.375" type="curve" smooth="yes"/>
      <point x="490.5" y="-318.625"/>
      <point x="426.75" y="-295.0"/>
      <point x="328.125" y="-295.0" type="curve" smooth="yes"/>
      <point x="172.0" y="-295.0"/>
      <point x="122.25" y="-208.875"/>
      <point x="122.25" y="-40.25" type="curve" smooth="yes"/>
      <point x="122.25" y="-1.2500000000000036"/>
      <point x="122.25" y="30.749999999999996"/>
      <point x="123.75" y="64.125" type="curve"/>
      <point x="127.75" y="64.125" type="line"/>
      <point x="164.0" y="22.124999999999996"/>
      <point x="227.25" y="-20.875"/>
      <point x="315.75" y="-20.875" type="curve" smooth="yes"/>
      <point x="620.0" y="-20.875"/>
      <point x="724.125" y="463.25"/>
      <point x="724.125" y="755.75" type="curve" smooth="yes"/>
      <point x="724.125" y="982.25"/>
      <point x="642.25" y="1101.75"/>
      <point x="486.625" y="1101.75" type="curve" smooth="yes"/>
      <point x="213.625" y="1101.75"/>
      <point x="106.625" y="720.25"/>
      <point x="56.75" y="384.5" type="curve" smooth="yes"/>
      <point x="35.25" y="238.375"/>
      <point x="27.875" y="93.375"/>
      <point x="27.875" y="-30.625000000000004" type="curve" smooth="yes"/>
      <point x="27.875" y="-257.5"/>
      <point x="98.0" y="-378.25"/>
      <point x="299.75" y="-378.25" type="curve" smooth="yes"/>
      <point x="367.75" y="-378.25"/>
      <point x="394.75" y="-392.25"/>
      <point x="394.75" y="-437.5" type="curve" smooth="yes"/>
      <point x="394.75" y="-463.75"/>
      <point x="389.5" y="-480.25"/>
    </contour>
    <contour>
      <point x="314.625" y="61.5" type="curve" smooth="yes"/>
      <point x="229.25" y="61.5"/>
      <point x="164.25" y="115.5"/>
      <point x="132.625" y="167.5" type="curve"/>
      <point x="160.0" y="583.0"/>
      <point x="268.875" y="1020.0"/>
      <point x="478.125" y="1020.0" type="curve" smooth="yes"/>
      <point x="580.125" y="1020.0"/>
      <point x="629.75" y="939.75"/>
      <point x="629.75" y="752.5" type="curve" smooth="yes"/>
      <point x="629.75" y="498.875"/>
      <point x="543.5" y="61.5"/>
    </contour>
  </outline>
</glyph>
<glyph name="uni03FB" format="2">
  <advance width="773.75"/>
  <unicode hex="03FB"/>
  <anchor x="167.875" y="-492.0" name="bottom"/>
  <anchor x="501.875" y="1079.25" name="top"/>
  <outline>
    <contour>
      <point x="-92.0" y="-492.0" type="line"/>
      <point x="-4.249999999999998" y="-492.0" type="line"/>
      <point x="244.5" y="679.125" type="line" smooth="yes"/>
      <point x="264.875" y="772.75"/>
      <point x="278.875" y="848.75"/>
      <point x="293.25" y="926.125" type="curve"/>
      <point x="301.0" y="390.5" type="line"/>
      <point x="399.0" y="390.5" type="line"/>
      <point x="634.625" y="926.125" type="line"/>
      <point x="614.0" y="841.75"/>
      <point x="594.375" y="753.875"/>
      <point x="573.25" y="656.125" type="curve" smooth="yes"/>
      <point x="434.0" y="0.0" type="line"/>
      <point x="523.75" y="0.0" type="line"/>
      <point x="754.625" y="1084.875" type="line"/>
      <point x="625.75" y="1084.875" type="line"/>
      <point x="369.0" y="499.75" type="line"/>
      <point x="363.625" y="1084.875" type="line"/>
      <point x="242.25" y="1084.875" type="line"/>
    </contour>
  </outline>
</glyph>
<glyph name="uni03FC" format="2">
  <advance width="793.75"/>
  <unicode hex="03FC"/>
  <anchor x="178.875" y="-492.0" name="bottom"/>
  <anchor x="512.875" y="1079.25" name="top"/>
  <outline>
    <contour>
      <point x="-169.0" y="-261.875" type="line"/>
      <point x="287.0" y="-261.875" type="line"/>
      <point x="302.25" y="-183.25" type="line"/>
      <point x="-153.75" y="-183.25" type="line"/>
    </contour>
    <component base="rho"/>
  </outline>
</glyph>
<glyph name="afii10051" format="2">
  <advance width="833.25"/>
  <unicode hex="0402"/>
  <anchor x="302.0" y="0.0" name="bottom"/>
  <anchor x="613.25" y="1462.0" name="top"/>
  <outline>
    <contour>
      <point x="408.5" y="-20.0" type="curve" smooth="yes"/>
      <point x="569.625" y="-20.0"/>
      <point x="633.875" y="92.25"/>
      <point x="666.75" y="244.625" type="curve" smooth="yes"/>
      <point x="730.375" y="543.75" type="line" smooth="yes"/>
      <point x="739.125" y="587.75"/>
      <point x="746.75" y="632.25"/>
      <point x="746.75" y="674.75" type="curve" smooth="yes"/>
      <point x="746.75" y="802.0"/>
      <point x="673.625" y="871.375"/>
      <point x="500.25" y="871.375" type="curve" smooth="yes"/>
      <point x="374.875" y="871.375" type="line"/>
      <point x="481.625" y="1374.25" type="line"/>
      <point x="736.375" y="1374.25" type="line"/>
      <point x="755.0" y="1462.0" type="line"/>
      <point x="200.5" y="1462.0" type="line"/>
      <point x="181.875" y="1374.25" type="line"/>
      <point x="387.0" y="1374.25" type="line"/>
      <point x="94.25" y="0.0" type="line"/>
      <point x="188.875" y="0.0" type="line"/>
      <point x="356.375" y="783.625" type="line"/>
      <point x="483.75" y="783.625" type="line" smooth="yes"/>
      <point x="610.625" y="783.625"/>
      <point x="650.875" y="738.375"/>
      <point x="650.875" y="661.875" type="curve" smooth="yes"/>
      <point x="650.875" y="623.625"/>
      <point x="644.375" y="580.625"/>
      <point x="637.125" y="543.75" type="curve" smooth="yes"/>
      <point x="575.875" y="265.125" type="line" smooth="yes"/>
      <point x="554.5" y="164.25"/>
      <point x="519.125" y="67.0"/>
      <point x="405.75" y="67.0" type="curve" smooth="yes"/>
      <point x="362.875" y="67.0"/>
      <point x="329.125" y="76.75"/>
      <point x="302.875" y="89.5" type="curve"/>
      <point x="285.0" y="2.0000000000000004" type="line"/>
      <point x="317.875" y="-10.75"/>
      <point x="359.875" y="-20.0"/>
    </contour>
  </outline>
</glyph>
<glyph name="afii10058" format="2">
  <advance width="1286.75"/>
  <unicode hex="0409"/>
  <anchor x="506.25" y="0.0" name="bottom"/>
  <anchor x="817.25" y="1462.0" name="top"/>
  <outline>
    <contour>
      <point x="-17.625" y="-9.5" type="curve" smooth="yes"/>
      <point x="104.5" y="-9.5"/>
      <point x="166.5" y="64.625"/>
      <point x="227.625" y="229.875" type="curve" smooth="yes"/>
      <point x="307.125" y="433.125"/>
      <point x="468.5" y="959.625"/>
      <point x="585.125" y="1372.0" type="curve"/>
      <point x="819.75" y="1372.0" type="line"/>
      <point x="528.5" y="0.0" type="line"/>
      <point x="740.875" y="0.0" type="line" smooth="yes"/>
      <point x="1080.625" y="0.0"/>
      <point x="1181.625" y="283.875"/>
      <point x="1181.625" y="508.5" type="curve" smooth="yes"/>
      <point x="1181.625" y="708.875"/>
      <point x="1075.625" y="810.5"/>
      <point x="866.25" y="810.5" type="curve" smooth="yes"/>
      <point x="794.875" y="810.5" type="line"/>
      <point x="933.25" y="1462.0" type="line"/>
      <point x="521.25" y="1462.0" type="line"/>
      <point x="382.875" y="985.0"/>
      <point x="226.75" y="471.625"/>
      <point x="143.625" y="260.5" type="curve" smooth="yes"/>
      <point x="93.0" y="121.5"/>
      <point x="51.5" y="76.75"/>
      <point x="-25.624999999999996" y="76.75" type="curve" smooth="yes"/>
      <point x="-54.875" y="76.75"/>
      <point x="-77.625" y="82.75"/>
      <point x="-98.875" y="90.625" type="curve"/>
      <point x="-98.875" y="2.0" type="line"/>
      <point x="-79.25" y="-4.25"/>
      <point x="-49.125" y="-9.5"/>
    </contour>
    <contour>
      <point x="640.875" y="86.25" type="line"/>
      <point x="777.375" y="723.875" type="line"/>
      <point x="849.25" y="723.875" type="line" smooth="yes"/>
      <point x="1006.125" y="723.875"/>
      <point x="1084.25" y="659.375"/>
      <point x="1084.25" y="503.5" type="curve" smooth="yes"/>
      <point x="1084.25" y="319.125"/>
      <point x="1014.375" y="86.25"/>
      <point x="746.625" y="86.25" type="curve" smooth="yes"/>
    </contour>
  </outline>
</glyph>
<glyph name="afii10059" format="2">
  <advance width="1207.875"/>
  <unicode hex="040A"/>
  <anchor x="486.375" y="0.0" name="bottom"/>
  <anchor x="797.0" y="1462.0" name="top"/>
  <outline>
    <contour>
      <point x="3.749999999999999" y="0.0" type="line"/>
      <point x="98.375" y="0.0" type="line"/>
      <point x="252.25" y="723.625" type="line"/>
      <point x="614.625" y="723.625" type="line"/>
      <point x="464.25" y="0.0" type="line"/>
      <point x="656.125" y="0.0" type="line" smooth="yes"/>
      <point x="931.0" y="0.0"/>
      <point x="1100.25" y="190.875"/>
      <point x="1100.25" y="497.625" type="curve" smooth="yes"/>
      <point x="1100.25" y="700.625"/>
      <point x="985.625" y="810.5"/>
      <point x="772.125" y="810.5" type="curve" smooth="yes"/>
      <point x="729.375" y="810.5" type="line"/>
      <point x="864.625" y="1462.0" type="line"/>
      <point x="770.375" y="1462.0" type="line"/>
      <point x="632.125" y="812.125" type="line"/>
      <point x="270.125" y="812.125" type="line"/>
      <point x="408.0" y="1462.0" type="line"/>
      <point x="312.75" y="1462.0" type="line"/>
    </contour>
    <contour>
      <point x="576.75" y="86.25" type="line"/>
      <point x="713.875" y="723.875" type="line"/>
      <point x="750.75" y="723.875" type="line" smooth="yes"/>
      <point x="919.5" y="723.875"/>
      <point x="1001.625" y="651.75"/>
      <point x="1001.625" y="497.125" type="curve" smooth="yes"/>
      <point x="1001.625" y="246.0"/>
      <point x="884.0" y="86.25"/>
      <point x="676.625" y="86.25" type="curve" smooth="yes"/>
    </contour>
  </outline>
</glyph>
